<?xml version="1.0" standalone="no"?>
<!DOCTYPE svg PUBLIC "-//W3C//DTD SVG 1.1//EN" "http://www.w3.org/Graphics/SVG/1.1/DTD/svg11.dtd" >
<svg xmlns="http://www.w3.org/2000/svg" xmlns:xlink="http://www.w3.org/1999/xlink" version="1.1">
<metadata>
Created by FontForge 20200427 at Fri May 23 16:28:07 2014
 By www
Copyright (c) S-Core Co., Ltd., 2011. All rights reserved.
</metadata>
<defs>
<font id="CoreGungseoW01-Regular" horiz-adv-x="512" >
  <font-face 
    font-family="CoreGungseoW01-Regular"
    font-weight="400"
    font-stretch="normal"
    units-per-em="1024"
    panose-1="2 11 6 3 2 1 1 2 1 1"
    ascent="819"
    descent="-205"
    x-height="480"
    cap-height="678"
    bbox="-19.8 -260.31 1024 941.25"
    underline-thickness="25"
    underline-position="-236"
    unicode-range="U+0020-2122"
  />
<missing-glyph horiz-adv-x="1024" 
d="M102 -122v820h820v-820h-820zM154 -70h716v716h-716v-716z" />
    <glyph glyph-name=".notdef" horiz-adv-x="1024" 
d="M102 -122v820h820v-820h-820zM154 -70h716v716h-716v-716z" />
    <glyph glyph-name=".null" horiz-adv-x="0" 
 />
    <glyph glyph-name="nonmarkingreturn" horiz-adv-x="341" 
 />
    <glyph glyph-name="space" unicode=" " horiz-adv-x="341" 
 />
    <glyph glyph-name="exclam" unicode="!" horiz-adv-x="358" 
d="M151 226v147q0 21 -1 46.5t-2 51.5q-2 26 -3 49.5t-2 40.5q-1 7 -1.5 14t-1.5 14q0 14 -5 22q-5 7 -10.5 15.5t-9.5 16.5q-4 7 -6.5 14t-2.5 13q0 7 7 12.5t19 5.5q15 0 36 -7.5t39 -25.5q18 -20 26.5 -43t8.5 -44v-338q0 -21 -13 -34.5t-31 -13.5q-24 0 -35.5 12.5
t-11.5 31.5zM136 58q0 21 18 39.5t45 18.5q18 0 37.5 -17.5t19.5 -44.5q0 -26 -17 -44.5t-40 -18.5q-26 0 -44.5 19t-18.5 48z" />
    <glyph glyph-name="quotedbl" unicode="&#x22;" horiz-adv-x="331" 
d="M212 517v89q-1 16 -4.5 36t-10.5 41q-4 8 -8.5 16t-8.5 16q-10 13 -10 27q0 7 7 12.5t19 5.5t33 -7.5t37 -26.5q18 -19 26 -42t8 -45v-118q0 -21 -12 -35t-30 -14q-23 0 -34.5 13.5t-11.5 31.5zM73 517v89q-1 16 -5 36t-10 41q-4 8 -8.5 16t-8.5 16q-10 13 -10 27
q0 7 7 12.5t18 5.5q13 0 33.5 -7.5t37.5 -26.5q18 -19 26 -42t8 -46v-117q0 -21 -12.5 -35t-30.5 -14q-22 0 -33.5 13.5t-11.5 31.5z" />
    <glyph glyph-name="numbersign" unicode="#" horiz-adv-x="594" 
d="M80 30q4 13 9 27.5t10 30.5t10.5 32t11.5 33q-3 0 -5 -2t-18 -2q-4 0 -8.5 1t-8.5 4q-11 5 -27.5 17.5t-25.5 28.5q-10 13 -5.5 25t21.5 12q15 -1 41.5 -1h59.5q5 15 9.5 30t8.5 28q2 8 4.5 16.5t4.5 18.5q3 9 5.5 18.5t5.5 20.5q-23 -5 -38 -6q-5 -1 -9 -2t-8 -1t-8.5 1
t-8.5 4q-11 5 -27.5 17t-25.5 29q-9 13 -5 24.5t21 11.5q18 -1 54 -1t78 1q7 31 11.5 58.5t3.5 45.5q-1 9 -3.5 16t-5.5 14t-6 14.5t-3 17.5q-1 14 4.5 22.5t13.5 9.5q15 1 30 -7.5t28 -23.5q27 -32 32 -78q0 -11 -5 -34t-14 -53q25 0 48 1t41 3q7 30 11 55.5t3 42.5
q-1 9 -4 16l-6 14t-6 14.5t-3 17.5q-1 14 4.5 22.5t14.5 9.5q30 1 58 -31q27 -32 32 -78q0 -9 -4 -27t-10 -41q9 1 18.5 2.5t18.5 1.5q13 0 26.5 -4.5t24.5 -12.5t17.5 -18t6.5 -22q0 -18 -14.5 -27.5t-29.5 -9.5q-12 0 -23 1t-21 3q-10 1 -19.5 2.5t-18.5 1.5h-11
q-7 -21 -13.5 -42t-12.5 -41q-3 -7 -5 -13.5t-4 -13.5t-4 -13.5t-4 -12.5q10 1 20 3.5t20 3.5q20 5 34 5q13 0 27 -4.5t24.5 -12t17.5 -18t7 -22.5q0 -16 -15 -26.5t-28 -10.5q-28 0 -45 4q-10 1 -19.5 2.5t-19.5 1.5q-9 0 -21 -0.5t-25 -0.5q-8 -22 -15.5 -43.5
t-14.5 -42.5l-16 -42t-17 -42q-6 -15 -18.5 -19t-23.5 0q-12 5 -19.5 16.5t-1.5 28.5q10 30 21.5 66.5t23.5 73.5q-13 -1 -25.5 -2t-24.5 -2l-24 -2t-23 -1q-14 -42 -28 -81t-30 -78q-6 -15 -18.5 -19t-24.5 0q-12 5 -19.5 16.5t-1.5 28.5zM269 376q-6 -20 -11.5 -38
t-10.5 -36q-3 -9 -6 -17t-5 -16q-3 -8 -5.5 -16t-4.5 -15q25 0 49.5 0.5t45.5 1.5l4 14l4 14q2 6 4 13t4 13q2 9 5 19.5t6 21.5t6.5 23t7.5 24q-11 -1 -22.5 -2t-23.5 -1l-24 -2t-23 -1z" />
    <glyph glyph-name="dollar" unicode="$" horiz-adv-x="545" 
d="M185 500q-1 -29 16 -51t55 -42q-1 20 -1 41.5v44.5q-1 22 -1 44.5v44.5q-36 -6 -52.5 -31.5t-16.5 -50.5zM330 373q34 -14 66 -32t56 -42t39 -54t15 -69q0 -68 -51 -116q-50 -47 -125 -59v-61q0 -20 -9 -33.5t-27 -13.5q-23 0 -30.5 13t-7.5 32v62q-33 4 -63 16.5
t-55 29.5t-45.5 37.5t-35.5 41.5q-12 15 -12.5 24.5t5.5 12.5q14 9 38 -10q33 -32 76.5 -55.5t91.5 -27.5v248q-31 12 -61.5 28.5t-54.5 39.5q-25 22 -40 50t-15 63q0 20 7.5 47.5t26.5 52.5q18 26 50 45t81 22q-1 8 -2.5 14.5t-2.5 10.5q-3 10 -7.5 19t-7.5 16
q-4 8 -6.5 14.5t-2.5 12.5q0 8 5.5 14t17.5 6q20 0 37.5 -11.5t26.5 -30.5q7 -17 13.5 -37t8.5 -42q23 -12 45 -28t37 -35q4 -4 6 -1.5t2 17.5q0 6 1 14.5t3 16t5.5 13t9.5 5.5q17 0 28.5 -15t17.5 -35q7 -21 10 -41t3 -30q0 -30 -13 -43t-29 -13q-11 -1 -23.5 8t-26.5 22
q-13 13 -28 27t-30 25q-5 3 -9.5 6.5t-8.5 6.5v-198zM330 78q33 13 51.5 38t18.5 54q0 38 -16.5 64.5t-53.5 48.5v-205z" />
    <glyph glyph-name="percent" unicode="%" horiz-adv-x="802" 
d="M169 23q17 25 41 62.5t48 77.5q25 39 47.5 75.5t37.5 61.5q8 13 18.5 31.5t24.5 43.5t29 51l30 52q15 27 28 52t23.5 47t17.5 39t9 27q1 9 0.5 16.5t-1.5 15.5l-2 16t1 17q3 14 11 21.5t17 4.5q28 -6 46 -45q19 -37 13 -85q-1 -5 -7.5 -18t-16.5 -31.5t-23 -41.5t-28 -48
q-15 -24 -30 -49.5t-29 -49t-26.5 -44t-21.5 -35.5q-23 -36 -48 -77t-51 -81q-26 -42 -52 -79t-49 -67q-10 -14 -23.5 -14.5t-23.5 6.5q-11 8 -15 21t5 27zM35 499q0 67 45 117q22 24 54 38.5t72 14.5q30 -1 58.5 -13.5t49.5 -35.5q22 -23 34.5 -55t12.5 -70
q0 -32 -11.5 -63t-32.5 -55q-21 -25 -50 -40.5t-64 -14.5q-32 0 -62.5 10.5t-53.5 31.5q-24 22 -38 54.5t-14 80.5zM127 502q-1 -52 18 -80.5t58 -28.5q27 1 44 26.5t18 76.5q0 51 -16.5 75.5t-45.5 24.5q-31 -1 -53.5 -26.5t-22.5 -67.5zM446 170q0 31 12.5 61.5t35.5 53.5
q22 24 53 38.5t68 14.5q29 0 57.5 -12.5t50.5 -34.5q22 -23 35.5 -54.5t13.5 -70.5q-1 -32 -12.5 -63t-32.5 -56t-50 -40.5t-65 -14.5q-32 0 -62 10.5t-53 31.5q-23 22 -37 55t-14 81zM538 173q-1 -52 17.5 -80t56.5 -28q27 0 45 25.5t19 76.5q0 51 -17 76t-47 25
q-30 -1 -52 -27t-22 -68z" />
    <glyph glyph-name="ampersand" unicode="&#x26;" horiz-adv-x="727" 
d="M421 121q-24 18 -47.5 38.5t-44.5 39.5q-21 18 -37.5 34t-26.5 26l-21 24q-9 -6 -21.5 -16t-23.5 -24q-12 -15 -20 -33t-8 -39q0 -45 30 -73.5t82 -28.5q45 0 79.5 14.5t58.5 37.5zM278 580q-21 0 -35 -6.5t-21.5 -18t-10.5 -26t-3 -29.5q0 -28 15.5 -56.5t34.5 -52.5
q16 11 30.5 24t28.5 27q29 31 29 58q0 36 -12.5 58t-55.5 22zM275 668q31 0 62 -8.5t55 -28.5q24 -19 39 -51t15 -78q0 -26 -13.5 -50.5t-33.5 -47.5t-43.5 -42.5t-44.5 -33.5q0 -1 1 -1q0 -2 3 -3q10 -12 26 -29.5t35.5 -38t42.5 -43t47 -44.5q16 21 32 51.5t26 63.5
q6 15 10 37t8 43q5 20 11.5 34.5t19.5 15.5q13 0 28.5 -6t28.5 -21q12 -15 22 -34t15 -35q4 -16 3 -27t-10 -11q-12 0 -28.5 7t-23.5 18q-12 14 -15.5 9t-9.5 -31q-10 -42 -27.5 -84t-40.5 -74q33 -29 69.5 -53.5t70.5 -36.5q6 -3 9.5 -10.5t-1.5 -11.5q-4 -5 -9.5 -7
t-10.5 -3h-19q-13 0 -30 6t-36.5 16t-40 23.5t-39.5 28.5q-33 -36 -80.5 -61.5t-102.5 -25.5q-51 0 -92.5 14t-70.5 39q-30 24 -45.5 56.5t-15.5 68.5q0 32 10 57t26 46q17 20 37 36.5t41 31.5q-14 15 -27.5 33t-24.5 38t-18 41.5t-7 44.5q0 31 9.5 61.5t29.5 55.5
q20 24 51.5 39.5t76.5 15.5z" />
    <glyph glyph-name="quotesingle" unicode="'" horiz-adv-x="189" 
d="M79 517v89q-1 16 -5 36t-11 41q-3 8 -7.5 16t-8.5 16q-10 13 -10 27q0 7 7 12.5t17 5.5q14 0 34.5 -7.5t37.5 -26.5q18 -19 25.5 -42t7.5 -46v-117q0 -21 -11.5 -35t-30.5 -14q-22 0 -33.5 13.5t-11.5 31.5z" />
    <glyph glyph-name="parenleft" unicode="(" horiz-adv-x="358" 
d="M287 -96q-5 -2 -10 -1.5t-14 4t-22 12t-33 23.5q-42 30 -73 74.5t-51 98.5q-21 54 -30.5 114.5t-9.5 126.5q-1 70 18.5 134.5t51.5 115.5q31 49 70.5 79t79.5 30q20 0 30 -12t10 -32q0 -17 -11.5 -26.5t-32.5 -14.5q-16 -4 -38 -25t-42 -56q-20 -36 -34 -84t-13 -108
q0 -64 6 -116.5t21 -98.5q16 -48 43 -91t70 -89q22 -23 27 -38t-13 -20z" />
    <glyph glyph-name="parenright" unicode=")" horiz-adv-x="358" 
d="M83 -95q-25 12 17 57q43 46 70 89t43 91q15 46 21 98.5t7 116.5q0 60 -14 108t-34 84q-20 35 -42 56t-37 25q-21 5 -32.5 14.5t-11.5 26.5q0 20 9.5 32t29.5 12q39 0 79 -30t71 -79q32 -51 51.5 -115.5t19.5 -134.5q0 -66 -10 -126.5t-30 -114.5q-21 -54 -51 -98.5
t-72 -74.5t-58.5 -36.5t-25.5 -0.5z" />
    <glyph glyph-name="asterisk" unicode="*" horiz-adv-x="461" 
d="M200 157v97q-6 -5 -12 -9.5t-11 -8.5q-12 -8 -20 -15q-5 -3 -8.5 -5.5t-7.5 -4.5q-6 -5 -18 -3q-12 0 -32 4.5t-34 15.5q-15 8 -16 20.5t15 19.5q21 8 48 23.5t57 34.5q-17 5 -29 10q-7 2 -13.5 4.5t-12.5 4.5q-9 2 -16 6q-3 2 -6.5 5.5t-6.5 8.5q-7 10 -15 28.5t-8 36.5
q-1 17 8.5 25.5t23.5 -0.5q23 -15 51 -29.5t58 -28.5q-1 4 -1 9v9q-1 4 -1 8v8q-1 6 -2 13t-3 14l-2 14t-2 13q-1 3 -3 7t-3 10q-4 9 -4 24q0 6 8 13.5t19 7.5q13 0 31 -7.5t28 -19.5q31 -36 31 -82v-30q7 5 14.5 11t14.5 11q8 5 15 9.5t15 7.5q12 6 26 7.5t27 -0.5t23.5 -9
t15.5 -17q8 -16 -1.5 -31.5t-23.5 -21.5q-11 -6 -21.5 -9t-20.5 -6t-19 -5.5t-17 -6.5q-5 -3 -9.5 -5t-10.5 -5q10 -5 20.5 -9.5t19.5 -8.5q10 -5 17.5 -9t13.5 -7q12 -6 21.5 -16.5t15 -22.5t6.5 -24t-5 -22q-9 -16 -27 -17.5t-31 7.5q-11 6 -19.5 12.5t-16.5 13.5
q-8 6 -15.5 12t-15.5 11q-2 0 -3.5 1t-3.5 2q-1 1 -3 2t-3 2v-64q0 -9 0.5 -18t0.5 -21q0 -21 -13 -35t-31 -14q-24 0 -35.5 13t-11.5 31z" />
    <glyph glyph-name="plus" unicode="+" horiz-adv-x="550" 
d="M123 287q-10 3 -27 16t-26 29q-9 12 -5.5 24t21.5 12q28 -1 72.5 -0.5t90.5 2.5q-1 11 -1.5 21.5t-0.5 20.5q-1 9 -1.5 17.5t-0.5 15.5q-1 13 -3.5 27.5t-4.5 25.5q-2 3 -3.5 8t-3.5 10q-4 9 -4 23q0 6 8.5 14t18.5 8q13 0 31 -7.5t27 -18.5q15 -18 23.5 -39t8.5 -44v-76
q13 1 27.5 3.5t28.5 5.5q13 3 26 5t24 2q13 0 26.5 -4.5t24 -12t17 -17.5t6.5 -22q0 -17 -14 -27.5t-29 -10.5q-12 0 -23 1t-21 3q-10 1 -20 2.5t-19 1.5q-6 0 -12 -0.5t-13 -0.5t-14.5 -0.5t-14.5 -0.5v-160q0 -21 -12.5 -34.5t-31.5 -13.5q-24 0 -35.5 13t-11.5 31v157
q-27 -3 -51.5 -6t-42.5 -6q-5 -1 -9 -2t-9 -1q-4 0 -8.5 1t-8.5 4z" />
    <glyph glyph-name="comma" unicode="," horiz-adv-x="276" 
d="M108 -119q-6 -3 -13.5 -0.5t-11.5 7.5q-12 12 3 27q26 24 37 40t14 43q-18 6 -28.5 28t-13.5 51q-3 26 11 42.5t40 16.5q9 0 21.5 -2t23.5 -8q11 -7 19 -19t8 -33q0 -5 -1 -9.5t-1 -7.5q0 -28 -8 -60q-5 -16 -12 -32.5t-18.5 -31.5t-28.5 -28.5t-41 -23.5z" />
    <glyph glyph-name="hyphen" unicode="-" horiz-adv-x="429" 
d="M70 287q-11 3 -28 16t-26 29q-9 12 -5 24t22 12q42 -2 98 0t110 7q15 1 30 3.5t30 5.5t28.5 5.5t25.5 2.5q13 0 27 -4.5t24.5 -12t17.5 -17.5t7 -22q0 -17 -14.5 -27.5t-29.5 -10.5q-12 0 -23 1t-21 3q-10 1 -20 2.5t-19 1.5q-45 0 -98.5 -7t-101.5 -14q-5 -1 -9 -2
t-8 -1t-8.5 1t-8.5 4z" />
    <glyph glyph-name="period" unicode="." horiz-adv-x="276" 
d="M95 77q-3 26 11 42.5t40 16.5q9 0 21.5 -2t23.5 -9q11 -6 18 -18.5t5 -33.5q-3 -30 -20 -53.5t-40 -23.5q-27 0 -41 23.5t-18 57.5z" />
    <glyph glyph-name="slash" unicode="/" horiz-adv-x="368" 
d="M22 -80q12 28 29 68.5t34 85.5q17 43 32.5 83.5t26.5 69.5q5 13 12.5 34t17 46t20 53t20.5 57q9 28 18 55.5t16 51t11 41.5t4 28q0 9 -2 17t-4 15q-6 16 -6 33q0 14 5.5 22t12.5 8q31 0 57 -35q27 -35 27 -82q0 -6 -4 -20t-11 -34t-16 -45t-19 -52q-11 -27 -21.5 -54.5
t-20.5 -53t-19 -47.5t-15 -38q-17 -42 -34.5 -86t-36.5 -89q-18 -45 -36.5 -86.5t-35.5 -75.5q-8 -15 -21 -17.5t-25 2.5q-11 5 -17.5 17t1.5 28z" />
    <glyph glyph-name="zero" unicode="0" horiz-adv-x="550" 
d="M61 337q0 60 12.5 118.5t40.5 104.5q28 48 71 76t104 28q48 0 87 -26t66 -72q27 -45 41.5 -106.5t14.5 -131.5q0 -69 -11.5 -129.5t-36.5 -106.5q-25 -45 -63.5 -71.5t-93.5 -26.5q-46 0 -88 19t-74 61t-51 106t-19 157zM158 345q-1 -140 35.5 -205.5t96.5 -65.5
q49 -1 77 63t29 197q0 51 -8.5 96t-22.5 80q-15 34 -34.5 54t-40.5 20q-35 0 -60 -22t-41 -56q-16 -35 -23.5 -77t-7.5 -84z" />
    <glyph glyph-name="one" unicode="1" horiz-adv-x="550" 
d="M251 567q-2 7 -2.5 8.5t-3.5 1.5q-2 0 -7 -5l-11 -11q-7 -6 -14 -10.5t-14 -4.5q-16 0 -33 10t-28 21q-9 7 -7 19.5t13 16.5q15 5 30.5 12.5t31.5 18.5q4 4 9.5 8.5t11.5 8.5q6 3 12.5 6t12.5 3q13 0 30.5 -6.5t34.5 -17.5q16 -12 27.5 -28t11.5 -36q-1 -57 -1.5 -111
t-2.5 -105q-1 -51 -3.5 -93.5t-5.5 -72.5q-6 -67 -17 -117q15 1 35 8q9 2 17 4t16 2q6 0 17 -4t21 -10q10 -7 17.5 -16.5t7.5 -20.5q0 -18 -14 -30.5t-24 -12.5q-5 0 -11 0.5t-12 2.5q-7 1 -13.5 2t-11.5 1q-31 0 -77 -3q-48 -3 -79 -13q-15 -5 -29 1t-28.5 20t-21.5 25
q-6 12 -3 23t12 11q25 0 57.5 0.5t62.5 3.5q0 42 -0.5 91.5t-1.5 103.5q-1 33 -2 80.5t-3 92.5q-1 45 -3 79.5t-4 42.5z" />
    <glyph glyph-name="two" unicode="2" horiz-adv-x="550" 
d="M373 448q0 60 -25 90t-65 31q-40 0 -65 -9.5t-42 -21.5q-17 -11 -30 -21t-29 -9q-26 0 -35 5.5t-8 13.5q0 8 7 17.5t14 18.5q10 13 27 31.5t41 35.5q23 17 53.5 29t68.5 12q93 -1 143 -63t50 -156q0 -42 -25.5 -91t-67.5 -100q-40 -51 -90.5 -96.5t-98.5 -81.5
q24 1 49.5 3t50.5 5q27 2 45.5 6t33.5 8l28 6t32 3q33 0 56.5 -18t23.5 -40q0 -21 -12 -34.5t-37 -13.5q-11 0 -21 1.5t-21 3.5q-10 2 -22 4t-26 2q-35 0 -58.5 -2t-45.5 -5t-45 -7t-55 -8q-5 -1 -9.5 -2t-10.5 -1q-5 0 -10.5 0.5t-9.5 3.5q-14 4 -29 19q-7 6 -13 13.5
t-11 14.5q-12 15 -4.5 27t25.5 10q4 -1 9.5 -1h10.5q42 40 87 86t81 94q37 48 60.5 95t24.5 92z" />
    <glyph glyph-name="three" unicode="3" horiz-adv-x="550" 
d="M373 498q0 30 -25 52.5t-65 23.5q-40 0 -66 -10.5t-45 -23.5t-33.5 -24t-30.5 -11q-20 0 -28 5.5t-8 13.5q-1 8 4 17.5t12 18.5q11 15 30.5 34.5t44.5 36.5q26 17 56.5 28.5t65.5 11.5q48 0 83.5 -14.5t59.5 -38.5q25 -24 37.5 -54.5t12.5 -62.5q0 -39 -31 -74.5
t-80 -54.5q55 -23 95 -69q41 -47 41 -116q0 -43 -18.5 -79t-48.5 -61q-30 -26 -69.5 -40t-81.5 -14q-69 0 -121.5 22t-92.5 58q-10 8 -10 17t5 15t13 8.5t14 -0.5q68 -48 162 -48q59 0 105 32q46 33 46 98q0 19 -7.5 40.5t-23.5 40.5q-17 18 -44 30t-67 12q-6 0 -12.5 -0.5
t-13.5 -0.5h-28q-10 0 -23 5.5t-13 31.5q0 8 8 19t20 14q5 1 19 1.5t32 0.5q52 8 86 36t34 73z" />
    <glyph glyph-name="four" unicode="4" horiz-adv-x="550" 
d="M326 38v135q-23 -2 -42.5 -4t-39.5 -5q-20 -2 -41 -5t-45 -6q-5 -1 -10.5 -2t-10.5 -1t-10.5 0.5t-9.5 3.5q-15 5 -28.5 16.5t-25.5 26.5q-12 14 -3 28q2 4 5.5 9t7.5 9q3 5 7 8.5t7 6.5q6 8 16 20.5t20 25.5q10 14 20 27t17 23q12 17 28.5 42t33.5 52t32 52.5t26 44.5
q7 13 13 29t7 22v2q-7 9 -13 16.5t-11 14.5q-11 14 -11 26q0 6 5 13t19 7q16 0 43 -10.5t45 -29.5t29.5 -44t11.5 -48v-279q6 0 11.5 0.5t11.5 0.5q16 0 30.5 -5t25 -13t17 -18.5t6.5 -21.5q0 -43 -50 -43q-7 0 -13 0.5t-13 1.5q-6 1 -12.5 2t-13.5 3v-129q0 -20 -12 -34
t-32 -14q-22 0 -35 13t-13 31zM326 248q-1 20 -1.5 43.5t-0.5 49.5t-0.5 53t-0.5 54q-26 -37 -56.5 -77.5t-54.5 -69.5q-12 -14 -32 -34.5t-35 -33.5q16 0 33 1l34 2q17 2 34.5 3.5t34.5 3.5q12 0 23 1.5t22 3.5z" />
    <glyph glyph-name="five" unicode="5" horiz-adv-x="550" 
d="M232 317h-38q-16 -23 -42 -36q-12 -5 -22 1t-8 15q4 25 8 63.5t8 80.5q3 42 5 79.5t3 61.5q0 14 -4 29t-10 27q-3 6 1 17.5t19 9.5q9 -2 24.5 -9t30.5 -18q24 0 49 1t49 4q11 1 24.5 4.5t28.5 6.5q14 3 28.5 6t27.5 3q36 0 57.5 -17t21.5 -38q0 -18 -14 -30t-29 -12
q-23 0 -43 5q-9 2 -16.5 4t-14.5 2q-32 0 -66 -5t-65 -11q-3 -15 -6 -38l-6 -46q-3 -24 -6 -45t-4 -30l-3 -16q16 1 35 1.5t39 0.5q37 0 74.5 -14.5t67.5 -40.5q29 -26 48 -63t19 -83q0 -43 -18.5 -79t-48.5 -61q-30 -26 -69.5 -40t-81.5 -14q-69 0 -121.5 22t-92.5 58
q-10 8 -10 17t5 15t13 8.5t14 -0.5q68 -48 162 -48q59 0 105 32q46 33 46 98q0 19 -7.5 40.5t-23.5 40.5q-17 18 -44.5 30t-67.5 12q-5 0 -13.5 -0.5t-17.5 -0.5z" />
    <glyph glyph-name="six" unicode="6" horiz-adv-x="550" 
d="M218 327q-11 0 -20 10.5t-9 29.5q0 7 8 15.5t18 13.5q9 4 30.5 7t42.5 3q37 0 74.5 -14.5t67.5 -40.5t49 -62.5t19 -81.5q0 -48 -15.5 -87t-43.5 -67t-66.5 -44t-84.5 -16q-43 -1 -82 19t-69 59q-30 38 -47.5 94.5t-17.5 128.5q0 78 16 146.5t47 119.5t76 80.5t102 29.5
q30 0 56 -9t46 -23q20 -13 35 -29t23 -30q7 -15 5.5 -27.5t-8.5 -19.5q-8 -8 -18 -7.5t-18 12.5q-21 28 -53.5 41.5t-65.5 13.5q-25 0 -50.5 -16t-46.5 -50t-34.5 -87.5t-12.5 -129.5q0 -120 33 -179t96 -60q40 -1 70 34t30 101q0 25 -8.5 48.5t-25.5 41t-43 28t-62 10.5
q-5 0 -11 -1l-12 -2q-6 -2 -11 -2.5t-9 -0.5z" />
    <glyph glyph-name="seven" unicode="7" horiz-adv-x="550" 
d="M371 574q0 5 -13 5q-33 -1 -60.5 -7.5t-52.5 -13.5q-25 -8 -47 -14t-42 -6q-11 0 -24 4.5t-26 11.5t-24 15.5t-17 15.5q-13 12 -7.5 27.5t23.5 15.5q38 0 70.5 1t63.5 3.5t60.5 6t61.5 9.5q3 1 11 4.5t17 7.5q9 3 18.5 6.5t15.5 3.5q16 0 35.5 -9.5t33.5 -24.5
q15 -16 21 -36.5t-4 -42.5q-15 -32 -32 -72t-34 -82q-18 -42 -34 -84t-29 -79q-20 -54 -39 -115.5t-35 -130.5q-4 -14 -15.5 -19.5t-23.5 -4.5q-12 2 -20.5 10.5t-6.5 23.5q5 35 13 71t17 72l20 72l20 72q18 74 43 152q11 38 22 71.5t20 59.5z" />
    <glyph glyph-name="eight" unicode="8" horiz-adv-x="550" 
d="M187 500q0 -29 18 -53.5t43 -42.5q21 18 51 39.5t63 43.5q32 22 63.5 41.5t56.5 34.5q12 8 22 5t15 -11q4 -9 1.5 -20t-14.5 -20q-40 -27 -91 -69.5t-102 -84.5q27 -15 61 -35t63 -46q29 -25 49 -56t20 -67q0 -35 -15 -65.5t-42 -53.5q-28 -23 -67 -36.5t-87 -13.5
q-45 0 -85 12t-71 36q-31 23 -49.5 55.5t-18.5 74.5q0 25 9 49t24.5 46.5t35 43t40.5 39.5q-37 27 -65 65t-28 87q0 31 13 61.5t38 54.5t61 39t81 15q39 0 75.5 -15.5t57.5 -30.5q12 -11 20.5 -25t8.5 -30t-13 -27t-28 -11q-9 0 -22 6t-23 16q-8 6 -34 17q-26 12 -47 12
q-23 0 -39.5 -7.5t-27.5 -19t-16 -26t-5 -27.5zM246 304q-30 -28 -52.5 -62t-22.5 -71q0 -45 30 -73.5t82 -28.5q63 0 94 25t31 61q0 22 -14.5 41.5t-36.5 37.5t-48.5 33.5t-50.5 29.5q-7 2 -12 7z" />
    <glyph glyph-name="nine" unicode="9" horiz-adv-x="550" 
d="M350 337q11 0 20 -11.5t9 -29.5q0 -7 -8 -15.5t-18 -11.5q-10 -6 -31 -8.5t-41 -2.5q-39 0 -76.5 14t-67.5 40q-30 25 -48 62t-18 82q0 95 57 154q58 60 152 60q45 0 84 -20t68 -59q30 -38 47.5 -94t17.5 -128q0 -79 -14.5 -147t-44.5 -119t-75 -80t-108 -29
q-25 0 -49.5 7t-45.5 19.5t-38 29t-27 36.5q-8 13 -6 25.5t9 19.5t17 7t19 -10q24 -30 55 -43t64 -13q28 -1 54 14.5t46 50.5q20 34 32 87t12 131q-1 118 -35 178t-95 60q-18 0 -36 -8.5t-32 -25.5t-22.5 -42t-8.5 -58q0 -26 8.5 -49t25.5 -40.5t43.5 -28t62.5 -10.5
q4 0 10 0.5t11 2.5q6 1 11 2t10 1z" />
    <glyph glyph-name="colon" unicode=":" horiz-adv-x="276" 
d="M95 77q-3 26 11 42.5t40 16.5q9 0 21.5 -2t23.5 -9q11 -6 18 -18.5t5 -33.5q-3 -30 -20 -53.5t-40 -23.5q-27 0 -41 23.5t-18 57.5zM95 427q-3 26 11 43t40 17q9 0 21.5 -2t23.5 -9q11 -6 18 -19t5 -34q-3 -30 -20 -53.5t-40 -23.5q-27 0 -41 23.5t-18 57.5z" />
    <glyph glyph-name="semicolon" unicode=";" horiz-adv-x="276" 
d="M95 77q-3 26 11 42.5t40 16.5q9 0 21.5 -2t23.5 -8q11 -7 19 -19t8 -33q0 -11 -3 -20q1 -13 -1 -27.5t-6 -29.5q-5 -16 -12 -32.5t-18.5 -31.5t-28.5 -28.5t-41 -23.5q-6 -3 -13.5 -0.5t-11.5 7.5q-12 12 3 27q13 12 21.5 21.5t14.5 19t9.5 19.5t5.5 23q-19 7 -29 28.5
t-13 50.5zM95 427q-3 26 11 43t40 17q9 0 21.5 -2t23.5 -9q11 -6 18 -19t5 -34q-3 -30 -20 -53.5t-40 -23.5q-27 0 -41 23.5t-18 57.5z" />
    <glyph glyph-name="less" unicode="&#x3c;" horiz-adv-x="554" 
d="M404 656q1 9 6 17.5t17 8.5q9 -1 19 -9t18.5 -21.5t14 -31.5t5.5 -39q0 -8 -8.5 -20.5t-22.5 -28t-32.5 -33t-38.5 -35.5q-20 -17 -38.5 -34t-37.5 -33q-39 -33 -48 -43l-12 -15l-4 -8t-2 -8q-1 -8 1.5 -16t10.5 -14q18 -19 45.5 -44.5t58.5 -51.5q31 -27 61.5 -52.5
t56.5 -44.5q22 -15 32.5 -31.5t4.5 -32.5q-5 -8 -13.5 -13t-19 -7.5t-21 -0.5t-18.5 10q-30 22 -60.5 46t-58.5 48q-28 23 -51.5 43.5t-39.5 35.5q-8 6 -17.5 15.5l-19.5 19.5t-19 20.5t-13 19.5q-7 10 -12 24.5t-4 31.5q1 12 9 27.5t17 27.5q14 16 45.5 46t66.5 63t66 64
t44 51q5 7 7.5 21.5t4.5 26.5z" />
    <glyph glyph-name="equal" unicode="=" horiz-adv-x="481" 
d="M101 396q-11 5 -27.5 17.5t-25.5 28.5q-9 13 -5 25t20 11q43 -2 98.5 0.5t109.5 7.5q15 0 30.5 3t30.5 6t28.5 5.5t25.5 2.5q13 0 27 -4.5t24.5 -12.5t17.5 -18t7 -22q0 -17 -14.5 -27t-29.5 -10q-12 0 -23 1t-21 3q-10 1 -20 2.5t-19 1.5q-45 0 -98.5 -7.5t-101.5 -16.5
q-5 -1 -9 -2t-8 -1t-8.5 1t-8.5 5zM101 181q-11 4 -27.5 16.5t-25.5 29.5q-9 12 -5 23.5t20 11.5q43 -2 98.5 0t109.5 8q15 1 30.5 3.5t30.5 5.5t28.5 5.5t25.5 2.5q13 0 27 -4.5t24.5 -12.5t17.5 -18t7 -21q0 -18 -14.5 -28t-29.5 -10q-12 0 -23 1t-21 3q-10 1 -20 2.5
t-19 1.5q-45 0 -98.5 -7t-101.5 -16q-5 -1 -9 -2t-8 -1t-8.5 1t-8.5 5z" />
    <glyph glyph-name="greater" unicode="&#x3e;" horiz-adv-x="554" 
d="M160 656q0 -12 2.5 -26.5t8.5 -21.5q13 -20 44 -51t66 -64t66.5 -63t45.5 -46q10 -12 17 -27.5t9 -27.5q0 -17 -4.5 -31.5t-10.5 -24.5q-6 -9 -14.5 -19.5t-18.5 -20.5t-20 -19.5t-17 -15.5q-17 -15 -40.5 -35.5t-51.5 -43.5q-27 -24 -57.5 -48t-60.5 -46
q-8 -8 -18.5 -10t-20.5 0.5t-19 7.5t-13 13q-8 16 3 32.5t33 31.5q25 19 56 44.5t62 52.5q31 26 58 51.5t46 44.5q8 6 10.5 14t2.5 16q-2 8 -8 16q-2 4 -5 7.5t-5 7.5q-6 6 -19 17.5t-30 27t-37 33.5t-40 37t-38 38t-32 36t-22.5 31.5t-8.5 24.5q0 18 5.5 33t14 25.5
t18.5 17t19 7.5q12 0 17.5 -8.5t6.5 -17.5z" />
    <glyph glyph-name="question" unicode="?" horiz-adv-x="487" 
d="M222 143q-9 0 -14 4t-7 9t-2.5 11t-0.5 9q0 14 -0.5 40.5t5.5 56.5q5 30 19.5 60t44.5 51t46.5 35.5t24.5 27.5q9 14 10.5 28t1.5 35q-1 28 -21 55q-19 28 -62 28q-19 0 -35.5 -5t-33.5 -18q-15 -12 -29.5 -26.5l-27.5 -27.5q-13 -12 -25 -21t-21 -8q-17 0 -29 12t-12 42
q0 11 2.5 31.5t8.5 40.5q7 20 18 35t28 15q9 0 13 -19q4 -17 4 -29q0 -17 1.5 -19.5t5.5 2.5q12 15 28 29t34.5 24.5t38 17t38.5 6.5q51 -1 84 -19t53 -44q19 -26 27 -54.5t8 -49.5q0 -38 -9.5 -65.5t-26.5 -48.5q-17 -22 -41 -40t-53 -35q-28 -18 -42 -35.5t-20 -36.5
q-6 -18 -6 -37.5v-39.5q0 -5 -4 -16t-22 -11zM168 68q0 9 2.5 19t9 18.5t16 14.5t22.5 6q10 0 22.5 -3t22.5 -10q11 -7 18 -19t7 -30q-2 -32 -20 -50t-42 -18t-40.5 18t-17.5 54z" />
    <glyph glyph-name="at" unicode="@" horiz-adv-x="842" 
d="M537 178q-2 -19 4 -32.5t16.5 -21t25 -8.5t29.5 5t29.5 19.5t26.5 36t19 54t7 73.5q0 51 -18.5 95.5t-52.5 78.5q-33 34 -81.5 54.5t-108.5 20.5q-69 0 -121 -22t-88 -56q-35 -35 -52.5 -77t-17.5 -82q0 -84 31 -141t75 -91q45 -35 92 -49.5t80 -14.5q62 0 96 7t58 19
q23 13 35.5 11.5t17.5 -8.5q4 -8 2.5 -19t-6.5 -17q-21 -27 -71 -48t-134 -20q-58 0 -124 20.5t-123 65.5q-56 45 -93 113t-37 163q0 60 26.5 119t77.5 105t121.5 74.5t161.5 28.5q69 0 133 -26t112 -71q49 -45 78.5 -107t29.5 -134q0 -54 -15.5 -94t-39.5 -69t-55 -46
t-63 -22q-32 -6 -62 -0.5t-52 22.5q-22 16 -34 43.5t-7 66.5h1q0 4 1 8q3 20 6 39t5 37q3 19 5.5 38.5t6.5 41.5q-7 4 -13 12t-14 16q-7 8 -16 15t-21 11q-15 5 -31 4t-32 -10t-30 -28.5t-24 -50.5q-26 -69 -9 -109.5t57 -55.5q18 -7 37.5 -8.5t39.5 10.5q7 4 15.5 0
t13.5 -11q4 -8 3.5 -17.5t-10.5 -16.5q-27 -18 -63.5 -24t-67.5 6q-42 15 -66 42.5t-35 62.5q-12 35 -10 73.5t15 75.5q30 82 94 115q64 34 133 12q17 -8 35.5 -23.5t30.5 -32.5l7 7q5 5 9 8q18 15 40 18.5t35 1.5q25 -6 25 -25q-4 -10 -19 -25q-7 -7 -14.5 -14t-13.5 -13
t-16 -40q-5 -17 -9 -33t-7 -33q-3 -15 -6 -28t-6 -25t-5 -22.5t-3 -20.5q0 -1 -0.5 -2t-0.5 -2q-1 -1 -1 -3z" />
    <glyph glyph-name="A" unicode="A" horiz-adv-x="629" 
d="M57 57q15 26 37 70.5t43 93.5q36 87 69.5 171t56.5 153q6 16 8.5 31t2.5 24q-2 12 -5.5 23.5t-6.5 20.5q-3 10 -4.5 18t0.5 15q2 12 16 12q4 0 8.5 -0.5t9.5 -1.5q21 -12 40.5 -35t27.5 -42q7 -20 8 -34q36 -54 65 -105t54 -102q25 -49 46 -97t42 -94q18 -42 28.5 -75.5
t10.5 -60.5q0 -24 -12.5 -36t-34.5 -12q-11 0 -20 6t-16.5 15t-13 20.5t-8.5 23.5q-12 45 -25.5 89t-27.5 89q-24 -4 -47.5 -9.5t-39.5 -11.5q-12 -4 -24.5 -8.5t-23.5 -8.5q-11 -3 -21.5 -5.5t-19.5 -2.5q-13 0 -28 4t-29 10l-15 -31q-9 -16 -21 -35.5t-24 -38.5
q-13 -19 -24.5 -34.5t-17.5 -22.5q-18 -19 -40.5 -34t-48.5 -15q-3 0 -5 7t1 13q3 4 6.5 8.5t7.5 9.5t7.5 11t7.5 14zM351 491q-26 -63 -50 -116.5t-50 -110.5q45 3 92.5 10.5t93.5 16.5q-37 102 -86 200z" />
    <glyph glyph-name="B" unicode="B" horiz-adv-x="635" 
d="M120 44v29.5t-1 41.5q-1 23 -2 45t-2 39q-2 11 -3 58q-1 25 -2 51t-2 54q-1 29 -2 55t-2 50q-1 25 -1 40v21q-1 15 -5.5 30.5t-8.5 23.5q-7 10 -15.5 18t-15.5 16q-7 7 -11.5 14t-4.5 15t7.5 14t19.5 6q22 0 49.5 -10.5t45.5 -29.5q7 -9 14 -17.5t13 -17.5q2 9 7 18.5
t14 15.5q18 10 52.5 20t76.5 10q47 0 85.5 -12t66 -34.5t42.5 -54t15 -70.5q0 -34 -22 -65t-59 -52q51 -24 86.5 -68.5t35.5 -110.5q0 -43 -18.5 -79t-48.5 -61q-30 -26 -69 -40t-81 -14q-60 0 -107.5 17t-84.5 46q-4 -11 -9.5 -22t-13.5 -24q-16 -25 -37 -25q-6 0 -7 6.5
t0 11.5q2 7 3 18t2 23zM204 557q0 -6 0.5 -12t0.5 -12q-2 -20 -3 -69q-1 -25 -1 -51.5v-54.5q-1 -28 -1 -54v-51v-65q-1 -18 -2.5 -40t-4.5 -42q65 -41 151 -41q59 0 105 32q46 33 46 98q0 19 -7 40.5t-24 40.5q-16 18 -43 30t-67 12q-6 0 -13 -0.5t-14 -0.5h-29q-9 0 -22 7
t-13 32q0 8 8 19t20 14q4 0 14 0.5t23 0.5q69 9 97 40q29 32 29 58q0 18 -6 34.5t-20 28.5q-15 12 -40.5 19.5t-65.5 7.5q-11 0 -25 -4.5t-28 -9.5q-15 -6 -27.5 -10t-19.5 -4q-12 0 -18 7z" />
    <glyph glyph-name="C" unicode="C" horiz-adv-x="647" 
d="M160 329q0 -54 14.5 -101t41.5 -82q26 -35 62 -55.5t81 -20.5q63 0 112.5 24.5t83.5 64.5q5 6 13.5 5t15.5 -7q6 -6 7 -16t-8 -22q-17 -23 -41 -45.5t-54 -39.5q-30 -18 -65 -29t-74 -11q-72 0 -127 29.5t-93 77.5q-37 48 -56 107.5t-19 120.5q0 78 23 139.5t61 106.5
q39 45 89 67.5t104 22.5q64 -2 108 -28q23 -13 40 -25.5t29 -23.5q3 -4 6 -1.5t3 17.5q0 6 1 14.5t3 16t6 13t10 5.5q17 0 28.5 -15.5t17.5 -35.5q7 -20 9.5 -40t2.5 -30q0 -30 -13 -43.5t-29 -13.5q-11 0 -25 9t-31 22l-34 25.5t-34 21.5q-23 11 -47.5 16t-48.5 5
q-27 0 -57.5 -14.5t-56.5 -44.5t-42.5 -76t-16.5 -110z" />
    <glyph glyph-name="D" unicode="D" horiz-adv-x="680" 
d="M123 43q0 10 -1 29.5t-2 41.5q-1 23 -2.5 45.5t-1.5 40.5q-2 31 -4 74.5t-3 88.5q-2 45 -3.5 88.5t-1.5 75.5q0 16 -5 31.5t-9 23.5q-7 10 -15 18t-15 16q-6 7 -10.5 14t-4.5 15t7 14t19 6q22 0 49.5 -10.5t45.5 -29.5q10 -12 19 -23.5t15 -24.5q0 14 16.5 29.5
t40.5 28.5q25 13 54 21.5t55 8.5q58 -1 107 -22.5t85 -61.5t56 -96.5t20 -128.5q0 -66 -20.5 -130.5t-58.5 -115.5q-38 -52 -91.5 -84.5t-122.5 -32.5q-43 0 -84.5 18.5t-71.5 47.5q-3 -10 -9 -22.5t-14 -24.5q-7 -11 -17 -19t-20 -8q-7 0 -8 6.5t0 11.5q5 17 6 40zM206 553
q0 -5 0.5 -10t0.5 -10q-1 -30 -2 -74t-2 -92t-1.5 -95.5t-0.5 -84.5q0 -15 -1 -32.5t-3 -35.5q29 -29 63.5 -39.5t68.5 -10.5q38 0 74 21t64 59t45 91t18 117q0 58 -13.5 100.5t-35.5 69.5q-23 27 -51.5 40t-57.5 13q-24 0 -43.5 -8.5t-35.5 -17.5q-16 -10 -29 -18t-23 -7
q-24 0 -35 24z" />
    <glyph glyph-name="E" unicode="E" horiz-adv-x="623" 
d="M126 552q-21 9 -42 23t-34 26t-8.5 26t21.5 14q33 -2 70 -2.5t74 0t72.5 1.5t65.5 4q21 2 43 5.5t42 7.5q20 3 39 5.5t35 2.5q30 0 50.5 -17.5t20.5 -38.5q0 -23 -17 -31.5t-33 -8.5q-9 0 -19 1t-20 3q-25 5 -41 5q-45 0 -104 -6t-110 -12q-7 -48 -11 -95t-7 -92
q11 0 22.5 0.5t23.5 1.5q12 0 24 1t25 2q16 1 37 4t44 7q23 3 45 5.5t40 2.5q15 0 30 -4.5t26.5 -12t19 -18t7.5 -22.5q0 -17 -16.5 -27.5t-31.5 -10.5q-29 0 -49 4q-11 2 -22 3.5t-22 1.5q-45 0 -100 -5.5t-106 -14.5q-2 -45 -2.5 -87.5t0.5 -78.5q0 -27 10 -36t42 -9
q51 0 87 4t65 9q29 4 54.5 8.5t55.5 4.5q31 0 51 -17.5t20 -35.5q0 -23 -23.5 -36.5t-65.5 -13.5q-31 0 -67 -1.5t-73 -3.5q-36 -2 -71.5 -3t-64.5 -1q-57 0 -83 32.5t-26 86.5q0 38 1 86t4 100q-28 16 -45 35q-15 12 -9.5 26t23.5 14q5 -1 17 -1q5 -1 18 -1q3 45 7 90
t10 88h-10.5t-8.5 2z" />
    <glyph glyph-name="F" unicode="F" horiz-adv-x="588" 
d="M126 556q-21 9 -41 20.5t-35 24.5q-8 6 -10 13t0.5 13t8 10t13.5 4q69 -3 144 -1.5t139 4.5q16 1 36 4t40 7q21 4 39.5 7t33.5 3q39 0 60 -17.5t21 -38.5q0 -23 -17 -31.5t-33 -8.5q-20 0 -40 4q-22 5 -41 5q-15 0 -40.5 -1.5t-55.5 -3.5q-29 -2 -60 -4.5t-57 -5.5
q-6 -51 -10 -102t-7 -99q44 0 92 6q16 1 38 4t44 7q23 3 45.5 5.5t40.5 2.5q16 0 31 -4.5t26.5 -12t18.5 -17.5t7 -22q0 -21 -17 -30.5t-32 -9.5q-11 0 -21 1.5t-21 3.5q-10 1 -20.5 3t-20.5 2q-20 0 -50.5 -2t-61.5 -5q-32 -3 -60.5 -6.5t-43.5 -5.5q-3 -36 -3.5 -66.5
t-0.5 -52.5q0 -14 2 -27.5t4 -25.5t4.5 -23.5t2.5 -21.5q0 -33 -14 -52t-35 -19q-24 0 -36 15t-13 33q-1 7 -1.5 15.5t-0.5 17.5t0.5 19t0.5 21q0 38 1.5 83.5t4.5 94.5q-12 6 -25 14t-22 17q-15 11 -9 25.5t24 14.5q8 -1 17.5 -1.5t18.5 -0.5q1 24 3 48l4 48t4 47.5t5 46.5
q-5 0 -10 0.5t-9 3.5z" />
    <glyph glyph-name="G" unicode="G" horiz-adv-x="686" 
d="M399 247q-15 6 -31.5 18.5t-25.5 24.5q-12 15 -8 25.5t18 10.5q30 0 69.5 1.5t73.5 7.5q9 1 23 4.5t29 6.5t30 5.5t26 2.5q31 -1 53 -19t22 -37q0 -16 -12.5 -27t-27.5 -11q-25 0 -41 4q-20 5 -33 5h-8q11 -9 18.5 -20t7.5 -23v-110q-1 -24 -5 -48.5t-9 -38.5
q-5 -13 -14 -29t-22 -25q-9 -8 -19 -3.5t-10 11.5q0 15 -1 31.5t-1 33.5q-28 -24 -65.5 -39.5t-85.5 -15.5q-72 0 -127.5 29.5t-92.5 77.5q-38 48 -57 107.5t-19 119.5q0 78 23 140t62 107t89.5 68t104.5 23q64 -2 107 -28q46 -28 69 -49q3 -5 6 -2.5t3 18.5q0 6 1 14
t3 15.5t6 13t10 5.5q17 0 28 -15t18 -35q6 -21 9 -41t3 -30q0 -30 -12.5 -43t-29.5 -13q-13 -1 -29 8.5t-33 22.5t-33.5 26t-29.5 21q-21 12 -46 16.5t-48 4.5q-28 0 -59 -14.5t-56 -44.5q-26 -30 -42.5 -76.5t-16.5 -110.5q0 -54 14.5 -101t41.5 -82q26 -35 62.5 -55.5
t81.5 -20.5q40 0 75 13.5t60 35.5q-3 27 -6.5 52.5t-6.5 46.5q-2 9 -5 17t-7 16q-12 -4 -26 -6q-12 -3 -24.5 -2.5t-21.5 5.5z" />
    <glyph glyph-name="H" unicode="H" horiz-adv-x="657" 
d="M111 63q0 8 -0.5 27t-0.5 42t-0.5 48.5t-1.5 46.5q-2 12 -3 36.5t-1 55.5q-10 5 -19.5 11.5t-16.5 12.5t-9 13t0 13.5t8 10.5t15 3q2 0 4.5 -0.5t4.5 -0.5h11q-1 20 -1.5 40.5t-1.5 39.5q0 18 -0.5 35t-0.5 31q-1 16 -4.5 33.5t-9.5 26.5q-4 5 -8.5 11t-8.5 13
q-10 11 -10 25q0 6 7 12.5t19 6.5t34.5 -7.5t40.5 -22.5q18 -18 30 -42.5t12 -55.5q-1 -26 -2 -65t-1 -81q25 0 51 1.5t49 3.5q16 0 37.5 3.5t43.5 6.5q23 4 45 7t40 3h10q-1 16 -1.5 33t-0.5 34q-1 16 -1.5 32.5t-0.5 31.5q-1 15 -5.5 30.5t-7.5 22.5q-8 10 -16 18.5
t-15 16.5q-7 7 -11.5 14.5t-4.5 15.5q0 7 6.5 13t17.5 6q21 0 49 -10.5t43 -29.5q18 -19 29.5 -41.5t11.5 -49.5v-502q0 -20 -11.5 -34t-32.5 -14t-34 13t-13 31v176q0 19 -0.5 44t-0.5 54q-8 1 -15.5 2.5t-14.5 2.5q-7 2 -14.5 3t-14.5 1q-21 0 -52.5 -2.5t-63.5 -5.5
q-33 -4 -61.5 -7.5t-42.5 -6.5q0 -13 -0.5 -25t-0.5 -22v-36q-1 -21 -2.5 -44t-4.5 -44q-2 -21 -4.5 -37.5t-4.5 -23.5q-7 -22 -21 -39.5t-29 -28.5q-10 -9 -17 -0.5t-5 14.5q3 10 4 24t1 26z" />
    <glyph glyph-name="I" unicode="I" horiz-adv-x="434" 
d="M182 77v159q0 24 -0.5 63t-1.5 85t-2 96t-2 98q-2 -1 -4 -1.5t-5 -0.5q-6 -2 -8 -2q-7 -3 -15.5 -2.5t-13.5 2.5q-11 3 -26.5 18t-21.5 29q-7 12 -3 22.5t12 10.5q40 0 85.5 3.5t78.5 9.5q16 1 33 6q18 5 30 5q13 0 36 -15q22 -15 22 -37q0 -18 -10.5 -30.5t-22.5 -12.5
q-5 0 -11 0.5t-12 1.5l-12 2t-11 1h-24q-1 -45 -1 -95v-99t0.5 -92.5t0.5 -76.5v-140q7 1 14.5 3.5t14.5 3.5q15 5 26 5q6 0 16.5 -4t20.5 -10q10 -7 17.5 -16t7.5 -20q0 -18 -13.5 -31t-23.5 -13q-5 0 -11.5 0.5t-12.5 2.5q-7 1 -13 2t-11 1q-16 0 -36 -0.5t-41 -2.5
t-41.5 -5t-36.5 -7q-16 -5 -29 0q-5 1 -12 7t-14.5 12.5t-14 13.5t-9.5 12q-9 11 -4.5 23t13.5 12q21 0 48 0.5t54 2.5z" />
    <glyph glyph-name="J" unicode="J" horiz-adv-x="434" 
d="M264 189v60v37.5t1 32.5q0 16 -0.5 38t-1.5 49q0 27 -1.5 60t-2.5 72q-1 15 -5.5 30.5t-8.5 22.5q-8 10 -16 18.5t-15 16.5q-7 7 -11.5 14.5t-4.5 15.5q0 7 7 13t17 6q21 0 48.5 -10.5t45.5 -29.5t30 -42t12 -50v-234q-1 -9 -1 -24.5v-33.5t0.5 -37.5t0.5 -34.5
q-1 -87 -45 -136t-113 -49q-63 0 -110.5 29t-69.5 68q-7 12 -6 23t7 17t15 6t18 -9q24 -27 53.5 -41t57.5 -14q22 0 40.5 4t31.5 16t20 35t7 61z" />
    <glyph glyph-name="K" unicode="K" horiz-adv-x="637" 
d="M125 44q0 10 -0.5 29t-1.5 41q-2 22 -3.5 45t-1.5 41q-2 31 -3.5 74.5t-2.5 88.5q-2 45 -3 88.5t-1 75.5q-2 15 -7 31t-8 24q-7 10 -15 18t-15 16q-7 7 -11.5 14t-4.5 15t7.5 14t19.5 6q21 0 48.5 -10.5t45.5 -29.5q17 -20 29 -40t12 -52q-1 -19 -1.5 -43.5t-0.5 -52.5
q-1 -28 -1.5 -58t-0.5 -60q26 13 55 32.5t53 38.5q17 15 37.5 36t39.5 44q19 22 35.5 43.5t25.5 36.5q8 19 8 36q0 11 -9.5 21.5t-23.5 23.5q-11 11 -5.5 22.5t15.5 11.5q16 0 38 -8t42 -22q20 -13 34.5 -31t14.5 -37q0 -15 -5 -28t-14 -26q-28 -42 -72 -84t-87 -73
q21 -19 45 -43t47 -49t43 -48.5t33 -41.5q24 -39 40 -71.5t16 -61.5q0 -21 -14.5 -34.5t-35.5 -13.5q-19 0 -35.5 19t-22.5 41q-14 37 -33.5 75.5t-40.5 75.5q-21 36 -43 68t-40 56q-33 -21 -71.5 -36.5t-70.5 -27.5v-77q0 -14 -1.5 -31.5t-3.5 -34.5t-4.5 -32t-5.5 -24
q-2 -9 -7.5 -22.5t-13.5 -26.5q-9 -13 -19 -22t-22 -9q-7 0 -8 6.5t0 11.5q4 16 6 41z" />
    <glyph glyph-name="L" unicode="L" horiz-adv-x="573" 
d="M205 254v-127q0 -28 11 -38t43 -10q51 0 84 4t58 9q26 5 48.5 9.5t54.5 4.5t49 -18.5t17 -37.5q0 -21 -22 -34t-64 -13q-31 0 -64 -1.5t-67 -3.5q-33 -2 -66 -3t-62 -1q-57 0 -83 31.5t-26 88.5q0 25 -1 46.5t-1 39.5q-2 33 -3.5 77t-2.5 89q-2 45 -3.5 87t-1.5 74
q-1 15 -6 31.5t-8 23.5q-7 10 -15.5 18.5l-15.5 15.5q-7 8 -11.5 15t-4.5 15q0 9 9 13.5t19 4.5q21 0 48.5 -10t45.5 -29q17 -19 29 -40t12 -52q-1 -23 -1 -56.5v-72.5q0 -38 0.5 -77.5t0.5 -72.5z" />
    <glyph glyph-name="M" unicode="M" horiz-adv-x="799" 
d="M111 63q0 8 -0.5 27t-0.5 42q-1 23 -2 48.5t-2 46.5q-1 17 -2 54.5t-2 82.5q-2 45 -3 89.5t-1 74.5q-1 16 -5 33.5t-10 26.5q-4 5 -8.5 11t-8.5 13q-9 14 -9 25q0 6 7 12.5t19 6.5t34 -7.5t40 -22.5q9 -8 15.5 -17.5t12.5 -19.5q3 -3 4 -3q38 -57 69 -104.5t57 -93.5
q26 -45 48 -89.5t43 -92.5q7 -18 13.5 -36t12.5 -33q5 11 11 23.5t12 25.5q6 12 11.5 24t9.5 23q17 42 35 83.5t35 81.5q16 39 30.5 76.5t25.5 70.5q6 15 8 30.5t2 23.5q-6 9 -12 16t-11 14q-10 13 -10 26q0 6 5 13t18 7q17 0 43.5 -10.5t44.5 -29.5t29.5 -44t11.5 -48v-501
q0 -20 -12 -34t-32 -14q-22 0 -35 13t-13 31v176q0 16 -0.5 36t-0.5 43q0 22 -0.5 46.5t-0.5 50.5q-23 -51 -48.5 -104.5t-49.5 -99.5q-18 -35 -38.5 -66.5t-36.5 -55.5q-13 -18 -26.5 -29.5t-27.5 -11.5h-7q-23 0 -38.5 20.5t-21.5 42.5q-30 111 -65 206t-80 186
q-1 -32 -2 -70t-1 -74q-1 -36 -1 -67.5v-50.5q-1 -21 -2.5 -44t-4.5 -44q-2 -21 -5 -37.5t-5 -23.5q-6 -22 -20 -39.5t-29 -29.5q-11 -7 -18 1t-5 14q3 10 4.5 24t1.5 26z" />
    <glyph glyph-name="N" unicode="N" horiz-adv-x="664" 
d="M108 63q0 8 -0.5 27t-1.5 42t-1.5 48.5t-1.5 46.5q-1 17 -2.5 54.5t-2.5 82.5t-2.5 89.5t-1.5 74.5q-1 16 -4.5 33.5t-9.5 26.5q-4 5 -8.5 11t-8.5 13q-10 11 -10 25q0 6 7 12.5t19 6.5t34.5 -7.5t40.5 -22.5q8 -9 15 -18.5t13 -19.5q42 -42 84 -88.5t84 -95.5
q42 -51 80.5 -99.5t73.5 -96.5v6q0 28 -0.5 67t-1.5 84t-2.5 89.5t-2.5 83.5q-1 15 -6 30.5t-9 22.5q-14 21 -27 35q-5 8 -8.5 14.5t-3.5 14.5q0 6 5 13t17 7q18 0 44.5 -10.5t44.5 -29.5t29.5 -44t11.5 -48v-501q0 -20 -12.5 -34t-31.5 -14q-24 0 -35.5 13t-11.5 31v26
q-2 2 -4 4.5t-4 5.5q-2 2 -4 5l-4 6q-31 49 -66.5 103t-74.5 111q-38 55 -77 108t-75 98q-1 -32 -2 -72.5t-2 -82.5t-1.5 -77.5t-0.5 -56.5q-1 -21 -2.5 -44t-3.5 -44t-4.5 -37.5t-4.5 -23.5q-7 -22 -21 -39.5t-29 -28.5q-10 -9 -17 -0.5t-5 14.5q3 10 4.5 24t1.5 26z" />
    <glyph glyph-name="O" unicode="O" horiz-adv-x="659" 
d="M66 337q0 60 18.5 118.5t55.5 104.5q37 48 90.5 76t122.5 28q52 0 98 -26t80 -71t54 -106t20 -133t-18.5 -133t-52.5 -106q-33 -45 -80.5 -70t-104.5 -25q-51 0 -101.5 17.5t-90.5 59.5q-42 42 -66.5 106t-24.5 160zM166 345q0 -73 14.5 -124t39.5 -83t57 -46t68 -14
q28 0 56 16t50 48t35.5 80t13.5 112q0 51 -12 96t-33 79t-49.5 54.5t-60.5 20.5q-45 0 -78 -22t-55 -57q-23 -34 -34.5 -76t-11.5 -84z" />
    <glyph glyph-name="P" unicode="P" horiz-adv-x="649" 
d="M123 44q0 10 -0.5 29t-1.5 41q-2 22 -3.5 45t-1.5 41q-2 31 -3.5 74.5t-2.5 88.5q-2 45 -3 88.5t-2 75.5q-1 15 -6 31t-9 24q-7 10 -15 18t-15 16q-6 7 -10.5 14t-4.5 15t7 14t19 6q22 0 49.5 -10.5t45.5 -29.5q7 -8 13 -16t12 -17q4 14 23.5 27.5t46.5 23.5q26 10 56 16
t56 6q61 -1 105 -19.5t72 -49.5t41.5 -70t13.5 -81q0 -36 -15 -72t-45 -64q-29 -29 -73 -46.5t-104 -17.5q-42 0 -86 10t-80 27q-1 -27 -1 -51v-44q0 -14 -1 -31.5t-3 -34.5t-4.5 -32t-5.5 -24t-8.5 -22.5t-13.5 -26.5t-18 -22t-22 -9q-7 0 -8 6.5t0 11.5q4 16 6 41z
M206 550q0 -5 0.5 -9t0.5 -8q-1 -18 -1.5 -40t-0.5 -48q-1 -25 -1.5 -52.5t-0.5 -55.5q34 -10 76 -13.5t78 -3.5q31 0 58 10.5t46 28.5q20 18 31 41t11 47q0 61 -33.5 97t-105.5 36q-23 0 -42.5 -7t-36.5 -14q-16 -8 -30 -14.5t-25 -6.5q-14 0 -24 12z" />
    <glyph glyph-name="Q" unicode="Q" horiz-adv-x="668" 
d="M65 337q0 60 18.5 118.5t55.5 104.5t90.5 75t123.5 29q52 0 98 -26t80 -72q33 -45 53 -106.5t20 -133.5q0 -63 -19.5 -122.5t-54.5 -105.5q6 -6 13 -8q13 -8 30.5 -15.5t33.5 -15.5q15 -8 25.5 -16.5t10.5 -16.5q-1 -18 -11.5 -29.5t-25.5 -11.5q-31 0 -58.5 11t-46.5 26
q-6 1 -14 8q-3 2 -6.5 4t-6.5 5q-28 -21 -59.5 -33.5t-65.5 -12.5q-51 0 -102 17.5t-91 59.5q-42 42 -66.5 106.5t-24.5 160.5zM165 344q0 -146 49 -207t131 -61q27 0 56 18q-32 27 -61.5 58t-51.5 67q-6 8 -4 15t8 12q6 4 14.5 4t14.5 -6q25 -29 59 -54t70 -46
q21 32 35.5 79.5t14.5 110.5q0 51 -11.5 95.5t-31.5 78.5t-49 54t-63 20q-48 0 -81.5 -22t-55.5 -56t-32.5 -76t-10.5 -84z" />
    <glyph glyph-name="R" unicode="R" horiz-adv-x="655" 
d="M124 44q0 10 -0.5 29t-1.5 41q-2 22 -3.5 45t-1.5 41q-2 31 -3 74.5t-3 88.5q-1 45 -2.5 88.5t-2.5 75.5q-1 16 -5.5 31.5t-8.5 23.5q-7 10 -15 18t-15 16q-7 7 -11.5 14t-4.5 15t7.5 14t19.5 6q22 0 49.5 -10.5t45.5 -29.5q6 -9 13 -17t13 -16q3 14 22 27.5t45 23.5
t56.5 16t56.5 6q54 -1 95 -18.5t69 -46.5q29 -30 44 -67.5t15 -77.5q0 -30 -10 -57.5t-29.5 -51t-47.5 -41t-64 -26.5q32 -27 62.5 -59t53.5 -61q24 -34 41.5 -64.5t17.5 -53.5q0 -22 -15 -35t-36 -13q-17 0 -33 19.5t-25 40.5q-11 22 -27 51.5t-34 59.5q-19 30 -38.5 58
t-36.5 48h-6q-33 0 -80 9t-86 25q-1 -33 -1 -63v-54q0 -14 -1 -30t-3 -36q-2 -19 -4.5 -33t-5.5 -23t-8.5 -22.5t-13.5 -26.5t-18.5 -22t-22.5 -9q-7 0 -8 6.5t0 11.5q4 16 6 41zM208 550q0 -5 0.5 -9t0.5 -8q-1 -16 -1.5 -36.5t-0.5 -43.5q-1 -23 -1.5 -48t-0.5 -50
q35 -11 76.5 -14.5t76.5 -3.5q26 0 50.5 10t43.5 27t31 38.5t12 44.5q0 57 -34 90t-97 33q-23 0 -42.5 -7t-35.5 -14q-17 -8 -30.5 -14.5t-23.5 -6.5q-14 0 -24 12z" />
    <glyph glyph-name="S" unicode="S" horiz-adv-x="541" 
d="M175 500q-1 -39 31 -67t105 -56q36 -14 69 -32.5t59 -42.5t41.5 -55t15.5 -71q0 -38 -17.5 -70.5t-46.5 -56.5t-68.5 -37.5t-84.5 -13.5q-40 0 -75 11t-64 29q-30 18 -53.5 41t-39.5 46q-12 15 -12.5 24.5t5.5 12.5q14 9 38 -10q36 -35 84 -59.5t102 -24.5q28 0 51.5 8.5
t40 23t25.5 32.5t9 38q0 50 -28.5 81t-96.5 58q-32 12 -66 29t-61 40q-28 23 -45.5 52.5t-17.5 67.5q0 21 8 49.5t28 54.5q21 26 55.5 44t88.5 19q20 0 40.5 -6.5t40 -17t37 -24.5t29.5 -29q5 -4 7 -1.5t2 17.5q0 6 0.5 14.5t2.5 16t5.5 13t9.5 5.5q17 0 28 -15t18 -35
q6 -21 9 -41t3 -30q0 -30 -12.5 -43t-29.5 -13q-11 -1 -23 8t-26 22q-13 13 -28 27t-30 25q-21 15 -37.5 20.5t-37.5 5.5q-45 0 -67 -28q-21 -29 -21 -56z" />
    <glyph glyph-name="T" unicode="T" horiz-adv-x="590" 
d="M97 561q-20 8 -39 20.5t-33 27.5q-12 11 -7 23.5t23 12.5q27 -2 60.5 -2t69.5 1q35 0 69.5 1.5t62.5 3.5q16 1 42.5 5t54.5 7q28 4 54.5 6.5t44.5 2.5q13 0 27 -5t25.5 -12.5t18.5 -17.5t7 -20q0 -22 -17 -32t-34 -10q-11 0 -20.5 1.5t-18.5 3.5q-9 1 -18 3t-18 2
q-26 0 -52.5 -1t-53.5 -2q12 -26 12 -59q-1 -30 -2 -72t-2 -87t-1.5 -84t-0.5 -62q-1 -21 -2.5 -44t-3.5 -44t-4.5 -37.5t-4.5 -23.5q-7 -22 -20.5 -39.5t-28.5 -28.5q-11 -9 -18 -0.5t-5 14.5q2 10 3.5 24t1.5 26q0 8 -0.5 27t-1.5 42q0 23 -1 48.5t-1 46.5q-1 17 -2 54
t-2 80q-2 45 -3 87.5t-1 72.5q-1 15 -3.5 27.5t-7.5 23.5q-27 -3 -53.5 -6t-50.5 -6q-6 -1 -11.5 -2t-11.5 -1t-11.5 0.5t-10.5 3.5z" />
    <glyph glyph-name="U" unicode="U" horiz-adv-x="631" 
d="M319 -10q-103 0 -162.5 68t-59.5 196q0 16 -1.5 50t-2.5 73q-2 40 -3.5 80.5t-1.5 70.5q-1 16 -4.5 33.5t-9.5 26.5q-4 5 -8.5 11t-8.5 13q-10 11 -10 25q0 6 7 12.5t19 6.5t34 -7.5t40 -22.5q42 -36 42 -98q-1 -28 -1.5 -66.5t-0.5 -80.5q-1 -40 -1 -77v-60
q-1 -87 37 -129q39 -41 94 -41q67 0 108 48.5t41 151.5q0 30 -1 65.5t-2 70.5t-2 68.5t-1 59.5l-2.5 27.5t-2.5 28.5q-2 9 -3 16.5t-2 14.5q0 7 -0.5 13.5t-0.5 13.5q0 6 6.5 14.5t18.5 8.5q14 0 30 -12t28 -29q9 -15 17.5 -42t8.5 -49v-284q0 -123 -66 -195
q-63 -74 -173 -74z" />
    <glyph glyph-name="V" unicode="V" horiz-adv-x="641" 
d="M321 78q-5 9 -13 26t-19 38q-10 20 -20.5 42t-19.5 41q-9 15 -27.5 56.5t-40.5 90.5t-43 95.5t-34 73.5q-19 34 -36 49q-4 3 -12 8t-17 11q-8 5 -14.5 11.5t-6.5 13.5q0 14 11.5 23t26.5 9q40 0 76 -18.5t58 -57.5q12 -25 32 -73t41 -100q20 -52 38.5 -98.5t27.5 -67.5
q9 -23 19 -47.5t18 -46.5q3 7 5.5 15.5t5.5 16.5l6 16l6 16q30 85 59.5 170t51.5 160q2 10 4 24t2 22q0 7 -6.5 17t-13.5 19q-8 10 -14 19t-6 15q0 9 7 15.5t15 6.5q18 0 44.5 -11.5t45.5 -29.5q15 -15 23.5 -42.5t1.5 -56.5q-15 -42 -32 -89t-35 -95t-36.5 -95.5
t-35.5 -90.5q-15 -39 -32.5 -79t-32.5 -71q-11 -21 -23 -28.5t-23 -7.5q-6 0 -13.5 5t-12 14t-5.5 21t5 26q2 2 -1 7.5t-5 11.5z" />
    <glyph glyph-name="W" unicode="W" horiz-adv-x="797" 
d="M265 78q-5 13 -11 29.5t-13.5 34.5t-14.5 36t-13 33q-7 15 -22 57.5t-32 93.5q-17 50 -34 98.5t-27 77.5q-8 15 -16.5 29t-14.5 23q-4 4 -12 9.5t-16 11.5t-14.5 13t-5.5 14q3 14 14.5 21.5t27.5 6.5q38 -4 72.5 -24.5t52.5 -62.5q11 -26 26.5 -75.5t32.5 -103.5
q8 -27 15.5 -52.5t14.5 -48t12.5 -40t10.5 -27.5q1 -5 2.5 -10t2.5 -9q23 85 44 170.5t35 160.5q-6 9 -7 16q-2 4 -4 7.5t-4 6.5q-5 5 -11.5 10t-12.5 10q-14 12 -14 23q0 12 13.5 19.5t28.5 7.5q22 0 55 -15t45 -50q12 -31 28 -81.5t32 -102.5q7 -26 14.5 -51t14.5 -46.5
t12.5 -38.5t9.5 -27q1 -11 6 -18q22 87 43.5 174.5t35.5 162.5q2 10 2.5 23.5t0.5 22.5q-1 7 -8 16t-15 18q-9 9 -15.5 17t-6.5 15q-1 9 5.5 16.5t15.5 8.5q18 0 44.5 -9t46.5 -26q16 -14 28 -40.5t5 -55.5q-11 -45 -23.5 -92.5t-26.5 -96.5t-28 -97t-26 -93
q-12 -40 -24 -77.5t-27 -68.5q-8 -22 -19 -30t-23 -8q-6 0 -13.5 4t-13 11.5t-8 18t2.5 23.5l9 28q-5 13 -11.5 29.5t-13.5 33.5q-7 18 -14 35.5t-12 33.5q-5 9 -11.5 26.5t-14.5 40.5q-8 22 -17 49l-18 54l-14 -50l-14 -50t-14 -51l-14 -52q-12 -40 -24 -77.5t-26 -68.5
q-9 -22 -20 -30t-22 -8q-6 0 -14 4t-13.5 11.5t-8 18t2.5 23.5q1 3 2 6.5t2 6.5q0 7 4 14z" />
    <glyph glyph-name="X" unicode="X" horiz-adv-x="662" 
d="M541 14q-6 7 -19.5 26t-30.5 42t-34 46.5t-30 40.5q-6 8 -14 18t-16 21q-9 12 -19 25t-20 28q-24 -28 -49.5 -56.5t-50.5 -56.5q-15 -16 -30 -32.5t-30 -32.5t-29 -30t-26 -24q-18 -17 -45 -17q-17 0 -24 24q-6 24 15 45q12 12 26.5 28.5t30 34.5t31 35.5t29.5 32.5
q10 13 21.5 27t24.5 30q13 15 26 31t27 33q-42 54 -82.5 109t-70.5 94q-12 14 -23 24.5t-23 17.5q-7 3 -17 7.5t-19 10.5q-9 5 -15 11.5t-6 15.5q0 10 9.5 20.5t32.5 10.5q35 0 70 -10.5t63 -45.5q30 -39 66 -89q18 -25 36.5 -51t38.5 -52q18 22 35 44t33 43q16 20 29 37.5
t24 32.5q6 10 13 22t10 23q1 6 -1 15.5t-5 19.5q-3 9 -5.5 18t-2.5 14q0 9 5.5 16.5t16.5 7.5q8 0 19 -7t22 -17q23 -23 34 -47q9 -20 8 -49t-19 -51q-16 -21 -34.5 -44.5t-39.5 -48.5t-43.5 -51.5t-45.5 -53.5q13 -19 25 -36t23 -32q11 -16 20.5 -29t17.5 -23
q13 -20 27.5 -43t26.5 -45q13 -22 22 -40l13 -26q6 -21 5.5 -44t-6.5 -40q-5 -14 -16 -11t-12 11q-3 8 -10 20.5t-13 21.5z" />
    <glyph glyph-name="Y" unicode="Y" horiz-adv-x="604" 
d="M289 324q-21 26 -43 55.5t-44 57.5q-21 29 -41 54.5t-35 45.5q-12 14 -22.5 24.5t-22.5 17.5q-8 3 -17.5 7.5t-18.5 10.5q-9 5 -15 11.5t-6 15.5q0 10 10 20.5t32 10.5q35 0 70 -10.5t64 -45.5q30 -40 67.5 -92.5t70.5 -100.5q36 45 68.5 86.5t55.5 72.5q2 4 5 9.5
t6 11.5q5 11 10 23q2 6 0 15.5t-5 19.5l-6 18t-3 14q0 9 6 16t19 7q7 0 17.5 -6.5t21.5 -16.5q10 -11 19 -23t14 -24q9 -20 8.5 -49t-18.5 -51q-16 -21 -36.5 -46t-43 -52.5t-47 -55.5t-48.5 -55v-161q0 -22 1 -37t2 -25q1 -11 2.5 -18.5t1.5 -13.5q0 -36 -14.5 -53
t-36.5 -17q-24 0 -35.5 13t-11.5 31v175q0 10 -0.5 23.5t-0.5 28.5v58z" />
    <glyph glyph-name="Z" unicode="Z" horiz-adv-x="666" 
d="M452 575q0 4 -15 4q-33 -1 -70 -7.5t-74 -13.5q-37 -8 -70.5 -14t-58.5 -6q-10 0 -23 4.5t-26 11.5t-24 15.5t-17 15.5q-13 12 -7 27.5t24 15.5q38 0 80 1t84 3q42 3 80.5 6.5t71.5 9.5q3 1 10.5 4.5t16.5 7.5q10 3 19 6.5t15 3.5q15 0 32.5 -8.5t32.5 -22.5
q15 -15 25.5 -35t10.5 -44q0 -6 -7 -20t-19 -32.5t-28.5 -41.5t-34.5 -47t-38 -49.5t-39.5 -49.5t-37 -45.5t-32.5 -37.5q-33 -36 -72 -76t-79 -76q48 0 98 1.5t80 4.5q28 2 51 6t42 8q20 3 37.5 6t35.5 3q15 0 30 -5t27 -13t19.5 -18.5t7.5 -21.5q0 -21 -14.5 -34.5
t-38.5 -13.5q-11 0 -22 1.5t-22 3.5q-12 2 -25 4t-27 2q-35 0 -72.5 -2t-75.5 -5t-74 -7t-68 -8q-9 -2 -22.5 -3t-22.5 4q-14 5 -33 21t-31 31q-11 14 -3.5 26.5t25.5 10.5q2 0 5 -0.5t6 -0.5h14q39 45 86.5 104.5t92.5 119.5q26 36 50.5 72t47.5 72q46 75 66 121z" />
    <glyph glyph-name="bracketleft" unicode="[" horiz-adv-x="420" 
d="M117 605q-12 9 -22.5 21t-17.5 23q-7 12 -3.5 25.5t16.5 13.5q39 -3 85 -3t82 6q13 2 26 5.5t25 6.5q12 4 23 6.5t21 2.5q18 0 35 -18t17 -39q0 -22 -14 -31t-24 -9q-15 0 -26 4q-13 5 -24 5q-24 0 -56.5 -5t-60.5 -11q-6 -67 -9 -149t-5 -163t-2.5 -151.5t0.5 -115.5
q0 -27 5.5 -36t22.5 -9q17 -1 33.5 3t32.5 8q16 5 32.5 9t35.5 4q21 0 36.5 -17t15.5 -35q0 -21 -19.5 -35t-43.5 -14q-18 0 -39.5 -2t-43.5 -3q-22 -2 -44 -3.5t-40 -1.5q-36 0 -51.5 33t-15.5 88q0 42 0.5 115t3.5 157q2 84 5 166.5t8 148.5z" />
    <glyph glyph-name="backslash" unicode="\" horiz-adv-x="897" 
d="M263 79q-4 8 -9.5 24.5t-12.5 36.5q-6 21 -13.5 43t-14.5 43q-4 11 -10.5 30t-14.5 43q-10 -2 -15 -2q-4 -1 -7.5 -1h-6.5q-6 -1 -11.5 -1.5t-11.5 -0.5h-11.5t-10.5 2q-10 3 -20 8.5t-19 11.5q-10 6 -17.5 11.5t-12.5 9.5q-15 13 -9.5 27t22.5 14q23 -1 49 -2t54 -1
q-9 25 -18 49.5t-17 47.5q-9 22 -16 41.5t-12 33.5q-8 15 -15.5 27.5t-15.5 21.5q-3 3 -9.5 7.5t-13.5 10.5t-12 12t-5 13q0 15 11.5 21t26.5 6q40 0 72 -18.5t50 -58.5q6 -15 15 -39t19 -53t20.5 -60.5l20.5 -61.5h49.5t50.5 1q9 39 17 77.5t12 66.5q3 21 17.5 34.5
t32.5 13.5q24 0 44.5 -12.5t26.5 -36.5q6 -33 14.5 -69.5t18.5 -69.5h4q13 0 26.5 1t26.5 2q14 1 27 2t27 3q10 42 18.5 83t16.5 80q2 10 3.5 23.5t1.5 22.5q0 8 -5 17.5t-11 19.5t-10.5 18.5t-4.5 14.5q0 9 7.5 15.5t19.5 6.5q17 0 42.5 -13.5t42.5 -32.5
q13 -14 20.5 -39.5t1.5 -54.5q-5 -18 -10 -36.5t-10 -37.5t-10 -38.5t-10 -38.5q8 0 16 0.5t17 0.5q26 0 55 -12q29 -11 29 -40q0 -18 -16.5 -25t-34.5 -7q-12 0 -23.5 1t-22.5 2q-11 2 -21.5 3t-20.5 2q-11 -37 -21.5 -73t-20.5 -69q-12 -40 -27 -80.5t-27 -70.5
q-9 -21 -21 -29t-27 -8q-18 0 -30 19t-3 47q0 2 0.5 2t0.5 2q-2 6 -2 8q-1 2 -1.5 3.5t-0.5 3.5q-3 8 -10.5 27t-16.5 43t-18 51t-14 52q-2 6 -4.5 14t-5.5 16q-6 16 -12 36q-5 -1 -10 -1h-11q-5 -1 -10 -1h-10q-5 -14 -9 -29t-8 -29q-5 -15 -9 -29.5t-8 -27.5
q-6 -22 -13.5 -46t-15 -46.5t-15 -42.5t-13.5 -35q-9 -21 -20.5 -29t-27.5 -8q-19 0 -28.5 19.5t-0.5 46.5q0 1 0.5 1.5t0.5 1.5l-3 9q-2 6 -2 8zM284 306q5 -18 9.5 -32.5t7.5 -23.5q1 -7 3 -13.5t3 -12.5q2 -7 3.5 -13t3.5 -12q1 4 2.5 8.5t2.5 8.5q2 4 3 8.5t3 9.5
q5 16 10 36t11 41q-16 -2 -31.5 -3.5t-30.5 -1.5zM601 183q1 4 2.5 9t2.5 9q2 5 3 9.5t3 9.5q8 25 15 50.5t13 51.5q-20 0 -39.5 -1t-38.5 -1q3 -12 6 -23t6 -20q6 -19 13.5 -44.5t13.5 -49.5zM458 377l-2 8t-1 7q-1 -3 -2 -7t-1 -8h6z" />
    <glyph glyph-name="bracketright" unicode="]" horiz-adv-x="420" 
d="M344 615q4 -64 7.5 -149t5.5 -170t3 -160t1 -118q0 -55 -16 -88t-51 -33q-19 0 -40.5 1.5t-43.5 3.5q-22 1 -43.5 3t-39.5 2q-24 0 -43 14t-19 35q0 18 15 35t36 17q18 0 34.5 -4t33.5 -9q16 -4 33 -8t35 -3q15 0 21 9t6 36q0 45 -0.5 119t-2.5 157q-2 84 -5.5 167.5
t-7.5 149.5q-33 -4 -69.5 -11.5t-57.5 -12.5q-6 -2 -14.5 -3t-15.5 4q-14 9 -26.5 23t-21.5 27q-7 12 -3.5 25.5t16.5 13.5q39 -3 84.5 -3t82.5 6q12 2 25 5.5t25 6.5q13 4 24 6.5t21 2.5q18 0 35 -18t17 -39q0 -22 -14 -31t-24 -9h-3z" />
    <glyph glyph-name="asciicircum" unicode="^" horiz-adv-x="554" 
d="M120 475l22 33t24 43q6 13 16 32.5t20 40.5q11 21 20.5 42t16.5 38q5 13 5 20q-1 3 -3.5 7t-4.5 8q-7 9 -7 22q0 3 3 12.5t15 9.5q11 0 19.5 -2.5t14.5 -5.5q5 -2 12 -8t17 -14q19 -16 23 -29q43 -48 78.5 -99t59.5 -93q12 -22 18 -38t6 -31q0 -18 -12 -30.5t-29 -12.5
q-19 0 -34.5 11t-21.5 32q-15 55 -36 101.5t-48 94.5q-6 -12 -16.5 -30t-22.5 -39l-24 -40t-22 -35q-10 -18 -27.5 -38t-29.5 -30q-13 -11 -29.5 -18t-31.5 -7q-10 0 -15 4t-5.5 9t2 11t6.5 9q5 3 10 8.5t11 11.5z" />
    <glyph glyph-name="underscore" unicode="_" horiz-adv-x="492" 
d="M82 -140q-12 5 -30.5 17.5t-28.5 27.5t-5.5 26t22.5 11q48 -2 109.5 0t121.5 7q16 1 33.5 4t34.5 6q16 3 31 6t28 3q15 0 30 -4.5t27 -12.5t19.5 -18.5t7.5 -22.5q0 -18 -15.5 -27.5t-33.5 -9.5q-14 0 -25.5 1t-23.5 3q-11 1 -22 2.5t-21 1.5q-49 0 -108.5 -7t-113.5 -16
q-5 -1 -9 -2t-9 -1q-10 0 -19 5z" />
    <glyph glyph-name="grave" unicode="`" horiz-adv-x="307" 
d="M245 519q-32 9 -64 27.5t-56 39.5q-18 11 -37 37q-9 12 -15 24t-6 22q0 22 8.5 41.5t16.5 19.5q1 0 -5 5.5t-7 8.5q-1 4 10.5 0.5t48.5 -21.5q8 -6 14 -15.5t11 -20.5l10 -22t12 -20q17 -24 37 -47t38 -38q10 -8 11 -16t-3 -14q-4 -7 -11 -10t-13 -1z" />
    <glyph glyph-name="a" unicode="a" horiz-adv-x="530" 
d="M155 142q0 -35 23 -59t74 -24q32 0 63 8t52 21v108q-30 10 -63 16.5t-65 6.5q-42 0 -63 -23t-21 -54zM367 32q-26 -18 -59.5 -30.5t-65.5 -12.5q-83 0 -136 41q-52 42 -52 110q0 59 46 101q47 44 128 42q36 -1 72.5 -9.5t66.5 -20.5v7q0 61 -31 95q-32 35 -68 36
q-23 0 -40.5 -7t-35.5 -16q-17 -8 -36 -15t-43 -7q-34 0 -35 18t14 29q21 15 39 30t38 27q19 12 42.5 19.5t56.5 7.5q40 0 75 -18t61 -47q25 -29 40 -67t15 -77l1 -228q0 -22 -12.5 -36.5t-32.5 -14.5q-21 0 -34.5 12t-13.5 31z" />
    <glyph glyph-name="b" unicode="b" horiz-adv-x="592" 
d="M122 45q0 9 -0.5 28.5t-1.5 41.5q-2 23 -3 45.5t-1 40.5q-2 31 -4 77t-3 95q-2 49 -3.5 94.5t-1.5 77.5q-1 18 -5.5 33t-8.5 22q-7 10 -15 19t-15 16q-7 8 -11.5 15t-4.5 15t7.5 14t19.5 6q22 0 49.5 -11t45.5 -30q16 -18 28.5 -39.5t12.5 -53.5q-1 -21 -2 -52.5
t-1 -67.5q9 10 25 20t35 17t39 11.5t37 4.5q45 0 82.5 -18t65.5 -51q28 -32 44 -78t16 -101q0 -54 -17 -97.5t-46 -76.5q-30 -32 -70 -50t-88 -18q-40 0 -79 13.5t-69 36.5q-5 -9 -10.5 -19.5t-12.5 -19.5t-15 -14.5t-17 -5.5q-6 0 -7 6.5t0 10.5q1 8 2.5 19.5t2.5 23.5z
M203 377q-1 -54 -1.5 -103.5t-0.5 -86.5q0 -21 -2.5 -47.5t-5.5 -48.5q27 -13 60 -19.5t64 -6.5q27 0 51 12t41 35t27.5 54.5t10.5 70.5q1 81 -31.5 120.5t-83.5 40.5q-17 0 -32 -6t-28 -13q-14 -8 -25.5 -14t-20.5 -5q-6 0 -12.5 4.5t-10.5 12.5z" />
    <glyph glyph-name="c" unicode="c" horiz-adv-x="522" 
d="M169 236q-2 -80 38 -127q39 -46 97 -46q51 -1 91 20.5t65 47.5q6 7 13.5 5.5t12.5 -9.5q5 -7 5 -18.5t-9 -22.5q-11 -15 -28.5 -32.5t-41.5 -31.5q-23 -14 -52 -23.5t-62 -9.5q-57 0 -100.5 21.5t-72.5 56.5q-30 35 -45 79.5t-14 89.5q0 55 19.5 100t50.5 76
q31 32 70 49.5t79 18.5q40 0 78 -21q37 -20 55 -37q2 -3 3 -1t1 13q0 4 0.5 10.5t2.5 12.5t4.5 10.5t7.5 4.5q13 0 23 -9t17 -22q6 -14 9 -29.5t4 -29.5q0 -12 -4 -20.5t-10 -14.5t-13 -8.5t-11 -2.5q-9 -1 -20 4.5t-23 13.5q-12 7 -25.5 16t-25.5 15q-15 7 -35 10.5
t-37 3.5q-19 0 -39.5 -9t-37.5 -28t-28.5 -50t-11.5 -76z" />
    <glyph glyph-name="d" unicode="d" horiz-adv-x="557" 
d="M397 94v120q0 14 -0.5 33t-0.5 40q0 22 -0.5 45.5t-0.5 48.5q-6 -7 -14.5 -11.5t-14.5 -4.5q-9 -1 -20 4.5l-23 11.5q-13 6 -27 11.5t-30 5.5q-48 -1 -79.5 -39t-30.5 -122q0 -43 11.5 -75t28.5 -53q18 -21 40 -31.5t43 -9.5q27 0 60 6.5t58 19.5zM394 431q-1 33 -2 65.5
t-2 59.5q-1 17 -6 32t-8 23q-7 10 -15.5 18.5l-15.5 15.5q-7 8 -11.5 15t-4.5 15t7 14t18 6q20 0 48 -11t47 -29q16 -19 28 -42.5t12 -49.5v-521q0 -19 -12.5 -33.5t-32.5 -14.5q-22 0 -34.5 12.5t-12.5 28.5q-27 -18 -60.5 -29.5t-65.5 -11.5q-42 0 -80.5 16t-69.5 46
q-30 31 -48.5 75.5t-18.5 104.5q0 57 17 103.5t46 78.5q28 32 65 49.5t76 17.5q16 0 36 -4.5t39 -11.5q19 -8 35 -17.5t26 -20.5z" />
    <glyph glyph-name="e" unicode="e" horiz-adv-x="535" 
d="M170 214q3 -72 36.5 -111.5t88.5 -39.5q51 -1 90.5 20.5t64.5 47.5q6 7 14 5.5t13 -9.5q5 -7 6 -18t-7 -21q-13 -16 -31 -33.5t-41 -32.5q-23 -14 -52.5 -23.5t-63.5 -9.5q-57 0 -99 21t-70 56t-41 79.5t-13 90.5q0 55 18 100t48 77t69 49.5t81 17.5q57 -2 93.5 -20.5
t59.5 -36.5q12 -11 23 -25.5t19 -30.5t13 -32.5t5 -30.5q0 -30 -13 -54t-35 -40q-21 -17 -49.5 -26t-58.5 -9q-48 -1 -91.5 9.5t-76.5 29.5zM170 264q36 -15 74 -18.5t80 -2.5q27 0 45 17t18 45q0 42 -30.5 68t-78.5 26q-18 0 -36 -7t-33 -23t-25.5 -42t-13.5 -63z" />
    <glyph glyph-name="f" unicode="f" horiz-adv-x="401" 
d="M131 530q1 42 14 71.5t33 49.5q43 38 96 38q18 0 36.5 -8t34.5 -20q15 -12 25 -25.5t10 -23.5q0 -27 -14.5 -38t-30.5 -11q-10 0 -18 6.5t-16 14.5q-7 8 -15 15t-17 7q-11 0 -21 -4.5t-17.5 -15.5t-12.5 -31t-5 -50v-31q7 1 15.5 3t17.5 4q18 5 30 5q8 0 19 -4.5
t21 -11.5q10 -8 17.5 -17.5t7.5 -19.5q0 -21 -14.5 -32.5t-26.5 -11.5q-5 0 -11.5 0.5t-13.5 2.5l-14 2t-11 1q-7 0 -17 -0.5t-20 -1.5v-187q0 -27 1.5 -47.5t3.5 -36.5t4 -29t3 -26q0 -24 -14.5 -42.5t-35.5 -18.5q-23 0 -35.5 12.5t-12.5 30.5v255q0 19 0.5 39.5t0.5 40.5
q-6 -2 -8 -2q-6 -2 -7 -2q-16 -5 -29 1q-15 5 -30.5 19t-24.5 28q-8 10 -3.5 21.5t12.5 11.5q20 0 43.5 1t47.5 3v17t1 17v15.5t1 15.5z" />
    <glyph glyph-name="g" unicode="g" horiz-adv-x="555" 
d="M395 45q-27 -18 -59 -29.5t-67 -11.5q-42 0 -80.5 16t-68.5 46t-48.5 72.5t-18.5 96.5q0 57 17 101t46 75q28 31 64.5 47t75.5 16q25 0 53 -8t49 -20q-5 7 -7 14.5t-2 14.5t7 12.5t19 5.5q10 0 32 -8.5t40 -24.5q18 -19 29.5 -42.5t11.5 -50.5v-233q-1 -9 -1 -21.5v-25.5
q0 -14 0.5 -28.5t0.5 -26.5q-1 -52 -17.5 -92t-43.5 -67t-62.5 -41t-73.5 -13q-62 0 -115 31q-54 32 -82 68q-9 10 -8.5 21.5t6.5 18.5t15.5 7.5t18.5 -8.5q27 -29 65.5 -47t74.5 -18q50 -1 90 34q39 34 39 116v3zM154 237q0 -39 11 -68.5t29 -50.5q18 -20 40 -30.5
t44 -10.5q33 0 62 6.5t55 21.5v18q0 5 0.5 10t0.5 11q0 33 -2 86.5t-5 131.5q0 1 -0.5 3t-0.5 5v8q-6 -9 -15.5 -14.5t-18.5 -5.5t-18.5 4.5t-19.5 10.5q-11 6 -24 10.5t-28 4.5q-48 -1 -79 -37t-31 -114z" />
    <glyph glyph-name="h" unicode="h" horiz-adv-x="582" 
d="M114 45q0 9 -0.5 28.5t-0.5 41.5q-1 23 -2.5 45.5t-1.5 40.5q-2 31 -4 77t-4 95q-1 49 -2.5 94.5t-1.5 77.5q-1 17 -6 32.5t-8 22.5q-7 10 -15 19t-15 16q-7 8 -11.5 15t-4.5 15t7.5 14t18.5 6q23 0 49.5 -11t46.5 -29q17 -18 28.5 -40.5t11.5 -53.5q-1 -23 -1.5 -55.5
t-0.5 -69.5q19 25 58 41q42 17 78 17q39 0 72.5 -16t57.5 -46t37.5 -73.5t13.5 -98.5v-44q0 -13 0.5 -26t0.5 -23q0 -14 1 -27.5t2 -25.5t2.5 -22.5t1.5 -16.5q0 -36 -13.5 -53.5t-37.5 -17.5q-22 0 -34.5 13t-12.5 31v176q0 15 -0.5 33t-0.5 32q-6 60 -31.5 89t-67.5 30
q-16 0 -29.5 -6t-26.5 -13q-12 -7 -23 -13t-20 -6q-18 0 -29 13q-1 -51 -1.5 -100.5t-0.5 -85.5q0 -14 -1.5 -31.5t-3.5 -34.5t-4.5 -32t-5.5 -23q-2 -9 -7.5 -23t-13.5 -27t-17.5 -22t-19.5 -9q-6 0 -10.5 4.5t-1.5 12.5q1 9 2.5 20t2.5 23z" />
    <glyph glyph-name="i" unicode="i" horiz-adv-x="268" 
d="M88 640q0 21 18 40t46 19q18 0 37 -17t19 -44q0 -28 -17 -46t-39 -18q-27 0 -45.5 18t-18.5 48zM105 50v129q0 42 -3 93q-1 26 -2 47t-2 38q-1 6 -1.5 13.5t-1.5 13.5q0 14 -5 22q-5 7 -10.5 15.5t-9.5 16.5q-10 13 -10 27q0 7 7.5 13.5t19.5 6.5q14 0 35 -8.5t39 -26.5
q18 -20 27 -43t9 -44v-308q0 -21 -13 -35t-31 -14q-24 0 -36 13t-12 31z" />
    <glyph glyph-name="j" unicode="j" horiz-adv-x="354" 
d="M172 23v62t1 69q0 16 -0.5 35t-1.5 43t-2.5 53.5t-2.5 67.5q-1 16 -4.5 31t-8.5 23q-12 16 -19 29t-7 24q0 7 6.5 13.5t18.5 6.5q15 0 35 -7t37 -22q41 -38 41 -93v-214q-1 -14 -1 -30v-34q0 -17 0.5 -34t0.5 -32q-1 -84 -34 -134.5t-85 -50.5q-45 0 -81 24.5t-51 63.5
q-5 12 -2.5 23t8.5 16t14.5 3.5t15.5 -12.5q14 -23 31.5 -34t29.5 -11q15 0 26.5 5.5t19 19t11.5 37t4 59.5zM140 637q0 21 18.5 39t45.5 18q18 0 37 -17t19 -44t-17 -45t-39 -18q-27 0 -45.5 18.5t-18.5 48.5z" />
    <glyph glyph-name="k" unicode="k" horiz-adv-x="557" 
d="M133 44q0 10 -0.5 29t-1.5 41q-2 22 -3.5 45t-1.5 41q-2 31 -3.5 74.5t-3.5 88.5q-1 45 -2.5 88.5t-1.5 75.5q-1 15 -6 31t-8 24q-7 10 -15 18t-15 16q-7 7 -11.5 14t-4.5 15t7.5 14t19.5 6q21 0 49 -10.5t45 -29.5q18 -20 29 -40t11 -52q-1 -23 -2 -54.5t-1 -66.5
q-1 -36 -1.5 -73.5t-0.5 -73.5q19 10 37 21t31 21q10 8 26 20.5t33 26.5q16 14 30.5 28t20.5 26q5 10 7 18.5t2 17.5q0 12 -3 19.5t-9 14.5q-12 12 -5.5 22.5t16.5 10.5q13 0 31 -8t34 -20q17 -13 28.5 -28.5t11.5 -30.5q0 -27 -20 -52q-18 -26 -55.5 -52t-73.5 -46
q30 -21 62 -49.5t62 -62.5q28 -33 47 -66t19 -55q0 -21 -14.5 -34.5t-34.5 -13.5q-11 0 -19 5.5t-15 13.5q-8 9 -14 19t-11 20q-30 54 -64 103.5t-70 92.5q-8 -4 -19 -8t-23 -8q-26 -8 -48 -14v-30q0 -14 -1 -31.5t-3 -34.5t-4 -32t-5 -24q-2 -9 -8 -22.5t-14 -26.5
q-9 -13 -19.5 -22t-21.5 -9q-7 0 -8 6.5t0 11.5q4 16 6 41z" />
    <glyph glyph-name="l" unicode="l" horiz-adv-x="281" 
d="M104 50v177q0 27 -0.5 65t-1.5 80t-2.5 85t-2.5 81q-1 16 -5.5 31.5t-8.5 21.5q-7 10 -15.5 19t-15.5 16q-7 8 -11.5 15t-4.5 15t7.5 13.5t17.5 5.5q20 0 47.5 -10.5t46.5 -28.5q17 -19 29 -42t12 -50v-490q0 -20 -13 -34t-31 -14q-24 0 -36 13t-12 31z" />
    <glyph glyph-name="m" unicode="m" horiz-adv-x="793" 
d="M118 40q0 10 -0.5 29t-1.5 41q-1 23 -2.5 45.5t-1.5 40.5q-1 15 -2.5 38t-3.5 47q-1 24 -3 45t-2 33q-2 17 -6.5 33t-7.5 23q-7 10 -15 18.5t-15 16.5q-7 7 -11.5 14.5t-4.5 15.5t8 13t19 5q22 0 49 -10.5t45 -28.5q6 -6 11 -12.5t10 -13.5q21 19 46 32t50 13
q42 0 77 -17t59 -49q25 27 58 46.5t69 19.5q40 0 73.5 -16t57.5 -46t37.5 -73.5t13.5 -98.5v-43q0 -13 0.5 -26.5t0.5 -22.5q0 -14 1 -27.5t3 -25.5q1 -12 2.5 -22.5t1.5 -16.5q0 -36 -14 -53.5t-38 -17.5q-22 0 -35 12.5t-13 32.5v175q0 15 -0.5 33t-0.5 32
q-5 60 -30.5 90.5t-67.5 30.5q-31 0 -52 -10.5t-39 -26.5q9 -24 14 -52.5t5 -61.5v-92q0 -14 1 -27.5t3 -25.5q1 -12 2.5 -22.5t1.5 -16.5q0 -36 -14 -53.5t-38 -17.5q-21 0 -34 12.5t-13 32.5v175q0 15 -0.5 33t-0.5 32q-5 60 -31 90.5t-68 30.5q-21 0 -38 -7.5t-30 -19.5
v-1q0 -14 -1 -38.5t-2 -51.5t-1.5 -52t-0.5 -41q0 -14 -1.5 -31t-3.5 -36t-4.5 -33t-5.5 -23q-2 -9 -7.5 -22.5t-13.5 -26.5t-17.5 -22t-19.5 -9q-6 0 -10.5 4.5t-2.5 12.5q2 7 3.5 18.5t2.5 23.5z" />
    <glyph glyph-name="n" unicode="n" horiz-adv-x="547" 
d="M118 40q0 10 -0.5 29t-1.5 41q-1 23 -2.5 45.5t-1.5 40.5q-1 15 -2.5 38t-3.5 47q-1 24 -3 45t-2 33q-2 17 -6.5 33t-7.5 23q-7 10 -15 18.5t-15 16.5q-7 7 -11.5 14.5t-4.5 15.5t8 13t19 5q21 0 48 -10.5t46 -28.5q8 -8 14.5 -16.5t12.5 -18.5q18 21 46 37.5t61 16.5
q80 0 131 -62q52 -61 52 -172v-43q0 -13 0.5 -26.5t0.5 -22.5q0 -14 1 -27.5t2 -25.5t2.5 -22.5t1.5 -16.5q0 -36 -14.5 -53.5t-37.5 -17.5q-21 0 -34 12.5t-13 32.5v175q0 15 -0.5 33t-0.5 32q-6 60 -32.5 92t-66.5 32q-25 0 -46.5 -11.5t-38.5 -26.5q-1 -16 -2 -40t-1 -49
q-1 -26 -1.5 -49t-0.5 -38q0 -14 -1.5 -31t-3.5 -36t-4.5 -33t-5.5 -23q-2 -9 -7.5 -22.5t-13.5 -26.5t-17.5 -22t-19.5 -9q-6 0 -10.5 4.5t-2.5 12.5q2 7 3.5 18.5t2.5 23.5z" />
    <glyph glyph-name="o" unicode="o" horiz-adv-x="575" 
d="M60 241q0 45 17 88t49 76q32 34 77 54.5t100 20.5q40 -1 79 -18.5t70 -49.5q30 -32 49.5 -76.5t19.5 -99.5q0 -54 -19 -98.5t-50 -77.5q-31 -34 -71 -52.5t-82 -18.5t-84 14.5t-76 45.5q-35 30 -57 78t-22 114zM158 246q0 -45 11 -78t29.5 -54t44 -31t55.5 -10
q20 0 42 10.5t40 30.5q18 21 29.5 51t11.5 72q-1 36 -12 65.5t-28 50.5q-18 21 -39.5 33t-43.5 12q-30 0 -55.5 -13t-44.5 -34t-29.5 -48.5t-10.5 -56.5z" />
    <glyph glyph-name="p" unicode="p" horiz-adv-x="598" 
d="M129 -158q0 9 -0.5 28t-1.5 41q-2 22 -3 45t-1 40q-2 31 -4 76.5t-3 93.5q-2 48 -3.5 93.5t-1.5 77.5q0 16 -5 31.5t-9 21.5q-7 10 -15 19t-15 16q-7 8 -11.5 15t-4.5 15t7.5 14t19.5 6q23 0 50.5 -11t44.5 -29q3 -5 7 -9.5t8 -9.5q3 -4 6.5 -9t6.5 -9q0 15 15 28.5
t37 24.5q22 10 47.5 16.5t46.5 6.5q43 0 81 -18t66 -50q28 -33 44.5 -78.5t16.5 -102.5q0 -54 -17 -97t-46 -75q-30 -32 -70 -49.5t-88 -17.5q-33 0 -66 9t-60 25v-36q0 -14 -1 -30.5t-3 -35.5q-5 -38 -9 -57q-3 -8 -9 -21.5t-14 -26.5q-9 -13 -19.5 -22.5t-21.5 -9.5
q-6 0 -7 6.5t0 11.5q1 7 2.5 18.5t2.5 24.5zM212 364q0 -6 0.5 -11.5t0.5 -11.5q-1 -21 -1.5 -51.5t-0.5 -65.5q-1 -36 -1.5 -73.5t-0.5 -72.5q26 -12 56.5 -17t59.5 -5q27 -1 50.5 12t41.5 37q17 23 27 54.5t11 67.5q0 82 -32.5 121t-83.5 39q-17 0 -32 -6t-28 -13
q-14 -8 -25.5 -14t-20.5 -5q-6 0 -12 4.5t-9 10.5z" />
    <glyph glyph-name="q" unicode="q" horiz-adv-x="567" 
d="M397 -176v203q-27 -19 -60 -30t-66 -11q-42 0 -80.5 15.5t-69.5 46.5q-30 30 -48.5 75t-18.5 103t17 104t46 79q28 32 65 49t76 17q21 0 43.5 -7t42.5 -19q19 -12 31.5 -28t12.5 -33q0 -15 -13 -22t-27 -7q-9 0 -17 4.5t-18 9.5t-21.5 10t-26.5 5q-47 0 -78.5 -38
t-30.5 -122q0 -43 11.5 -75t29.5 -53q17 -21 39 -31.5t44 -10.5q29 0 60.5 6.5t56.5 20.5q-1 36 -1.5 77t-1.5 81q-1 39 -2 75t-2 62q-2 36 -8 55q-7 15 -11 29.5t-4 23.5q0 6 5 13t19 7q15 0 33.5 -11t30.5 -23q16 -20 25 -43.5t9 -44.5v-558q0 -21 -12.5 -34.5
t-32.5 -13.5q-22 0 -34.5 12.5t-12.5 31.5z" />
    <glyph glyph-name="r" unicode="r" horiz-adv-x="461" 
d="M116 40q0 10 -0.5 29t-1.5 41q-1 23 -2 45.5t-1 40.5q-1 15 -2.5 38t-3.5 47t-4 45t-2 33q-2 18 -6 33.5t-8 22.5q-7 10 -15 18.5t-15 16.5q-7 7 -11.5 14.5t-4.5 15.5t8 13t19 5q22 0 49 -10.5t46 -28.5q22 -22 33 -54q43 73 131 73q27 0 52.5 -7.5t44.5 -18.5
q20 -12 32 -26t12 -27q0 -49 -50 -49q-11 0 -21 7t-22 15q-11 8 -24.5 15.5t-29.5 7.5q-21 0 -41 -9t-36.5 -27.5t-28.5 -45.5t-16 -63q-1 -20 -1 -37v-29q0 -14 -1.5 -31t-3.5 -36q-5 -38 -9 -56q-3 -9 -8.5 -22.5t-13.5 -26.5t-18 -22t-20 -9q-5 0 -9 4.5t-2 11.5
q1 7 2.5 19t2.5 24z" />
    <glyph glyph-name="s" unicode="s" horiz-adv-x="434" 
d="M160 356q0 -27 22 -46t74 -37q25 -11 50 -24.5t45 -31.5q19 -18 31.5 -41.5t12.5 -54.5q0 -28 -14 -52t-37 -42q-24 -18 -55.5 -28t-67.5 -10q-57 0 -109 31q-26 16 -46.5 33.5t-36.5 36.5q-9 10 -8.5 20t6.5 16q5 6 14 7t17 -6q31 -32 74 -52.5t80 -20.5q33 0 56 18.5
t23 46.5q0 34 -19 53.5t-67 39.5q-24 8 -49.5 20t-46.5 29q-22 17 -35.5 40t-13.5 54q0 15 6.5 36t23.5 40t45 32.5t70 14.5q36 0 68 -17t51 -40q0 -1 -0.5 0t-0.5 12q0 6 -0.5 13t0.5 13q0 6 3 10.5t10 4.5q11 0 20.5 -8t16.5 -20.5t11 -29t4 -32.5q0 -24 -12 -35.5
t-31 -11.5q-11 0 -23 5t-23 12q-12 8 -23 16.5t-21 16.5q-29 18 -46 18q-23 0 -36 -14.5t-13 -34.5z" />
    <glyph glyph-name="t" unicode="t" horiz-adv-x="336" 
d="M118 165l-3 211q-6 -1 -12.5 -0.5t-10.5 3.5q-13 6 -30 21t-24 25q-8 11 -3.5 22.5t13.5 11.5q17 0 33.5 0.5t32.5 2.5v26q-1 16 -6 31t-9 22q-5 8 -11 15t-10 14q-11 13 -11 23q0 8 7 15.5t18 7.5q7 0 18.5 -2.5t23 -6t22.5 -9t19 -11.5q21 -19 29 -43t8 -51v-17
q12 3 24 5.5t21 2.5q8 0 19 -4.5t21 -11.5q10 -8 17 -17.5t7 -19.5q0 -21 -13.5 -32.5t-25.5 -11.5q-6 0 -12.5 0.5t-13.5 1.5q-7 0 -14 1t-12 1h-18l-1 -217v-26q0 -57 12 -70q13 -13 32 -13q9 0 22.5 9t19.5 18q7 11 15.5 13t15.5 -4q6 -5 8.5 -15.5t-3.5 -22.5
q-12 -29 -39.5 -50t-73.5 -21q-17 0 -35 9t-33 30t-24.5 53.5t-9.5 80.5z" />
    <glyph glyph-name="u" unicode="u" horiz-adv-x="555" 
d="M479 153q0 -21 1 -36t2 -25q1 -11 2.5 -18.5t1.5 -13.5q0 -36 -14.5 -53.5t-36.5 -17.5q-24 0 -36 11.5t-12 23.5v30q-4 -8 -15.5 -19t-27.5 -21q-16 -11 -35.5 -18t-40.5 -7q-78 0 -128 55q-24 28 -38 67.5t-14 90.5q0 13 -1 33.5t-2 43.5t-2 48t-1 49q-1 12 -4 25.5
t-8 22.5q-3 4 -7 8.5t-7 9.5q-7 12 -7 21q0 6 6 11.5t16 5.5q4 0 14.5 -1.5t22.5 -4.5t23.5 -7.5t19.5 -10.5q33 -30 33 -80q-1 -22 -1.5 -46.5t-0.5 -48.5v-46.5v-40.5q-1 -70 23 -93q26 -23 68 -23q43 0 76 39q34 38 34 100q0 16 -1 37.5t-1 44.5q-1 22 -2 44.5t-2 40.5
q-1 13 -4.5 24.5t-6.5 16.5q-4 5 -8.5 11.5t-8.5 12.5q-9 14 -9 24q0 6 4.5 13.5t16.5 7.5q21 -1 44.5 -8.5t39.5 -22.5q15 -15 24.5 -34t9.5 -40v-236z" />
    <glyph glyph-name="v" unicode="v" horiz-adv-x="510" 
d="M246 75q-5 7 -13 22t-18 34.5t-21.5 42.5t-21.5 47q-5 8 -14 25t-19 37q-11 20 -21.5 39.5t-16.5 32.5q-19 33 -35 49q-5 4 -13 10l-16 12q-7 6 -12.5 12t-5.5 12q0 10 9.5 20t24.5 10q33 0 74 -18q40 -16 60 -58q7 -15 16 -35.5t19 -42.5t19 -43t15 -36q4 -13 9 -26
t10 -25q5 -13 9.5 -25.5t8.5 -22.5l24 58q6 14 15.5 37.5t18.5 48.5q9 24 17 46.5t13 36.5q2 9 4 23.5t2 23.5q0 7 -6.5 16.5t-13.5 18.5q-7 10 -13 19t-6 16q0 8 7 14.5t16 6.5q18 0 44 -11.5t46 -30.5q14 -15 23.5 -42.5t0.5 -54.5q-6 -18 -17 -43.5t-24 -54.5
q-12 -29 -26 -59.5t-26 -57.5q-18 -38 -36 -73t-33 -62q-12 -20 -23.5 -27.5t-21.5 -7.5q-15 0 -28 19q-5 9 -5.5 21t7.5 26q0 1 1 1q-4 4 -4 10q-1 2 -2 4.5t-1 4.5z" />
    <glyph glyph-name="w" unicode="w" horiz-adv-x="762" 
d="M252 75q-4 7 -12 22t-18 35q-10 19 -21.5 42t-22.5 47q-4 8 -13 25.5t-19 37.5q-11 20 -21 39t-16 32q-20 31 -37 49l-12.5 10t-15.5 12q-7 6 -12.5 12t-5.5 12q0 10 9.5 20t24.5 10q16 0 35.5 -4t37.5 -13t34 -23.5t27 -35.5q6 -15 15 -35.5t19 -42.5t19 -43t15 -36
q4 -13 9.5 -26t10.5 -26t9.5 -25.5t8.5 -22.5q3 7 6 14.5t6 14.5q3 8 6 15t7 15q9 20 22 54.5t26 69.5q-5 7 -8.5 13t-6.5 11t-6.5 9t-6.5 8q-11 7 -23 19q-5 5 -8.5 10t-3.5 11q0 10 7 19.5t25 9.5q12 -1 28.5 -3.5t32.5 -8.5q36 -14 57 -54q6 -15 12 -31l12 -32
t12.5 -32.5t13.5 -31.5q4 -13 8.5 -26t9.5 -26t9.5 -25.5t8.5 -22.5q3 7 6 14.5t6 14.5q3 8 6.5 15t6.5 15q6 14 15.5 37.5t18.5 48.5q9 24 17 46.5t12 36.5q3 9 5 23.5t2 23.5q0 7 -6.5 16.5t-13.5 18.5q-7 10 -13 19t-6 16q0 8 6.5 14.5t15.5 6.5q19 0 45 -11.5t45 -30.5
q15 -15 24.5 -42.5t0.5 -55.5q-7 -18 -17.5 -43t-23.5 -54t-27 -59.5t-26 -57.5q-17 -37 -35 -72.5t-35 -62.5q-10 -20 -22 -27.5t-24 -7.5q-6 0 -13.5 5t-12.5 14t-5.5 21t7.5 26q1 2 -3 11q-1 3 -2 5t-1 4q-5 7 -12.5 22t-17.5 34t-21 41.5t-22 46.5q-6 -12 -12.5 -27
t-15.5 -33q-16 -37 -34 -72.5t-34 -62.5q-12 -20 -23.5 -27.5t-22.5 -7.5q-14 0 -27 19q-5 9 -6 21t7 26v1q1 0 1 1q-1 2 -2 4.5t-2 4.5q-1 3 -2 5t-1 4z" />
    <glyph glyph-name="x" unicode="x" horiz-adv-x="506" 
d="M406 11q-6 7 -20.5 25.5t-31.5 41.5q-18 22 -35.5 45t-29.5 41l-6 9q-14 -14 -26 -27t-21 -24q-11 -13 -24.5 -26.5t-27.5 -28.5t-25 -25.5t-19 -17.5q-11 -9 -21.5 -13.5t-22.5 -4.5q-18 0 -25 24t14 47q9 8 22 22.5t27 30.5q14 15 26.5 30.5t21.5 26.5q5 6 10.5 12
t11.5 13q12 13 24 30q-27 33 -54.5 67.5t-42.5 52.5q-13 14 -23.5 23.5t-22.5 17.5q-7 4 -17 8.5t-19 10.5q-9 5 -15 11.5t-6 14.5q0 11 10 21.5t32 10.5q36 0 69.5 -11.5t64.5 -44.5q15 -18 37.5 -48l46.5 -62q17 21 32.5 40.5t26.5 34.5q5 7 10.5 15t10.5 15q4 7 7.5 13.5
t3.5 11.5q0 6 -3 11.5t-6 11.5q-4 5 -6.5 10.5t-2.5 13.5q0 10 7 16.5t17 6.5q13 0 38 -16q27 -17 38 -40q22 -54 -11 -96q-12 -15 -25 -30.5t-27 -30.5l-28 -32t-28 -31q12 -23 24 -33q14 -19 29 -42t27 -45q13 -22 22.5 -39.5t12.5 -25.5q6 -21 5 -44t-6 -40
q-3 -6 -7.5 -8.5t-9 -1.5t-8 3.5t-3.5 5.5q-4 10 -11 22.5t-11 20.5z" />
    <glyph glyph-name="y" unicode="y" horiz-adv-x="510" 
d="M246 75q-5 8 -13 23.5t-18 34.5q-10 20 -21.5 42.5t-21.5 45.5q-5 8 -13.5 24.5t-18.5 35.5q-11 19 -21.5 37.5t-17.5 30.5q-5 8 -9.5 15t-8.5 14q-5 6 -9 11.5t-8 10.5q-5 4 -13 9t-16 11q-7 5 -12.5 11.5t-5.5 14.5q0 11 8.5 20t25.5 9q38 0 75.5 -18t58.5 -58
q7 -14 16.5 -34t19.5 -41q9 -22 18 -42t15 -35q4 -13 9 -26l10 -26t10 -25.5l9 -22.5q3 7 5.5 14t5.5 13l12 27q6 14 15 37.5t19 48.5q9 25 17 48t13 36q2 9 4 23t2 23q0 7 -6.5 16.5t-13.5 19.5t-13 19t-6 16q0 8 7 14.5t16 6.5q18 0 44 -11.5t46 -30.5q14 -15 23.5 -42.5
t0.5 -54.5q-6 -18 -16.5 -44t-23.5 -55t-27 -59.5t-26 -56.5q-16 -33 -35.5 -73t-40.5 -80q-21 -42 -42.5 -80t-40.5 -69q-12 -19 -22.5 -27t-22.5 -8q-15 0 -29 20q-13 19 2 46q10 20 21.5 41.5t23.5 43.5t23.5 45t22.5 46q-2 4 -3.5 8t-2.5 7z" />
    <glyph glyph-name="z" unicode="z" horiz-adv-x="473" 
d="M324 399h-12q-31 0 -57 -5t-48 -11t-40.5 -11t-33.5 -4q-9 0 -20 5t-22 13q-10 7 -19 15.5t-13 14.5q-10 11 -5 24t23 13q22 -2 50 -1.5t58 2.5q30 1 59.5 3.5t54.5 6.5q2 0 8.5 3t13.5 6q8 3 15 6t12 3q12 0 26.5 -8t27.5 -20q12 -13 21 -29.5t9 -33.5q0 -10 -18 -37
t-42 -58q-25 -32 -51 -62.5t-43 -48.5q-26 -29 -55 -57t-57 -52q27 0 53.5 1.5t44.5 3.5q22 1 39 4t31 6t26 5t24 2q25 0 49 -18q25 -16 25 -34q0 -17 -13 -31.5t-32 -14.5t-36 4q-10 1 -20.5 2.5t-21.5 1.5q-28 0 -51.5 -1.5t-46.5 -4.5q-23 -2 -46 -5t-48 -6
q-8 -2 -19.5 -2.5t-17.5 3.5q-13 7 -32.5 22.5t-28.5 30.5q-7 12 -2 23t20 9q6 -1 13 -1h16q16 17 33.5 37t37.5 44t36.5 45.5t30.5 41.5q23 31 47.5 72t46.5 83z" />
    <glyph glyph-name="braceleft" unicode="{" horiz-adv-x="379" 
d="M79 282q-3 0 -3 2q-12 4 -14 23q-1 19 14 25v1h7q24 2 35.5 22.5t14.5 51.5q4 31 3.5 69.5t-0.5 77.5q0 42 12.5 71.5t33.5 49.5q20 19 45.5 28.5t51.5 9.5q35 0 60.5 -12.5t25.5 -35.5q0 -28 -15.5 -35.5t-33.5 -7.5q-11 0 -16 2t-9 4t-8 4.5t-12 2.5q-19 0 -36 -22.5
t-17 -82.5q0 -23 1 -54t-2 -63q-4 -32 -15 -61t-35 -47q24 -20 35 -50t14 -63q4 -32 3 -63t-1 -52q0 -61 18.5 -88t42.5 -32q4 -2 8 -2h8h7t9 1q5 0 14 3.5t18 5.5q9 1 15.5 -2t6.5 -16q0 -27 -25.5 -40t-60.5 -13q-26 0 -51.5 9t-45.5 28q-21 20 -33.5 50t-12.5 72
q0 37 0.5 76t-3.5 71t-16 54.5t-36 27.5h-2z" />
    <glyph glyph-name="bar" unicode="|" horiz-adv-x="240" 
d="M111 -60v176v36.5t-0.5 51t-1 61t-0.5 66.5q0 33 -1 67t-1.5 64.5t-1.5 57t-2 46.5q-1 16 -5.5 31.5t-8.5 22.5q-7 10 -15.5 18.5l-15.5 15.5q-7 8 -11.5 15t-4.5 15t7.5 13.5t18.5 5.5q19 0 46.5 -10.5t46.5 -28.5q17 -20 29 -42.5t12 -48.5v-630q0 -20 -13 -33.5
t-31 -13.5q-24 0 -35.5 12.5t-11.5 31.5z" />
    <glyph glyph-name="braceright" unicode="}" horiz-adv-x="379" 
d="M315 283q-3 -1 -5 -1q-25 -6 -36.5 -28t-14.5 -55q-4 -32 -3 -70.5t1 -75.5q0 -42 -13 -72t-34 -50q-20 -19 -45.5 -28t-50.5 -9q-36 0 -61 13t-25 40q0 13 6 16t15 2q9 -2 18 -5.5t15 -3.5q4 -1 8 -1h8h7t9 2q23 5 41.5 32t18.5 88q0 21 -1.5 52t2.5 63q3 33 14.5 63
t36.5 50q-25 19 -36.5 48t-14.5 61q-4 31 -2.5 62t1.5 54q0 60 -17 82.5t-36 22.5q-8 0 -12 -2.5t-8 -4.5t-9.5 -4t-15.5 -2q-18 0 -33 7.5t-15 35.5q0 23 25 35.5t61 12.5q25 0 50.5 -9.5t45.5 -28.5q21 -20 34 -49.5t13 -71.5q0 -39 -1 -77.5t3 -69.5q3 -31 14.5 -51.5
t36.5 -22.5h6v-1q14 -6 13 -25q-2 -20 -13 -24h-1z" />
    <glyph glyph-name="asciitilde" unicode="~" horiz-adv-x="554" 
d="M281 286l-56 48q-14 13 -34.5 18.5t-32.5 -1.5q-14 -9 -25 -20t-20 -22q-9 -12 -17 -23t-14 -20q-9 -13 -22.5 -9.5t-22.5 16.5q-10 14 -12 34t12 41q12 22 38.5 45.5t53.5 38.5q15 9 32 12.5t37 -1t43 -18.5t50 -41q8 -10 18.5 -23t21.5 -24q12 -12 24.5 -19.5
t25.5 -7.5q18 0 33 7.5t27.5 20t22 27.5t16.5 30q21 48 33 52.5t16 -13.5q5 -18 2.5 -46.5t-9.5 -46.5q-7 -21 -21 -40.5t-32 -35.5q-19 -15 -41.5 -24.5t-46.5 -8.5q-22 1 -36.5 6.5t-25.5 12.5q-12 8 -20.5 17t-17.5 18z" />
    <glyph glyph-name="uni00A0" unicode="&#xa0;" horiz-adv-x="341" 
 />
    <glyph glyph-name="exclamdown" unicode="&#xa1;" horiz-adv-x="358" 
d="M152 264q0 17 11.5 30t35.5 13q18 0 31 -13.5t13 -33.5v-339q0 -23 -8.5 -45.5t-26.5 -41.5t-39 -26.5t-36 -7.5q-25 0 -25 19q0 5 2.5 12t6.5 14q4 8 9 16.5t10 16.5q5 7 5 21q1 7 1.5 14t1.5 15q1 16 2 39.5t3 49.5l2 52t1 47v148zM137 431q0 28 18.5 47t44.5 19
q23 0 40 -18.5t17 -43.5q0 -28 -19.5 -45t-37.5 -17q-27 0 -45 18.5t-18 39.5z" />
    <glyph glyph-name="cent" unicode="&#xa2;" horiz-adv-x="522" 
d="M159 236q-1 -39 9 -70.5t29 -53.5q2 6 3.5 12t4.5 11q26 66 51 130t48 133q-5 0 -8 1h1q-5 1 -10.5 1.5t-10.5 0.5q-19 0 -39 -8.5t-36 -28.5q-18 -20 -30 -51t-12 -77zM108 -92q3 7 6 15t7 16t7 16t7 16l12 28t12 29q-25 17 -44.5 40.5t-32 50.5t-19 57t-6.5 60
q0 57 19 101.5t49 75.5q31 31 70 48.5t80 18.5q13 0 26 -2t27 -7l1 1l4 12q2 9 3 24t1 29q-1 10 -4.5 20.5t-8.5 18.5q-6 9 -10 17t-4 15q0 10 6.5 15t17.5 5q10 0 26.5 -10t34.5 -29q17 -17 25.5 -43.5t-0.5 -55.5q-2 -5 -3.5 -9t-3.5 -8l-12 -31l-3 -10l6 -6h2
q2 -2 4 -0.5t2 6.5q0 12 4 26.5t14 14.5q27 0 39 -32q9 -26 10 -58q0 -24 -13.5 -35t-24.5 -11q-14 -1 -35 13l-20 12q1 0 -3 2.5t-6 4.5t-1 1t-1 1q-29 -75 -61 -152t-62 -148q10 -5 20 -6.5t21 -1.5q51 -1 91 21.5t65 48.5v-1q15 17 29 -5q6 -8 3.5 -18.5t-10.5 -21.5
q-12 -16 -29.5 -33t-40.5 -31q-23 -15 -51.5 -23.5t-61.5 -8.5q-21 0 -36.5 1.5t-31.5 6.5q-5 -11 -9 -19t-9 -19q-9 -20 -18 -40.5t-19 -41.5t-22.5 -28.5t-23.5 -6.5q-15 1 -20 17.5t9 46.5z" />
    <glyph glyph-name="sterling" unicode="&#xa3;" horiz-adv-x="649" 
d="M77 84q11 -1 24 -1h27q10 24 16 45.5t10 42.5q3 17 5 32.5t4 31.5q1 5 1.5 11t1.5 12q0 6 0.5 11t0.5 10v2q-2 1 -4 1t-4 2q-20 7 -37.5 18.5t-31.5 25.5q-12 14 -8 26t23 12q17 -1 31.5 -1h32.5v94q0 72 22 112t50 59q28 20 61.5 27t66.5 7q31 -1 57 -7t41 -13
q32 -15 49.5 -33t24.5 -36q14 -41 -9 -68q-20 -25 -49 -26q-30 -2 -38 17v-1q-6 11 -4.5 19.5t4.5 18.5v-1q0 1 0.5 2t0.5 2q2 6 1.5 14t-8.5 18q-8 8 -25.5 13.5t-37.5 7.5q-22 1 -43 -3.5t-36 -15.5q-18 -14 -27.5 -34t-12.5 -54q-2 -26 -2.5 -57.5t-0.5 -60.5h11
q5 0 10.5 0.5t10.5 0.5h9.5t9.5 1q5 0 10.5 0.5t11.5 1.5q25 2 56 6l12 2t13 2q20 3 43.5 5.5t40.5 2.5q14 0 28 -4t25 -10.5t18 -15.5t7 -20q0 -22 -16 -31.5t-33 -9.5q-11 0 -22 1.5t-19 3.5q-5 0 -15 2l-21 3q-31 0 -55.5 -1.5t-47.5 -3.5h1q-4 -1 -8 -1t-8 -1
q-19 -2 -35 -5t-37 -5q0 -8 -0.5 -13t-0.5 -10v-18q-3 -42 -10.5 -83.5t-23.5 -82.5h22q8 0 16 0.5t17 0.5q4 0 8 0.5t8 0.5q8 0 21.5 1t21.5 2q13 1 30.5 3t35.5 4q8 1 14.5 2t14.5 2q26 3 52 5.5t44 2.5q15 0 29 -5t25 -12.5t18 -17t7 -20.5q0 -22 -16.5 -31.5t-33.5 -9.5
q-25 0 -41 4q-17 4 -36 6q-73 1 -150 -6.5t-148 -15.5q-2 0 -5 -0.5t-5 -0.5q-4 -2 -12 -2q-7 0 -13 0.5t-11 3.5l1 -1q-20 6 -39 19t-32 27q-15 14 -11 26.5t26 12.5z" />
    <glyph glyph-name="currency" unicode="&#xa4;" horiz-adv-x="788" 
d="M693 290q0 -51 -14.5 -96.5t-41.5 -82.5l6.5 -6.5t7.5 -6.5q12 -12 28.5 -24.5t36.5 -20.5q35 -14 48 -27t4 -31q-11 -15 -30.5 -21.5t-42.5 -7.5q-33 -1 -53.5 10.5t-37.5 27.5q-8 8 -17 17.5t-20 20.5q-34 -24 -75.5 -37t-87.5 -13q-49 0 -94 14t-84 39
q-6 -6 -11 -11.5t-10 -10.5l-19 -19q-17 -16 -37.5 -27.5t-52.5 -10.5q-24 1 -43 7.5t-30 21.5q-10 18 3.5 31t48.5 27q19 8 35.5 20.5t29.5 24.5l15 14q-30 36 -46 81.5t-16 96.5q0 48 16 92t45 81l-14 13q-13 12 -29.5 24t-35.5 21q-35 13 -48.5 26.5t-3.5 31.5
q11 14 30 20.5t43 8.5q32 0 52.5 -11.5t37.5 -26.5q9 -9 18.5 -19t20.5 -21q38 26 83 40.5t96 14.5q48 0 89 -13.5t76 -37.5q10 9 18.5 18t16.5 18q17 15 37.5 26.5t53.5 11.5q23 -2 42.5 -8.5t30.5 -20.5q9 -18 -4 -31.5t-48 -26.5q-20 -9 -36.5 -21t-28.5 -24l-12 -12
q25 -37 39.5 -81.5t14.5 -92.5zM590 290q0 42 -14 80.5t-38 66.5q-25 29 -58.5 46t-73.5 17q-45 0 -83.5 -17t-66.5 -45q-28 -29 -43.5 -67t-15.5 -81q0 -45 15.5 -84t43.5 -68t66.5 -45.5t83.5 -16.5q40 0 73.5 16.5t58.5 46.5q24 29 38 67.5t14 83.5z" />
    <glyph glyph-name="yen" unicode="&#xa5;" horiz-adv-x="649" 
d="M161 333q29 0 58.5 0.5t58.5 2.5q-20 24 -39.5 50t-38.5 52q-11 15 -22 29t-21 28q-9 11 -17.5 21.5t-15.5 20.5h1q-19 24 -46 42h2q-10 4 -18.5 8.5t-16.5 8.5q-10 7 -16.5 14t-6.5 15t9.5 19t34.5 11q34 0 68.5 -10.5t63.5 -45.5q6 -10 14 -20t16 -21q6 -8 21 -29.5
t32 -46t32.5 -46t21.5 -30.5q36 45 69 87t56 73q5 8 11 20t10 23q0 5 -1.5 14.5t-3.5 17.5l-1 2q-8 19 -8 32q0 12 4 18t21 6q16 0 40 -24q11 -10 19 -22.5t13 -23.5q4 -8 7 -19.5t3 -22.5q0 -14 -4.5 -29.5t-15.5 -28.5q-32 -39 -70 -85.5t-83 -98.5q8 1 13 1.5t12 1.5
q11 2 20.5 3t19.5 2q19 2 37 3.5t32 1.5q15 0 29 -4t25 -10.5t18 -15.5t7 -20q0 -23 -16 -31.5t-34 -8.5q-10 0 -21.5 1t-19.5 2q-20 5 -35 5q-17 0 -36 -0.5t-39 -1.5q-11 0 -17.5 -0.5t-16.5 -0.5v-47q19 2 40 4t40 5q2 0 3.5 0.5t3.5 0.5q18 2 36 3.5t32 1.5q15 0 29 -4
t25 -10.5t18 -15.5t7 -20q0 -23 -16 -32t-34 -9q-10 0 -21.5 1t-19.5 3q-20 5 -35 5q-17 0 -36 -0.5t-38 -1.5q-9 0 -17.5 -0.5t-16.5 -0.5q0 -18 0.5 -31t1.5 -23v-5q1 -4 1 -9t1 -8q1 -4 1.5 -7t0.5 -8q0 -38 -13 -53.5t-37 -15.5q-26 0 -36.5 12t-10.5 35v107
q-23 -2 -44.5 -4.5t-42.5 -4.5q-8 -1 -17 -2t-17 -2h-10q-4 -2 -11 -2q-16 -2 -25 2h1q-19 7 -37 18.5t-31 25.5t-9 26t24 12q42 -3 93 -3q32 0 62.5 0.5t63.5 2.5v49q-19 -2 -36.5 -4.5t-35.5 -4.5q-12 -2 -24.5 -2.5t-23.5 -2.5q-2 0 -5 -0.5t-5 -0.5q-4 -2 -12 -2
q-7 0 -13 0.5t-11 3.5h1q-22 9 -39.5 19.5t-28.5 22.5q-15 14 -11 26.5t26 12.5q40 -3 90 -3z" />
    <glyph glyph-name="brokenbar" unicode="&#xa6;" horiz-adv-x="240" 
d="M91 27v25.5t-1 40.5q-1 26 -1.5 49t-0.5 33q0 50 14 65t39 15q14 0 22 -6.5t12.5 -16.5t5.5 -21.5t1 -20.5v-252q0 -19 -12 -29.5t-32 -10.5q-24 0 -35.5 10t-11.5 26v93zM91 479q0 30 -3 66q-2 27 -3 44q0 5 -0.5 9.5t-0.5 9.5q-1 5 -1.5 10.5t-1.5 10.5q-1 3 -1.5 6.5
t-2.5 5.5q-5 5 -10 11t-10 14v-1l-7 10.5t-3 11.5t7 12t20 5t34 -5.5t38 -19.5q36 -30 36 -66v-223q0 -20 -12 -30t-32 -10q-24 0 -35.5 9.5t-11.5 26.5v93z" />
    <glyph glyph-name="section" unicode="&#xa7;" horiz-adv-x="543" 
d="M365 218q13 -7 28 -18t28 -27q13 -15 22 -36t9 -47q0 -27 -14 -51t-37 -42q-24 -18 -55.5 -28t-67.5 -10q-28 0 -56 8.5t-53 23.5q-25 14 -47 32.5t-37 37.5q-9 10 -9 19.5t6 15.5t15 7t17 -6q16 -16 35 -29.5t39.5 -23t41 -15t38.5 -5.5q33 0 56 18t23 46q0 35 -19 54.5
t-67 40.5q-23 7 -48.5 19t-47.5 29q-21 17 -35 40t-13 54q0 15 6.5 36t23.5 40q16 19 44 32.5t70 14.5h-35q-7 2 -22.5 11t-31.5 24q-16 16 -28.5 38.5t-11.5 52.5q0 15 6.5 36t22.5 40q17 19 44.5 32.5t69.5 14.5q36 0 68.5 -17t51.5 -41q0 -1 -0.5 1t-0.5 12q0 6 -0.5 13
t0.5 13t4 10.5t10 4.5q10 0 19.5 -8t17 -21t11.5 -29.5t4 -32.5q0 -24 -12.5 -35.5t-31.5 -11.5q-20 0 -46 18q-12 7 -23 16t-21 16q-28 19 -46 19q-22 0 -36 -15t-14 -34q0 -28 23 -46.5t74 -38.5q25 -11 50 -24t45 -31q19 -18 31.5 -42t12.5 -55q0 -44 -33 -78
q-31 -33 -68 -42zM361 335q-3 30 -31 39t-64 1q-20 -4 -37 -17.5t-14 -30.5q1 -11 4 -20t10.5 -16.5t21 -12t34.5 -5.5q32 -2 55.5 16.5t20.5 45.5z" />
    <glyph glyph-name="dieresis" unicode="&#xa8;" horiz-adv-x="1024" 
d="M324 695q-4 26 10.5 42.5t40.5 16.5q9 0 21.5 -2t24.5 -9q11 -6 18 -19t4 -34q-4 -30 -20.5 -52.5t-40.5 -22.5q-27 0 -40.5 22.5t-17.5 57.5zM582 695q-3 26 11 42.5t40 16.5q9 0 21.5 -2t24.5 -9q11 -6 18 -19t4 -34q-4 -30 -20.5 -52.5t-40.5 -22.5q-27 0 -40.5 22.5
t-17.5 57.5z" />
    <glyph glyph-name="copyright" unicode="&#xa9;" horiz-adv-x="1024" 
d="M975 287q0 -97 -36.5 -180.5t-99.5 -146.5t-146.5 -99t-179.5 -36q-97 0 -180.5 36t-146.5 99t-99 146.5t-36 180.5q0 96 36 179.5t99 146.5t146.5 99.5t180.5 36.5q96 0 179.5 -36.5t146.5 -99.5t99.5 -146.5t36.5 -179.5zM910 288q0 82 -31.5 154.5t-85.5 126.5
t-126 86t-154 32q-84 0 -155.5 -32t-125.5 -86t-85 -126.5t-31 -154.5t31 -154.5t85 -127.5q54 -54 125.5 -85.5t155.5 -31.5q82 0 154 31.5t126 85.5q54 55 85.5 127.5t31.5 154.5zM366 284q-2 -95 45 -152q23 -28 56 -42t66 -14q29 0 55 7t48.5 18.5t41.5 26.5t33 30
q9 11 19 -5q9 -14 -7 -35q-13 -17 -31.5 -36t-44.5 -35q-25 -16 -55 -26t-66 -10q-62 0 -108 23.5t-76 61.5q-32 38 -47.5 87.5t-14.5 100.5q0 61 20.5 111t53.5 85t74.5 54t83.5 20q41 0 82 -21q20 -11 35 -21t24 -20q4 -7 11.5 -2.5t7.5 18.5q0 11 2.5 24.5t9.5 13.5
q22 0 34 -31q5 -17 7.5 -32t4.5 -31q0 -23 -12.5 -33.5t-22.5 -10.5q-8 -1 -19 5t-24 15q-14 10 -27.5 19t-27.5 17q-17 9 -40.5 13t-43.5 4q-22 0 -50.5 -10.5t-48.5 -34.5q-20 -23 -34 -60.5t-14 -91.5z" />
    <glyph glyph-name="ordfeminine" unicode="&#xaa;" horiz-adv-x="492" 
d="M163 477q0 -26 17 -43t56 -17q22 0 44.5 5.5t38.5 16.5v76q-23 8 -47 13t-47 5q-31 0 -46.5 -17t-15.5 -39zM321 378q-21 -12 -46 -21t-49 -9q-33 0 -61.5 9t-49.5 26t-33 40t-12 52q0 24 10.5 46t29.5 38.5t46 26t60 9.5q26 -1 53 -7t50 -14q-2 46 -23 71t-48 25
q-17 0 -30.5 -5.5t-26.5 -12.5q-14 -7 -30.5 -12.5t-38.5 -5.5q-15 0 -22 5.5t-9 14.5q-2 8 1.5 16.5t10.5 13.5q16 12 30.5 24t31.5 22q16 10 35.5 16t47.5 6q33 0 62 -15t50 -40q22 -25 34.5 -56t12.5 -64l1 -181q0 -21 -13 -34.5t-30 -13.5t-29 9t-15 21zM86 232
q-12 4 -30.5 16.5t-28.5 28.5q-11 12 -5.5 24t22.5 12q48 -2 109.5 0t121.5 7q17 1 34 3.5t34 5.5q16 3 31 5.5t28 2.5q15 0 30 -4t27 -11.5t19.5 -17.5t7.5 -22q0 -18 -15.5 -28t-33.5 -10q-14 0 -25.5 1t-23.5 3q-11 1 -22 2.5t-21 1.5q-48 0 -108 -7t-114 -15
q-5 -1 -9.5 -2t-8.5 -1q-10 0 -19 5z" />
    <glyph glyph-name="guillemotleft" unicode="&#xab;" horiz-adv-x="645" 
d="M270 476q2 17 5.5 25t14.5 8q8 0 16.5 -7t15 -18.5t11 -26.5t4.5 -30q0 -11 -15.5 -26.5t-50.5 -40.5q-23 -16 -46.5 -34t-39.5 -33q-13 -13 -4 -21q13 -14 30.5 -28.5t37 -28t40 -26t39.5 -22.5q20 -11 27.5 -24.5t2.5 -25.5q-3 -8 -10.5 -13t-17 -7t-19 -0.5t-16.5 6.5
q-39 22 -82.5 52.5t-78.5 63.5q-16 14 -25 30.5t-9 35.5q0 10 5.5 21t13.5 20q14 15 32 31t38 31q23 17 42 33.5t29 28.5q9 12 10 26zM515 476q2 17 5.5 25t14.5 8q8 0 16.5 -7t15 -18.5t11 -26.5t4.5 -30q0 -11 -15 -27t-51 -40q-24 -16 -46.5 -32.5t-39.5 -31.5
q-13 -13 -4 -21q13 -14 30.5 -29t37 -29t40 -27t39.5 -23q20 -11 27.5 -24.5t2.5 -25.5q-3 -8 -10.5 -13t-17 -7t-19 -0.5t-16.5 6.5q-39 22 -82.5 54t-78.5 65q-16 14 -25 30.5t-9 35.5q0 22 19 41q14 14 32.5 29.5t37.5 29.5q50 36 71 62q9 12 10 26z" />
    <glyph glyph-name="logicalnot" unicode="&#xac;" horiz-adv-x="771" 
d="M571 127l5 129q1 21 0 44t-3 49q-1 14 -2 27t-3 25q-37 0 -93.5 -2.5t-115 -5.5t-111 -7t-82.5 -8q-14 -2 -25.5 -1.5t-19.5 2.5q-21 6 -39.5 19.5t-32.5 28.5q-12 11 -7 25t23 13q27 -2 60.5 -2.5t69.5 -0.5q39 0 83 1t87.5 3.5t84.5 5.5t74 7q28 4 54.5 6.5t44.5 2.5
q13 0 27 -5t25.5 -12.5t18.5 -17.5t7 -20q0 -17 -10.5 -27t-24.5 -13q3 -63 2.5 -129t-5.5 -132q-2 -21 -8.5 -35t-24.5 -14q-24 0 -41.5 13t-17.5 31z" />
    <glyph glyph-name="uni00AD" unicode="&#xad;" horiz-adv-x="506" 
d="M124 289q-12 5 -30.5 18t-28.5 28q-10 14 -5 25.5t22 11.5q24 -1 49.5 -0.5t51.5 1.5q25 1 51 2.5t50 3.5q15 1 28 4t24 6q12 3 22.5 5.5t21.5 2.5q15 0 30 -4.5t27 -12.5t19.5 -18.5t7.5 -22.5q0 -17 -16 -27t-33 -10q-14 0 -25.5 1t-23.5 3q-25 5 -42 5
q-24 0 -42.5 -2.5t-36.5 -5.5t-37.5 -7.5t-46.5 -8.5q-5 0 -9 -1t-9 -1q-4 0 -9 0.5t-10 3.5z" />
    <glyph glyph-name="registered" unicode="&#xae;" horiz-adv-x="1024" 
d="M348 54q0 8 -0.5 23.5t-1.5 34.5q-1 18 -2.5 36.5t-1.5 33.5q-1 25 -2.5 60t-2.5 73q-1 37 -2 72.5t-1 61.5q-1 14 -5 27.5t-7 20.5q-7 8 -13 15t-11 13q-10 10 -10 20t16 10q17 0 39.5 -8t37.5 -22q13 -16 22.5 -31.5t9.5 -39.5q-1 -26 -2 -63.5t-1 -79.5
q30 -10 65.5 -13t65.5 -3q21 0 40.5 7.5t34.5 21t23.5 31t8.5 37.5q0 48 -25.5 74t-77.5 26q-20 0 -36 -6t-30 -12q-13 -7 -23.5 -12t-18.5 -4q-14 1 -20 15.5t-3 26.5q1 10 15 20.5t34 17.5q20 8 44 12.5t46 4.5q42 -1 75 -14.5t55 -36.5q23 -23 34.5 -52.5t11.5 -61.5
q0 -24 -9.5 -46.5t-26.5 -41.5t-41.5 -32.5t-54.5 -19.5q28 -24 56.5 -52t47.5 -54q19 -27 33.5 -51t14.5 -40q0 -17 -13 -25.5t-30 -7.5q-13 0 -24.5 13t-17.5 31q-10 19 -24 43.5t-29 50.5q-16 25 -32.5 48t-31.5 39h-1q-29 0 -67 8t-69 23q-1 -30 -1 -56.5v-48.5
q0 -11 -1 -25t-3 -27.5t-4 -26t-4 -19.5t-7.5 -17.5t-12.5 -19.5q-6 -10 -14 -17t-14 -7q-8 0 -6 8q2 6 3 14.5t2 19.5zM975 287q0 -97 -36.5 -180.5t-99.5 -146.5t-146.5 -99t-179.5 -36q-97 0 -180.5 36t-146.5 99t-99 146.5t-36 180.5q0 96 36 179.5t99 146.5t146.5 99.5
t180.5 36.5q96 0 179.5 -36.5t146.5 -99.5t99.5 -146.5t36.5 -179.5zM910 288q0 82 -31.5 154.5t-85.5 126.5t-126 86t-154 32q-84 0 -155.5 -32t-125.5 -86t-85 -126.5t-31 -154.5t31 -154.5t85 -127.5q54 -54 125.5 -85.5t155.5 -31.5q82 0 154 31.5t126 85.5
q54 55 85.5 127.5t31.5 154.5z" />
    <glyph glyph-name="macron" unicode="&#xaf;" horiz-adv-x="1024" 
d="M69 673q-20 8 -36.5 24t-26.5 31q-8 13 -4.5 22.5t21.5 6.5q14 -2 31 -3.5t33 -1.5q91 -2 191.5 -1t197 3t184.5 5.5t154 7.5q27 2 57.5 9.5t56.5 7.5q17 0 34 -4t31 -11.5t22.5 -17t8.5 -21.5q0 -17 -14.5 -28t-40.5 -11q-23 0 -47.5 4t-45.5 4q-87 0 -188 -2.5
t-202.5 -6.5t-198 -9.5t-174.5 -11.5q-13 -1 -25 0t-19 4z" />
    <glyph glyph-name="degree" unicode="&#xb0;" 
d="M387 628q0 -57 -37 -94q-38 -38 -91 -38q-28 0 -52.5 10t-43.5 28t-29.5 42t-10.5 52q0 26 10.5 49.5t29.5 40.5q19 18 43.5 28.5t52.5 10.5q53 0 91 -39q37 -37 37 -90zM332 628q0 33 -20 57.5t-53 24.5q-35 0 -58 -24.5t-23 -57.5q0 -36 23 -60.5t58 -24.5
q33 0 53 24.5t20 60.5z" />
    <glyph glyph-name="plusminus" unicode="&#xb1;" horiz-adv-x="550" 
d="M110 356q-12 5 -28.5 17.5t-25.5 28.5q-9 13 -5 24.5t21 11.5q28 -1 72.5 -0.5t89.5 2.5q-1 11 -1.5 21.5t-0.5 20.5q-1 10 -1.5 18t-0.5 15l-2 14l-2 14q-1 6 -2 13t-2 13q-1 3 -3 7.5t-3 9.5q-4 9 -4 24q0 6 8 14t19 8q14 0 31.5 -8t27.5 -20q14 -16 22.5 -38t8.5 -43
v-77q14 1 28.5 4t27.5 6q14 2 26 4.5t23 2.5q13 0 27 -4.5t25 -12t18 -18t7 -22.5q0 -17 -15 -27t-30 -10q-12 0 -23 1t-21 3q-10 1 -19.5 2.5t-19.5 1.5q-6 0 -12.5 -0.5t-13.5 -0.5q-6 0 -13.5 -0.5t-14.5 -0.5v-161q0 -21 -12.5 -34.5t-31.5 -13.5q-23 0 -35 13t-12 31
v157q-27 -3 -51.5 -6.5t-43.5 -6.5q-5 -1 -9 -2l-8 -2q-10 0 -16 6zM110 58q-12 5 -28.5 17.5t-25.5 28.5q-9 13 -5 24.5t21 11.5q21 -2 52.5 -1.5t65.5 1.5q35 1 68.5 2.5t60.5 4.5q15 1 30.5 4t30.5 6t28.5 5.5t25.5 2.5q13 0 27 -4.5t25 -12.5t18 -18t7 -22
q0 -17 -15 -27t-30 -10q-12 0 -23 1t-21 3q-10 1 -19.5 2.5t-19.5 1.5q-23 0 -54 -2t-64 -5q-34 -4 -66 -8t-56 -8q-5 -1 -9 -2l-8 -2q-10 0 -16 6z" />
    <glyph glyph-name="uni00B2" unicode="&#xb2;" 
d="M301 530q0 34 -14.5 50.5t-35.5 17.5q-24 0 -38.5 -6t-24.5 -12q-10 -7 -18 -13t-18 -5q-19 0 -25.5 4t-5.5 10q0 6 5 12.5t9 11.5q6 8 16.5 19.5t25.5 22.5q14 10 32.5 17t42.5 7q57 0 87.5 -38.5t30.5 -95.5q0 -26 -15 -55t-38 -58t-52.5 -56.5t-57.5 -48.5
q12 1 25.5 2.5t26.5 2.5q15 1 25.5 3.5t18.5 4.5q9 2 17.5 4t20.5 2q20 0 36 -12t16 -27q0 -13 -9 -22t-25 -9q-7 0 -13 1l-12 2q-7 1 -14 2.5t-15 1.5q-20 0 -33.5 -1.5t-26.5 -3.5t-27 -4t-33 -4q-6 -2 -13.5 -2.5t-12.5 2.5q-9 4 -18 12.5t-15 17.5q-9 9 -3 18t18 8
q2 0 4.5 -0.5t6.5 -0.5q25 24 51.5 51.5t47.5 56.5q22 28 35.5 56t14.5 54z" />
    <glyph glyph-name="uni00B3" unicode="&#xb3;" 
d="M307 562q0 18 -14 29.5t-36 12.5q-23 0 -38 -6.5t-27 -14.5q-11 -7 -20.5 -13.5t-19.5 -6.5q-28 0 -26 14t12 23q13 21 45 45q31 25 76 25q56 0 87 -34q31 -32 31 -73q0 -23 -18.5 -43.5t-45.5 -32.5q31 -15 54.5 -43t23.5 -68q0 -27 -11.5 -49t-29.5 -38
q-19 -15 -42.5 -23.5t-48.5 -8.5q-42 0 -74 13.5t-55 31.5q-16 15 -5 26t20 6q20 -12 44 -20.5t52 -8.5q35 0 60.5 19t25.5 57q0 23 -18 47q-17 24 -62 24q-4 0 -8 -0.5t-9 -0.5h-17q-6 0 -15.5 3.5t-9.5 21.5q0 6 6.5 13t12.5 10q3 0 11 1t18 1h2q30 4 49.5 20t19.5 41z
" />
    <glyph glyph-name="acute" unicode="&#xb4;" 
d="M162 519q-7 -2 -14.5 1t-10.5 10q-4 6 -3 14t12 16q18 15 38 38t36 47q6 9 11 20t11 22q5 11 10.5 20.5t14.5 15.5q37 18 48 21.5t11 -0.5q-1 -3 -8 -8.5t-5 -5.5q9 0 18 -19.5t9 -41.5q0 -10 -6.5 -22t-15.5 -24t-19 -22t-17 -15q-24 -21 -56 -39.5t-64 -27.5z" />
    <glyph glyph-name="mu" unicode="&#xb5;" horiz-adv-x="604" 
d="M50 -114q6 19 15.5 62t24.5 112q6 28 13 63t13 71q6 37 9.5 72.5t3.5 67.5q-2 36 -14 53q-8 10 -16 19t-15 17q-6 7 -10.5 14.5t-4.5 15.5q0 7 7.5 13t19.5 6q22 0 47.5 -11.5t45.5 -27.5q20 -18 30.5 -40t10.5 -54q-2 -51 -14.5 -118t-30.5 -139q0 -1 3 -4l2 -2t3 -2
q9 -15 17.5 -21t27.5 -6q18 0 39.5 14t42.5 37q20 23 37.5 52t26.5 58q5 35 8.5 66.5t5.5 58.5q0 17 -4.5 31t-10.5 23q-8 10 -16 18.5t-15 16.5q-6 7 -10.5 14.5t-4.5 15.5q0 7 7.5 13t19.5 6q22 0 47 -11.5t46 -27.5q19 -18 30.5 -40t10.5 -54q-3 -39 -12 -85.5
t-21 -106.5q-12 -58 -1 -75q10 -16 29 -16q15 0 26 12t24 33q5 10 12.5 11t13.5 -4q5 -6 8 -16.5t0 -23.5q-5 -14 -13.5 -30.5t-21.5 -29.5q-14 -14 -32 -21.5t-42 -3.5q-12 1 -26.5 5t-27.5 13q-14 9 -24.5 24.5t-15.5 39.5q-27 -45 -60 -72.5t-69 -27.5q-32 0 -52.5 16.5
t-27.5 28.5q-11 -30 -24 -66q-14 -36 -21 -51q-12 -25 -35 -47t-44 -23q-11 0 -12.5 7t-0.5 12q1 4 4 9.5t7 11.5l6 12t5 12z" />
    <glyph glyph-name="paragraph" unicode="&#xb6;" horiz-adv-x="627" 
d="M525 697v-912h-68v840h-83v-840h-72v468h-9q-43 -1 -86 12.5t-77 40.5q-35 28 -56.5 70.5t-21.5 100.5q0 54 18 95t50 69q31 27 72.5 41.5t87.5 14.5h245z" />
    <glyph glyph-name="periodcentered" unicode="&#xb7;" horiz-adv-x="1024" 
d="M453 295q-3 27 10.5 43.5t40.5 16.5q8 0 20.5 -2t23.5 -9t18 -19.5t4 -33.5q-4 -30 -20 -52.5t-39 -22.5q-27 0 -40.5 23t-17.5 56z" />
    <glyph glyph-name="cedilla" unicode="&#xb8;" 
d="M201 -111q-16 -2 -21.5 5t-4.5 17t5.5 21t9.5 20q6 10 12.5 24t5.5 19q-5 9 -11 16q-6 10 -6 20q0 6 6.5 10.5t15.5 4.5q6 0 16.5 -2t21.5 -5.5t21.5 -9t17.5 -11.5q11 -13 9 -31t-24 -45q-2 -4 -4 -5t-2 -3q34 -9 59.5 -34.5t25.5 -56.5q-2 -55 -45 -80q-43 -26 -99 -23
q-9 1 -22 5.5t-19 7.5q-11 7 -20 16t-6 20q3 8 7.5 11t9.5 4q5 0 10.5 -1t10.5 -1q6 -1 17 -1t18 1q18 2 31.5 12.5t16.5 34.5q1 12 -10 25.5t-29 19.5q-3 0 -3 2q-6 -3 -11 -5t-10 -2z" />
    <glyph glyph-name="uni00B9" unicode="&#xb9;" 
d="M234 602q-2 5 -3 2.5t-7 -8.5q-4 -3 -9 -5.5t-9 -2.5q-9 0 -21 6t-18 12q-5 5 -4 15t10 13q3 1 7.5 3t9.5 4q4 2 9 5t10 7q4 4 12 10t17 6q8 0 19 -4.5t21 -11.5t17.5 -16.5t7.5 -19.5q0 -70 -2 -130t-6 -97q-2 -18 -4 -35.5t-5 -30.5q4 1 9 2t9 3q5 1 9.5 2t9.5 1
q4 0 10.5 -2.5t13 -7t11 -10.5t4.5 -14q0 -11 -9.5 -19t-15.5 -8q-8 0 -13 1q-10 2 -14 2q-20 0 -46 -2t-47 -8q-12 -5 -20 0t-17.5 13t-13.5 15q-4 8 -1.5 16.5t8.5 8.5q15 0 34 0.5t37 1.5q0 13 -0.5 26.5t-0.5 28.5q0 14 -0.5 29t-0.5 30q-1 20 -1.5 47.5t-1.5 52.5
q-1 26 -2.5 45t-2.5 24z" />
    <glyph glyph-name="ordmasculine" unicode="&#xba;" horiz-adv-x="492" 
d="M89 232q-12 4 -30.5 16.5t-28.5 28.5q-11 12 -5.5 24t22.5 12q48 -2 110 0t122 7q16 1 33.5 3.5t33.5 5.5q17 3 32 5.5t28 2.5q15 0 30 -4t26.5 -11.5t19 -17.5t7.5 -22q0 -18 -16 -28t-33 -10q-28 0 -48 4q-12 1 -23 2.5t-21 1.5q-48 0 -108 -7t-114 -15q-5 -1 -9.5 -2
t-8.5 -1q-10 0 -19 5zM54 558q0 37 14 73t40 63q27 28 63.5 45t81.5 17q33 0 65.5 -14.5t58.5 -41.5q25 -26 41.5 -63.5t16.5 -82.5q0 -43 -16 -80t-42 -64t-59.5 -42.5t-67.5 -15.5q-33 0 -68 11.5t-63 37.5q-29 25 -47 64t-18 93zM144 562q0 -70 30 -100.5t75 -30.5
q31 0 61 30q31 31 31 94q0 28 -8.5 51t-21.5 39t-29.5 24.5t-32.5 8.5q-45 0 -75 -35t-30 -81z" />
    <glyph glyph-name="guillemotright" unicode="&#xbb;" horiz-adv-x="645" 
d="M375 476q1 -14 10 -26q10 -12 29 -28.5t42 -33.5q20 -15 38 -31t32 -31q8 -9 13.5 -20t5.5 -21q0 -19 -9 -35.5t-25 -30.5q-35 -33 -78.5 -63.5t-82.5 -52.5q-7 -5 -16.5 -6.5t-19 0.5t-17 7t-10.5 13q-5 12 2.5 25.5t27.5 24.5q19 10 39.5 22.5t40 26t37 28t30.5 28.5
q8 8 -4 21q-16 15 -39.5 33t-46.5 34q-35 25 -50.5 40.5t-15.5 26.5q0 15 4.5 30t11 26.5t15 18.5t16.5 7q11 0 14.5 -8t5.5 -25zM130 476q1 -14 10 -26q21 -26 71 -62q19 -14 37.5 -29.5t32.5 -29.5q19 -19 19 -41q0 -19 -9 -35.5t-25 -30.5q-35 -33 -78.5 -65t-82.5 -54
q-7 -5 -16.5 -6.5t-19 0.5t-17 7t-10.5 13q-5 12 2.5 25.5t27.5 24.5q19 10 39.5 23t40 27t37 29t30.5 29q8 8 -4 21q-17 15 -39.5 31.5t-46.5 32.5q-36 24 -51 40t-15 27q0 15 4.5 30t11 26.5t15 18.5t16.5 7q11 0 14.5 -8t5.5 -25z" />
    <glyph glyph-name="onequarter" unicode="&#xbc;" horiz-adv-x="1024" 
d="M304 -47q17 26 40.5 63.5t48.5 76.5l46.5 77.5t37.5 63.5q7 12 18 30.5t24.5 41.5t28 49t29.5 53t28.5 52.5t24.5 47.5t18 39t9 28q1 8 0.5 16t-1.5 16t-2 15.5t0 16.5q6 24 21 24q29 -6 47 -43q18 -38 11 -83q-1 -5 -7.5 -18t-16.5 -31.5t-23 -41.5t-28 -48
q-15 -24 -30 -49t-29.5 -48.5t-27 -43t-21.5 -33.5q-22 -37 -47 -78.5t-51 -81.5q-25 -42 -50.5 -79t-47.5 -67q-9 -12 -21.5 -13t-21.5 5q-10 7 -13 18.5t6 24.5zM255 602q-2 5 -3 2t-8 -8q-4 -3 -9 -5.5t-10 -2.5q-9 0 -20.5 6t-17.5 12q-6 5 -4.5 15t11.5 13q7 3 16 7
t18 12q3 2 6.5 4.5t6.5 5.5l8 4t9 2q8 0 19 -4.5t21 -11.5t17.5 -16.5t7.5 -19.5q0 -70 -2 -130t-7 -97q-2 -18 -4 -35.5t-4 -30.5q4 1 8.5 2t9.5 3l10 2t9 1t11 -2.5t13.5 -7t11 -10.5t4.5 -14q0 -11 -10 -19t-16 -8q-8 0 -13 1q-10 2 -14 2q-20 0 -46.5 -2t-45.5 -8
q-14 -5 -22 0q-3 2 -7.5 5.5t-8.5 7.5t-8 7.5t-6 7.5q-4 8 -1.5 16.5t9.5 8.5q14 0 32.5 0.5t36.5 1.5q0 13 -0.5 26.5t-0.5 28.5q0 14 -0.5 29t-0.5 30q0 20 -1 47.5t-1 52.5q-1 26 -2 45t-2 24zM768 -104v80q-13 -1 -24 -2.5t-22 -2.5q-11 -2 -23 -4t-26 -4q-8 -2 -13 -2
h-7.5t-7.5 2t-8.5 5t-8.5 7t-8.5 8t-7.5 10q-7 7 -1 18q0 5 7 12q3 4 9 10q8 9 21.5 26t22.5 28q7 11 17 26t20 32q10 16 18.5 31t14.5 27q1 4 3.5 8.5t4.5 9.5q1 4 2.5 7l2.5 5l-8 8t-7 9q-6 7 -6 18q0 4 4 9.5t13 5.5q11 0 27.5 -7t28.5 -18q9 -13 16.5 -28.5t7.5 -27.5
v-165h11q19 0 35.5 -11.5t16.5 -26.5q0 -14 -9.5 -21t-24.5 -7q-10 0 -15 1q-3 0 -6.5 1t-7.5 2v-75q0 -12 -8.5 -22t-20.5 -10q-15 0 -24 8t-9 20zM768 27q0 11 -0.5 24t-0.5 27v55q-8 -10 -15.5 -20.5t-15.5 -21.5q-7 -10 -14.5 -20t-13.5 -17q-4 -5 -8.5 -9.5l-8.5 -8.5
l-9.5 -9.5t-7.5 -8.5q8 0 17 0.5t19 1.5l18 2l18 2q6 0 11.5 1t10.5 2z" />
    <glyph glyph-name="onehalf" unicode="&#xbd;" horiz-adv-x="1024" 
d="M304 -47q17 26 40.5 63.5t48.5 76.5l46.5 77.5t37.5 63.5q7 12 18 30.5t24.5 41.5t28 49t29.5 53t28.5 52.5t24.5 47.5t18 39t9 28q1 8 0.5 16t-1.5 16t-2 15.5t0 16.5q6 24 21 24q29 -6 47 -43q18 -38 11 -83q-1 -5 -7.5 -18t-16.5 -31.5t-23 -41.5t-28 -48
q-15 -24 -30 -49t-29.5 -48.5t-27 -43t-21.5 -33.5q-22 -37 -47 -78.5t-51 -81.5q-25 -42 -50.5 -79t-47.5 -67q-9 -12 -21.5 -13t-21.5 5q-10 7 -13 18.5t6 24.5zM255 602q-2 5 -3 2t-8 -8q-4 -3 -9 -5.5t-10 -2.5q-9 0 -20.5 6t-17.5 12q-6 5 -4.5 15t11.5 13q7 3 16 7
t18 12q3 2 6.5 4.5t6.5 5.5l8 4t9 2q8 0 19 -4.5t21 -11.5t17.5 -16.5t7.5 -19.5q0 -70 -2 -130t-7 -97q-2 -18 -4 -35.5t-4 -30.5q4 1 8.5 2t9.5 3l10 2t9 1t11 -2.5t13.5 -7t11 -10.5t4.5 -14q0 -11 -10 -19t-16 -8q-8 0 -13 1q-10 2 -14 2q-20 0 -46.5 -2t-45.5 -8
q-14 -5 -22 0q-3 2 -7.5 5.5t-8.5 7.5t-8 7.5t-6 7.5q-4 8 -1.5 16.5t9.5 8.5q14 0 32.5 0.5t36.5 1.5q0 13 -0.5 26.5t-0.5 28.5q0 14 -0.5 29t-0.5 30q0 20 -1 47.5t-1 52.5q-1 26 -2 45t-2 24zM812 142q0 34 -14.5 51t-35.5 18q-24 0 -38.5 -6t-24.5 -12q-10 -7 -18 -13
t-18 -5q-19 0 -25.5 4t-5.5 10q0 6 5 12.5t9 11.5q6 8 16.5 19.5t24.5 22.5q15 10 33.5 17t42.5 7q57 0 87.5 -39t30.5 -96q0 -25 -15 -54t-38 -58t-52.5 -56.5t-57.5 -48.5q12 1 25.5 2.5t25.5 2.5q15 1 25.5 3t19.5 5q8 2 17 3.5t21 1.5q20 0 36 -11.5t16 -26.5
q0 -32 -35 -32q-6 0 -12 0.5t-12 2.5l-14 2t-16 1q-20 0 -33.5 -1.5t-26.5 -2.5q-12 -2 -26 -4t-33 -4q-6 -2 -13.5 -2.5t-13.5 2.5q-9 4 -17.5 12t-14.5 18q-9 9 -3 18.5t18 8.5q2 0 4.5 -0.5t6.5 -0.5q25 24 51.5 51.5t47.5 56.5q22 28 35.5 56t14.5 53z" />
    <glyph glyph-name="threequarters" unicode="&#xbe;" horiz-adv-x="1024" 
d="M304 -47q17 26 40.5 63.5t48.5 76.5l46.5 77.5t37.5 63.5q7 12 18 30.5t24.5 41.5t28 49t29.5 53t28.5 52.5t24.5 47.5t18 39t9 28q1 8 0.5 16t-1.5 16t-2 15.5t0 16.5q6 24 21 24q29 -6 47 -43q18 -38 11 -83q-1 -5 -7.5 -18t-16.5 -31.5t-23 -41.5t-28 -48
q-15 -24 -30 -49t-29.5 -48.5t-27 -43t-21.5 -33.5q-22 -37 -47 -78.5t-51 -81.5q-25 -42 -50.5 -79t-47.5 -67q-9 -12 -21.5 -13t-21.5 5q-10 7 -13 18.5t6 24.5zM768 -104v80q-13 -1 -24 -2.5t-22 -2.5q-11 -2 -23 -4t-26 -4q-8 -2 -13 -2h-7.5t-7.5 2t-8.5 5t-8.5 7
t-8.5 8t-7.5 10q-7 7 -1 18q0 5 7 12q3 4 9 10q8 9 21.5 26t22.5 28q7 11 17 26t20 32q10 16 18.5 31t14.5 27q1 4 3.5 8.5t4.5 9.5q1 4 2.5 7l2.5 5l-8 8t-7 9q-6 7 -6 18q0 4 4 9.5t13 5.5q11 0 27.5 -7t28.5 -18q9 -13 16.5 -28.5t7.5 -27.5v-165h11q19 0 35.5 -11.5
t16.5 -26.5q0 -14 -9.5 -21t-24.5 -7q-10 0 -15 1q-3 0 -6.5 1t-7.5 2v-75q0 -12 -8.5 -22t-20.5 -10q-15 0 -24 8t-9 20zM768 27q0 11 -0.5 24t-0.5 27v55q-8 -10 -15.5 -20.5t-15.5 -21.5q-7 -10 -14.5 -20t-13.5 -17q-4 -5 -8.5 -9.5l-8.5 -8.5l-9.5 -9.5t-7.5 -8.5
q8 0 17 0.5t19 1.5l18 2l18 2q6 0 11.5 1t10.5 2zM327 562q0 18 -14 29.5t-37 12.5q-23 0 -38 -6.5t-26 -14.5q-11 -7 -20.5 -13.5t-20.5 -6.5q-27 0 -25 14q1 13 13 23q12 22 43 45q31 25 77 25q56 0 87 -34q31 -32 31 -73q0 -23 -17.5 -43.5t-45.5 -32.5q31 -15 54.5 -43
t23.5 -68q0 -27 -11.5 -49t-30.5 -38q-19 -15 -42.5 -23.5t-48.5 -8.5q-43 0 -74.5 13.5t-53.5 31.5q-9 7 -9 14t4 12q3 4 9 6t10 0q21 -12 44 -20.5t52 -8.5q35 0 60.5 19t25.5 57q0 23 -18 47q-17 24 -63 24q-3 0 -7 -0.5t-8 -0.5h-18q-6 0 -15 3.5t-9 21.5q0 6 5.5 13
t11.5 10q3 0 12 1t18 1h2q30 4 49.5 20t19.5 41z" />
    <glyph glyph-name="questiondown" unicode="&#xbf;" horiz-adv-x="487" 
d="M284 356q9 0 14 -4t7.5 -9.5t3 -11t0.5 -8.5q0 -14 -0.5 -40.5t-6.5 -57.5q-6 -30 -20.5 -60t-42.5 -50q-30 -21 -46.5 -36t-24.5 -29q-9 -13 -10.5 -27.5t-0.5 -34.5q0 -15 5 -29.5t15 -26.5t25.5 -19.5t36.5 -7.5q18 0 35 5t35 20q14 10 28 24.5t28 27.5q13 13 24.5 22
t22.5 9q15 0 28 -13.5t13 -42.5q0 -11 -3 -31.5t-9 -40.5q-7 -20 -18 -35t-27 -15q-6 0 -9.5 5.5t-5.5 13.5t-2.5 16.5t-0.5 14.5q0 15 -2 17t-5 -2q-12 -15 -28 -29t-34.5 -24.5t-38.5 -16.5t-39 -6q-51 0 -84 18t-53 44q-19 26 -26.5 54t-7.5 49q0 71 35 115
q17 22 41 40.5t53 36.5q28 17 42.5 35t20.5 36q6 19 6.5 38t0.5 39q0 2 0.5 6.5t3 9t7.5 8t14 3.5zM338 431q0 -18 -12.5 -38t-38.5 -20q-10 0 -22.5 2.5t-22.5 9.5q-11 7 -18 19t-6 31q1 31 19.5 49t42.5 18t40 -18t18 -53z" />
    <glyph glyph-name="Agrave" unicode="&#xc0;" horiz-adv-x="629" 
d="M378 697q-32 8 -63.5 26.5t-55.5 39.5q-7 5 -17 15t-19 22q-10 13 -16 24.5t-6 22.5q0 23 11 41t33 18h9q5 0 12 -4q0 -1 5 -2q11 -7 17.5 -16.5t10.5 -21.5l-1 1q2 -4 3 -6.5t3 -5.5q3 -8 6.5 -15.5t8.5 -13.5q17 -24 37 -47t38 -38q11 -9 13.5 -17t-1 -14t-11.5 -8.5
t-17 -0.5zM57 57q15 26 37 70.5t43 93.5q36 87 69.5 171t56.5 153q6 16 8.5 31t2.5 24q-2 12 -5.5 23.5t-6.5 20.5q-3 10 -4.5 18t0.5 15q2 12 16 12q4 0 8.5 -0.5t9.5 -1.5q21 -12 40.5 -35t27.5 -42q7 -20 8 -34q36 -54 65 -105t54 -102q25 -49 46 -97t42 -94
q18 -42 28.5 -75.5t10.5 -60.5q0 -24 -12.5 -36t-34.5 -12q-11 0 -20 6t-16.5 15t-13 20.5t-8.5 23.5q-12 45 -25.5 89t-27.5 89q-24 -4 -47.5 -9.5t-39.5 -11.5q-12 -4 -24.5 -8.5t-23.5 -8.5q-11 -3 -21.5 -5.5t-19.5 -2.5q-13 0 -28 4t-29 10l-15 -31q-9 -16 -21 -35.5
t-24 -38.5q-13 -19 -24.5 -34.5t-17.5 -22.5q-18 -19 -40.5 -34t-48.5 -15q-3 0 -5 7t1 13q3 4 6.5 8.5t7.5 9.5t7.5 11t7.5 14zM351 491q-26 -63 -50 -116.5t-50 -110.5q45 3 92.5 10.5t93.5 16.5q-37 102 -86 200z" />
    <glyph glyph-name="Aacute" unicode="&#xc1;" horiz-adv-x="629" 
d="M230 697q-9 -2 -17 0.5t-11.5 8.5t-1.5 14t13 17q19 15 38.5 38t37.5 47q4 6 7.5 13.5t6.5 15.5q2 3 3 5.5t3 6.5l-1 -1q8 25 28 38q4 1 5 2q7 4 12 4h10q21 0 32.5 -18t11.5 -41q0 -11 -6.5 -22.5t-16.5 -24.5q-8 -12 -18.5 -22t-17.5 -15q-24 -21 -55.5 -39.5
t-62.5 -26.5zM57 57q15 26 37 70.5t43 93.5q36 87 69.5 171t56.5 153q6 16 8.5 31t2.5 24q-2 12 -5.5 23.5t-6.5 20.5q-3 10 -4.5 18t0.5 15q2 12 16 12q4 0 8.5 -0.5t9.5 -1.5q21 -12 40.5 -35t27.5 -42q7 -20 8 -34q36 -54 65 -105t54 -102q25 -49 46 -97t42 -94
q18 -42 28.5 -75.5t10.5 -60.5q0 -24 -12.5 -36t-34.5 -12q-11 0 -20 6t-16.5 15t-13 20.5t-8.5 23.5q-12 45 -25.5 89t-27.5 89q-24 -4 -47.5 -9.5t-39.5 -11.5q-12 -4 -24.5 -8.5t-23.5 -8.5q-11 -3 -21.5 -5.5t-19.5 -2.5q-13 0 -28 4t-29 10l-15 -31q-9 -16 -21 -35.5
t-24 -38.5q-13 -19 -24.5 -34.5t-17.5 -22.5q-18 -19 -40.5 -34t-48.5 -15q-3 0 -5 7t1 13q3 4 6.5 8.5t7.5 9.5t7.5 11t7.5 14zM351 491q-26 -63 -50 -116.5t-50 -110.5q45 3 92.5 10.5t93.5 16.5q-37 102 -86 200z" />
    <glyph glyph-name="Acircumflex" unicode="&#xc2;" horiz-adv-x="629" 
d="M57 57q15 26 37 70.5t43 93.5q36 87 69.5 171t56.5 153q6 16 8.5 31t2.5 24q-2 12 -5.5 23.5t-6.5 20.5q-3 10 -4.5 18t0.5 15q2 12 16 12q4 0 8.5 -0.5t9.5 -1.5q21 -12 40.5 -35t27.5 -42q7 -20 8 -34q36 -54 65 -105t54 -102q25 -49 46 -97t42 -94q18 -42 28.5 -75.5
t10.5 -60.5q0 -24 -12.5 -36t-34.5 -12q-11 0 -20 6t-16.5 15t-13 20.5t-8.5 23.5q-12 45 -25.5 89t-27.5 89q-24 -4 -47.5 -9.5t-39.5 -11.5q-12 -4 -24.5 -8.5t-23.5 -8.5q-11 -3 -21.5 -5.5t-19.5 -2.5q-13 0 -28 4t-29 10l-15 -31q-9 -16 -21 -35.5t-24 -38.5
q-13 -19 -24.5 -34.5t-17.5 -22.5q-18 -19 -40.5 -34t-48.5 -15q-3 0 -5 7t1 13q3 4 6.5 8.5t7.5 9.5t7.5 11t7.5 14zM351 491q-26 -63 -50 -116.5t-50 -110.5q45 3 92.5 10.5t93.5 16.5q-37 102 -86 200zM501 827q20 -15 33 -28.5t18 -27.5q6 -16 2 -30.5t-20 -22.5
q-17 -8 -36 -5.5t-33 19.5q-32 39 -68 70.5t-72 51.5q-5 -4 -10 -8.5t-10 -9.5l-32 -29h1q-11 -11 -25.5 -24t-31.5 -26q-25 -20 -54 -22.5t-49 -1.5h-5q-19 2 -31 7.5t-12 18.5q-2 10 6 15.5t22 11.5h-1q5 2 10 4.5t10 4.5q6 2 12.5 5t15.5 8l-1 -1q-2 -2 6 3t12 8
q10 6 20.5 13.5t22.5 15.5q9 6 19.5 13.5t21.5 15.5q7 6 15 12.5t16 11.5q-3 9 2 18q5 11 15 14.5t28 -4.5q47 -19 95.5 -45.5t87.5 -55.5z" />
    <glyph glyph-name="Atilde" unicode="&#xc3;" horiz-adv-x="629" 
d="M262 801q-11 11 -27 16.5t-24 0.5q-17 -14 -33 -40q-20 -28 -24 -37q-11 -13 -23 -10.5t-20 16.5q-7 12 -7 30t9 37q11 20 33 42.5t42 36.5q11 7 26 10t31 -1q16 -3 33.5 -17.5t37.5 -38.5v1q7 -8 15 -18h-1q10 -15 20 -25q9 -11 18 -17t17 -6q14 0 26 7t22 18t17.5 25
t13.5 28q16 41 27.5 43.5t16.5 -19.5q2 -14 0.5 -36t-7.5 -39q-7 -20 -18 -37t-25 -33v1q-29 -33 -72 -31q-16 1 -28.5 6.5t-20.5 11.5t-16.5 15t-15.5 18v-1zM57 57q15 26 37 70.5t43 93.5q36 87 69.5 171t56.5 153q6 16 8.5 31t2.5 24q-2 12 -5.5 23.5t-6.5 20.5
q-3 10 -4.5 18t0.5 15q2 12 16 12q4 0 8.5 -0.5t9.5 -1.5q21 -12 40.5 -35t27.5 -42q7 -20 8 -34q36 -54 65 -105t54 -102q25 -49 46 -97t42 -94q18 -42 28.5 -75.5t10.5 -60.5q0 -24 -12.5 -36t-34.5 -12q-11 0 -20 6t-16.5 15t-13 20.5t-8.5 23.5q-12 45 -25.5 89
t-27.5 89q-24 -4 -47.5 -9.5t-39.5 -11.5q-12 -4 -24.5 -8.5t-23.5 -8.5q-11 -3 -21.5 -5.5t-19.5 -2.5q-13 0 -28 4t-29 10l-15 -31q-9 -16 -21 -35.5t-24 -38.5q-13 -19 -24.5 -34.5t-17.5 -22.5q-18 -19 -40.5 -34t-48.5 -15q-3 0 -5 7t1 13q3 4 6.5 8.5t7.5 9.5t7.5 11
t7.5 14zM351 491q-26 -63 -50 -116.5t-50 -110.5q45 3 92.5 10.5t93.5 16.5q-37 102 -86 200z" />
    <glyph glyph-name="Adieresis" unicode="&#xc4;" horiz-adv-x="629" 
d="M141 799q-4 26 10 42t42 16q8 0 20 -2t23 -7q11 -8 18.5 -20.5t4.5 -32.5q-4 -34 -20.5 -45.5t-39.5 -11.5q-28 0 -41 11.5t-17 49.5zM371 799q-4 26 9.5 42t42.5 16q9 0 21 -2t23 -7q11 -8 18.5 -20.5t4.5 -32.5q-4 -34 -21 -45.5t-41 -11.5q-26 0 -39.5 11.5
t-17.5 49.5zM57 57q15 26 37 70.5t43 93.5q36 87 69.5 171t56.5 153q6 16 8.5 31t2.5 24q-2 12 -5.5 23.5t-6.5 20.5q-3 10 -4.5 18t0.5 15q2 12 16 12q4 0 8.5 -0.5t9.5 -1.5q21 -12 40.5 -35t27.5 -42q7 -20 8 -34q36 -54 65 -105t54 -102q25 -49 46 -97t42 -94
q18 -42 28.5 -75.5t10.5 -60.5q0 -24 -12.5 -36t-34.5 -12q-11 0 -20 6t-16.5 15t-13 20.5t-8.5 23.5q-12 45 -25.5 89t-27.5 89q-24 -4 -47.5 -9.5t-39.5 -11.5q-12 -4 -24.5 -8.5t-23.5 -8.5q-11 -3 -21.5 -5.5t-19.5 -2.5q-13 0 -28 4t-29 10l-15 -31q-9 -16 -21 -35.5
t-24 -38.5q-13 -19 -24.5 -34.5t-17.5 -22.5q-18 -19 -40.5 -34t-48.5 -15q-3 0 -5 7t1 13q3 4 6.5 8.5t7.5 9.5t7.5 11t7.5 14zM351 491q-26 -63 -50 -116.5t-50 -110.5q45 3 92.5 10.5t93.5 16.5q-37 102 -86 200z" />
    <glyph glyph-name="Aring" unicode="&#xc5;" horiz-adv-x="629" 
d="M354 808q0 21 -11 35t-30 14q-20 0 -33.5 -14t-13.5 -35q0 -20 13.5 -33.5t33.5 -13.5q19 0 30 13.5t11 33.5zM415 808q0 -22 -8 -41t-22 -33t-32.5 -22t-39.5 -8q-22 0 -42 8t-35 22t-23.5 33t-8.5 41q0 44 32 74q32 31 77 31q21 0 39.5 -8.5t32.5 -23t22 -33.5t8 -40z
M57 57q15 26 37 70.5t43 93.5q36 87 69.5 171t56.5 153q6 16 8.5 31t2.5 24q-2 12 -5.5 23.5t-6.5 20.5q-3 10 -4.5 18t0.5 15q2 12 16 12q4 0 8.5 -0.5t9.5 -1.5q21 -12 40.5 -35t27.5 -42q7 -20 8 -34q36 -54 65 -105t54 -102q25 -49 46 -97t42 -94q18 -42 28.5 -75.5
t10.5 -60.5q0 -24 -12.5 -36t-34.5 -12q-11 0 -20 6t-16.5 15t-13 20.5t-8.5 23.5q-12 45 -25.5 89t-27.5 89q-24 -4 -47.5 -9.5t-39.5 -11.5q-12 -4 -24.5 -8.5t-23.5 -8.5q-11 -3 -21.5 -5.5t-19.5 -2.5q-13 0 -28 4t-29 10l-15 -31q-9 -16 -21 -35.5t-24 -38.5
q-13 -19 -24.5 -34.5t-17.5 -22.5q-18 -19 -40.5 -34t-48.5 -15q-3 0 -5 7t1 13q3 4 6.5 8.5t7.5 9.5t7.5 11t7.5 14zM351 491q-26 -63 -50 -116.5t-50 -110.5q45 3 92.5 10.5t93.5 16.5q-37 102 -86 200z" />
    <glyph glyph-name="AE" unicode="&#xc6;" horiz-adv-x="840" 
d="M57 56q15 26 37 70.5t43 93.5q36 87 69.5 171t56.5 153q6 16 8.5 31t2.5 24q-2 12 -5.5 23.5t-6.5 20.5q-3 10 -4.5 18t0.5 15q2 12 16 12q4 0 8.5 -0.5t9.5 -1.5q13 -7 26.5 -19.5t23.5 -26.5q60 -2 119.5 -1t113.5 5q22 2 43.5 5.5t42.5 7.5q20 3 38.5 5.5t34.5 2.5
q30 0 52 -17.5t22 -38.5q0 -23 -17.5 -31.5t-32.5 -8.5q-10 0 -20.5 1t-20.5 3q-25 5 -41 5q-39 0 -89 -5t-93 -11q-8 -48 -12 -96t-7 -94q9 0 19 0.5t21 1.5t24 1.5t29 2.5q16 1 32.5 4t34.5 7q17 3 34.5 5.5t35.5 2.5q15 0 30 -4.5t26.5 -12t19 -18t7.5 -22.5
q0 -17 -15.5 -27.5t-33.5 -10.5q-28 0 -48 4q-11 2 -22 3.5t-22 1.5q-24 0 -43 -2t-37 -5q-19 -3 -39 -7.5t-45 -8.5q-2 0 -3.5 -0.5t-2.5 -0.5h-6q-2 -45 -2.5 -86t0.5 -76q0 -27 10 -36t40 -9q51 0 82 4t55 9q23 4 45 8.5t54 4.5q31 0 50 -17.5t19 -35.5q0 -23 -24 -36.5
t-66 -13.5q-31 0 -62 -1.5t-62 -3.5t-61.5 -3t-58.5 -1q-57 0 -83 32.5t-26 86.5v49q0 13 0.5 27t1.5 29q-2 0 -4 -1t-3 -1q-12 -4 -24.5 -8.5t-23.5 -8.5q-11 -3 -21.5 -5.5t-19.5 -2.5q-15 0 -31.5 5t-31.5 12q-4 -9 -8 -17.5t-8 -17.5q-9 -16 -21 -35.5t-24 -38.5
q-13 -19 -24.5 -34.5t-17.5 -22.5q-18 -19 -40.5 -34t-48.5 -15q-3 0 -5 7t1 13q7 9 14 18.5t15 24.5zM369 557q-1 -12 -3 -24t-8 -25q-27 -67 -53 -126t-54 -119q35 3 67.5 9t66.5 13l3 52q-8 9 -7.5 18.5t9.5 15.5q3 45 7 90.5t10 88.5q-19 -2 -29 2q-4 0 -9 5z" />
    <glyph glyph-name="Ccedilla" unicode="&#xc7;" horiz-adv-x="647" 
d="M158 331q0 -53 14.5 -100t40.5 -84q29 -33 65 -54.5t79 -21.5q63 0 113 24.5t84 64.5q14 14 30 -1h-1q17 -13 -1 -39q-17 -23 -42 -45.5t-54 -39.5q-20 -12 -41 -20.5t-45 -13.5q2 -11 -3 -25t-19 -32q-6 -6 -7 -8q35 -10 60 -35t25 -57q-1 -27 -12.5 -46.5t-31 -32.5
t-45 -19t-55.5 -4q-8 1 -20.5 5.5t-19.5 7.5q-12 8 -20 17.5t-6 18.5q2 5 7.5 9t10.5 4h8q2 0 5.5 -0.5t6.5 -0.5q5 -1 16 -1t19 1q17 2 31 13t17 34q0 13 -11 26.5t-28 19.5h2q-4 2 -5 2q-6 -3 -10.5 -4.5t-10.5 -2.5q-17 -4 -22.5 4t-3.5 20q1 10 5 19.5t10 19.5
q5 8 11.5 22.5t4.5 20.5l2 -3q2 -2 1 0t-3 4q-59 7 -104 34.5t-77 68.5q-37 49 -56 108t-19 121q0 78 22.5 139.5t60.5 106.5q40 43 89.5 66.5t104.5 23.5q62 -1 107 -28q22 -12 38.5 -25t29.5 -24q3 -3 7.5 0t4.5 14q0 7 1 16t4 16.5t7.5 13t10.5 5.5q17 0 27.5 -16
t16.5 -36q5 -18 7.5 -38t2.5 -30q0 -32 -12 -44.5t-30 -12.5q-11 0 -25.5 9.5t-31.5 21.5l-7.5 5t-7.5 6q-12 10 -26.5 20.5t-25.5 15.5q-23 11 -48 15.5t-48 4.5q-26 0 -57 -15.5t-57 -42.5q-26 -31 -43 -77t-17 -109z" />
    <glyph glyph-name="Egrave" unicode="&#xc8;" horiz-adv-x="655" 
d="M397 697q-31 8 -62.5 26.5t-55.5 39.5q-7 5 -17.5 15t-18.5 22q-10 13 -16.5 24.5t-6.5 22.5q0 23 11.5 41t32.5 18h10q5 0 12 -4q0 -1 5 -2q20 -13 28 -38l-1 1q2 -4 3 -6.5t3 -5.5q3 -8 6.5 -15.5t7.5 -13.5q18 -24 37.5 -47t38.5 -38q11 -9 13 -17t-1.5 -14
t-11.5 -8.5t-17 -0.5zM126 552q-21 9 -42 23t-34 26t-8.5 26t21.5 14q33 -2 70 -2.5t74 0t72.5 1.5t65.5 4q21 2 43 5.5t42 7.5q20 3 39 5.5t35 2.5q30 0 50.5 -17.5t20.5 -38.5q0 -23 -17 -31.5t-33 -8.5q-9 0 -19 1t-20 3q-25 5 -41 5q-45 0 -104 -6t-110 -12
q-7 -48 -11 -95t-7 -92q11 0 22.5 0.5t23.5 1.5q12 0 24 1t25 2q16 1 37 4t44 7q23 3 45 5.5t40 2.5q15 0 30 -4.5t26.5 -12t19 -18t7.5 -22.5q0 -17 -16.5 -27.5t-31.5 -10.5q-29 0 -49 4q-11 2 -22 3.5t-22 1.5q-45 0 -100 -5.5t-106 -14.5q-2 -45 -2.5 -87.5t0.5 -78.5
q0 -27 10 -36t42 -9q51 0 87 4t65 9q29 4 54.5 8.5t55.5 4.5q31 0 51 -17.5t20 -35.5q0 -23 -23.5 -36.5t-65.5 -13.5q-31 0 -67 -1.5t-73 -3.5q-36 -2 -71.5 -3t-64.5 -1q-57 0 -83 32.5t-26 86.5q0 38 1 86t4 100q-28 16 -45 35q-15 12 -9.5 26t23.5 14q5 -1 17 -1
q5 -1 18 -1q3 45 7 90t10 88h-10.5t-8.5 2z" />
    <glyph glyph-name="Eacute" unicode="&#xc9;" horiz-adv-x="655" 
d="M249 697q-9 -2 -17 0.5t-11.5 8.5t-1 14t13.5 17q18 15 38 38t37 47q5 6 8.5 13.5t6.5 15.5q2 3 3 5.5t3 6.5l-1 -1q4 12 10.5 21.5t17.5 16.5q4 1 5 2q7 4 12 4h9q22 0 33 -18t11 -41q0 -11 -6 -22.5t-16 -24.5q-9 -12 -19 -22t-17 -15q-24 -21 -55.5 -39.5t-63.5 -26.5
zM126 552q-21 9 -42 23t-34 26t-8.5 26t21.5 14q33 -2 70 -2.5t74 0t72.5 1.5t65.5 4q21 2 43 5.5t42 7.5q20 3 39 5.5t35 2.5q30 0 50.5 -17.5t20.5 -38.5q0 -23 -17 -31.5t-33 -8.5q-9 0 -19 1t-20 3q-25 5 -41 5q-45 0 -104 -6t-110 -12q-7 -48 -11 -95t-7 -92
q11 0 22.5 0.5t23.5 1.5q12 0 24 1t25 2q16 1 37 4t44 7q23 3 45 5.5t40 2.5q15 0 30 -4.5t26.5 -12t19 -18t7.5 -22.5q0 -17 -16.5 -27.5t-31.5 -10.5q-29 0 -49 4q-11 2 -22 3.5t-22 1.5q-45 0 -100 -5.5t-106 -14.5q-2 -45 -2.5 -87.5t0.5 -78.5q0 -27 10 -36t42 -9
q51 0 87 4t65 9q29 4 54.5 8.5t55.5 4.5q31 0 51 -17.5t20 -35.5q0 -23 -23.5 -36.5t-65.5 -13.5q-31 0 -67 -1.5t-73 -3.5q-36 -2 -71.5 -3t-64.5 -1q-57 0 -83 32.5t-26 86.5q0 38 1 86t4 100q-28 16 -45 35q-15 12 -9.5 26t23.5 14q5 -1 17 -1q5 -1 18 -1q3 45 7 90
t10 88h-10.5t-8.5 2z" />
    <glyph glyph-name="Ecircumflex" unicode="&#xca;" horiz-adv-x="655" 
d="M126 552q-21 9 -42 23t-34 26t-8.5 26t21.5 14q33 -2 70 -2.5t74 0t72.5 1.5t65.5 4q21 2 43 5.5t42 7.5q20 3 39 5.5t35 2.5q30 0 50.5 -17.5t20.5 -38.5q0 -23 -17 -31.5t-33 -8.5q-9 0 -19 1t-20 3q-25 5 -41 5q-45 0 -104 -6t-110 -12q-7 -48 -11 -95t-7 -92
q11 0 22.5 0.5t23.5 1.5q12 0 24 1t25 2q16 1 37 4t44 7q23 3 45 5.5t40 2.5q15 0 30 -4.5t26.5 -12t19 -18t7.5 -22.5q0 -17 -16.5 -27.5t-31.5 -10.5q-29 0 -49 4q-11 2 -22 3.5t-22 1.5q-45 0 -100 -5.5t-106 -14.5q-2 -45 -2.5 -87.5t0.5 -78.5q0 -27 10 -36t42 -9
q51 0 87 4t65 9q29 4 54.5 8.5t55.5 4.5q31 0 51 -17.5t20 -35.5q0 -23 -23.5 -36.5t-65.5 -13.5q-31 0 -67 -1.5t-73 -3.5q-36 -2 -71.5 -3t-64.5 -1q-57 0 -83 32.5t-26 86.5q0 38 1 86t4 100q-28 16 -45 35q-15 12 -9.5 26t23.5 14q5 -1 17 -1q5 -1 18 -1q3 45 7 90
t10 88h-10.5t-8.5 2zM498 827q20 -15 33 -28.5t18 -27.5q6 -16 2 -30.5t-20 -22.5q-17 -8 -36 -5.5t-33 19.5q-32 39 -68 70.5t-72 51.5q-5 -4 -10 -8.5t-10 -9.5l-32 -29h1q-11 -11 -25.5 -24t-31.5 -26q-25 -20 -54 -22.5t-49 -1.5h-5q-19 2 -31 7.5t-12 18.5
q-2 10 6 15.5t22 11.5h-1q5 2 10 4.5t10 4.5q6 2 12.5 5t15.5 8l-1 -1q-2 -2 6 3t12 8q10 6 20.5 13.5t22.5 15.5q9 6 19.5 13.5t21.5 15.5q7 6 15 12.5t16 11.5q-3 9 2 18q5 11 15 14.5t28 -4.5q47 -19 95.5 -45.5t87.5 -55.5z" />
    <glyph glyph-name="Edieresis" unicode="&#xcb;" horiz-adv-x="655" 
d="M148 799q-4 26 9.5 42t42.5 16q8 0 20 -2t23 -7q11 -8 18.5 -20.5t4.5 -32.5q-4 -34 -20.5 -45.5t-40.5 -11.5q-27 0 -40 11.5t-17 49.5zM378 799q-4 26 9.5 42t41.5 16q10 0 22 -2t22 -7q12 -8 19.5 -20.5t4.5 -32.5q-4 -34 -21 -45.5t-41 -11.5q-26 0 -39.5 11.5
t-17.5 49.5zM126 552q-21 9 -42 23t-34 26t-8.5 26t21.5 14q33 -2 70 -2.5t74 0t72.5 1.5t65.5 4q21 2 43 5.5t42 7.5q20 3 39 5.5t35 2.5q30 0 50.5 -17.5t20.5 -38.5q0 -23 -17 -31.5t-33 -8.5q-9 0 -19 1t-20 3q-25 5 -41 5q-45 0 -104 -6t-110 -12q-7 -48 -11 -95
t-7 -92q11 0 22.5 0.5t23.5 1.5q12 0 24 1t25 2q16 1 37 4t44 7q23 3 45 5.5t40 2.5q15 0 30 -4.5t26.5 -12t19 -18t7.5 -22.5q0 -17 -16.5 -27.5t-31.5 -10.5q-29 0 -49 4q-11 2 -22 3.5t-22 1.5q-45 0 -100 -5.5t-106 -14.5q-2 -45 -2.5 -87.5t0.5 -78.5q0 -27 10 -36
t42 -9q51 0 87 4t65 9q29 4 54.5 8.5t55.5 4.5q31 0 51 -17.5t20 -35.5q0 -23 -23.5 -36.5t-65.5 -13.5q-31 0 -67 -1.5t-73 -3.5q-36 -2 -71.5 -3t-64.5 -1q-57 0 -83 32.5t-26 86.5q0 38 1 86t4 100q-28 16 -45 35q-15 12 -9.5 26t23.5 14q5 -1 17 -1q5 -1 18 -1
q3 45 7 90t10 88h-10.5t-8.5 2z" />
    <glyph glyph-name="Igrave" unicode="&#xcc;" 
d="M338 697q-31 8 -62.5 26.5t-55.5 39.5q-7 5 -17 15t-19 22q-10 13 -16.5 24.5t-6.5 22.5q0 23 11.5 41t32.5 18h10q5 0 12 -4q0 -1 5 -2q20 -13 28 -38l-1 1q2 -4 3 -6.5t3 -5.5q3 -8 6.5 -15.5t8.5 -13.5q17 -24 37 -47t38 -38q11 -9 13 -17t-1.5 -14t-11.5 -8.5
t-17 -0.5zM219 77v159q0 24 -0.5 63t-1.5 85t-2 96t-2 98q-2 -1 -4 -1.5t-5 -0.5q-6 -2 -8 -2q-7 -3 -15.5 -2.5t-13.5 2.5q-11 3 -26.5 18t-21.5 29q-7 12 -3 22.5t12 10.5q40 0 85.5 3.5t78.5 9.5q16 1 33 6q18 5 30 5q13 0 36 -15q22 -15 22 -37q0 -18 -10.5 -30.5
t-22.5 -12.5q-5 0 -11 0.5t-12 1.5l-12 2t-11 1h-24q-1 -45 -1 -95v-99t0.5 -92.5t0.5 -76.5v-140q7 1 14.5 3.5t14.5 3.5q15 5 26 5q6 0 16.5 -4t20.5 -10q10 -7 17.5 -16t7.5 -20q0 -18 -13.5 -31t-23.5 -13q-5 0 -11.5 0.5t-12.5 2.5q-7 1 -13 2t-11 1q-16 0 -36 -0.5
t-41 -2.5t-41.5 -5t-36.5 -7q-16 -5 -29 0q-5 1 -12 7t-14.5 12.5t-14 13.5t-9.5 12q-9 11 -4.5 23t13.5 12q21 0 48 0.5t54 2.5z" />
    <glyph glyph-name="Iacute" unicode="&#xcd;" 
d="M191 697q-9 -2 -17 0.5t-11.5 8.5t-1.5 14t13 17q19 15 38.5 38t36.5 47q5 6 8.5 13.5t6.5 15.5q2 3 3 5.5t3 6.5l-1 -1q8 25 28 38q4 1 5 2q7 4 12 4h10q21 0 32.5 -18t11.5 -41q0 -11 -6.5 -22.5t-16.5 -24.5q-8 -12 -18.5 -22t-17.5 -15q-24 -21 -55.5 -39.5
t-62.5 -26.5zM219 77v159q0 24 -0.5 63t-1.5 85t-2 96t-2 98q-2 -1 -4 -1.5t-5 -0.5q-6 -2 -8 -2q-7 -3 -15.5 -2.5t-13.5 2.5q-11 3 -26.5 18t-21.5 29q-7 12 -3 22.5t12 10.5q40 0 85.5 3.5t78.5 9.5q16 1 33 6q18 5 30 5q13 0 36 -15q22 -15 22 -37q0 -18 -10.5 -30.5
t-22.5 -12.5q-5 0 -11 0.5t-12 1.5l-12 2t-11 1h-24q-1 -45 -1 -95v-99t0.5 -92.5t0.5 -76.5v-140q7 1 14.5 3.5t14.5 3.5q15 5 26 5q6 0 16.5 -4t20.5 -10q10 -7 17.5 -16t7.5 -20q0 -18 -13.5 -31t-23.5 -13q-5 0 -11.5 0.5t-12.5 2.5q-7 1 -13 2t-11 1q-16 0 -36 -0.5
t-41 -2.5t-41.5 -5t-36.5 -7q-16 -5 -29 0q-5 1 -12 7t-14.5 12.5t-14 13.5t-9.5 12q-9 11 -4.5 23t13.5 12q21 0 48 0.5t54 2.5z" />
    <glyph glyph-name="Icircumflex" unicode="&#xce;" 
d="M219 77v159q0 24 -0.5 63t-1.5 85t-2 96t-2 98q-2 -1 -4 -1.5t-5 -0.5q-6 -2 -8 -2q-7 -3 -15.5 -2.5t-13.5 2.5q-11 3 -26.5 18t-21.5 29q-7 12 -3 22.5t12 10.5q40 0 85.5 3.5t78.5 9.5q16 1 33 6q18 5 30 5q13 0 36 -15q22 -15 22 -37q0 -18 -10.5 -30.5t-22.5 -12.5
q-5 0 -11 0.5t-12 1.5l-12 2t-11 1h-24q-1 -45 -1 -95v-99t0.5 -92.5t0.5 -76.5v-140q7 1 14.5 3.5t14.5 3.5q15 5 26 5q6 0 16.5 -4t20.5 -10q10 -7 17.5 -16t7.5 -20q0 -18 -13.5 -31t-23.5 -13q-5 0 -11.5 0.5t-12.5 2.5q-7 1 -13 2t-11 1q-16 0 -36 -0.5t-41 -2.5
t-41.5 -5t-36.5 -7q-16 -5 -29 0q-5 1 -12 7t-14.5 12.5t-14 13.5t-9.5 12q-9 11 -4.5 23t13.5 12q21 0 48 0.5t54 2.5zM445 827q20 -15 33 -28.5t18 -27.5q6 -16 2 -30.5t-20 -22.5q-17 -8 -36 -5.5t-33 19.5q-32 39 -68 70.5t-72 51.5q-5 -4 -10 -8.5t-10 -9.5l-32 -29h1
q-11 -11 -25.5 -24t-31.5 -26q-25 -20 -54 -22.5t-49 -1.5h-5q-19 2 -31 7.5t-12 18.5q-2 10 6 15.5t22 11.5h-1q5 2 10 4.5t10 4.5q6 2 12.5 5t15.5 8l-1 -1q-2 -2 6 3t12 8q10 6 20.5 13.5t22.5 15.5q9 6 19.5 13.5t21.5 15.5q7 6 15 12.5t16 11.5q-3 9 2 18q5 11 15 14.5
t28 -4.5q47 -19 95.5 -45.5t87.5 -55.5z" />
    <glyph glyph-name="Idieresis" unicode="&#xcf;" 
d="M84 799q-4 26 10 42t42 16q9 0 20.5 -2t22.5 -7q12 -8 19 -20.5t4 -32.5q-3 -34 -20 -45.5t-40 -11.5q-27 0 -40.5 11.5t-17.5 49.5zM314 799q-4 26 10 42t42 16q10 0 21.5 -2t22.5 -7q11 -8 18.5 -20.5t4.5 -32.5q-4 -34 -21 -45.5t-40 -11.5q-27 0 -40.5 11.5
t-17.5 49.5zM219 77v159q0 24 -0.5 63t-1.5 85t-2 96t-2 98q-2 -1 -4 -1.5t-5 -0.5q-6 -2 -8 -2q-7 -3 -15.5 -2.5t-13.5 2.5q-11 3 -26.5 18t-21.5 29q-7 12 -3 22.5t12 10.5q40 0 85.5 3.5t78.5 9.5q16 1 33 6q18 5 30 5q13 0 36 -15q22 -15 22 -37q0 -18 -10.5 -30.5
t-22.5 -12.5q-5 0 -11 0.5t-12 1.5l-12 2t-11 1h-24q-1 -45 -1 -95v-99t0.5 -92.5t0.5 -76.5v-140q7 1 14.5 3.5t14.5 3.5q15 5 26 5q6 0 16.5 -4t20.5 -10q10 -7 17.5 -16t7.5 -20q0 -18 -13.5 -31t-23.5 -13q-5 0 -11.5 0.5t-12.5 2.5q-7 1 -13 2t-11 1q-16 0 -36 -0.5
t-41 -2.5t-41.5 -5t-36.5 -7q-16 -5 -29 0q-5 1 -12 7t-14.5 12.5t-14 13.5t-9.5 12q-9 11 -4.5 23t13.5 12q21 0 48 0.5t54 2.5z" />
    <glyph glyph-name="Eth" unicode="&#xd0;" horiz-adv-x="758" 
d="M212 43q0 10 -0.5 29.5t-1.5 41.5q-1 23 -2.5 45.5t-1.5 40.5q-1 9 -1.5 18.5t-0.5 20.5q-1 11 -1.5 22.5t-0.5 24.5q-18 -3 -35 -5.5t-33 -5.5q-5 -1 -9 -2t-8 -1t-8.5 1t-8.5 4q-11 5 -27.5 16.5t-25.5 28.5q-9 12 -5 24t20 12q29 -1 64.5 -0.5t72.5 2.5
q-2 45 -3.5 89.5t-1.5 77.5q0 16 -5.5 31.5t-9.5 23.5q-7 10 -15 18t-15 16q-6 7 -10.5 14t-4.5 15t7.5 14t19.5 6q21 0 49 -10.5t46 -29.5q9 -12 18 -23.5t15 -24.5q0 15 16.5 30.5t41.5 28.5q24 12 53.5 20.5t55.5 8.5q58 -1 107 -22.5t85 -61.5q35 -40 55 -96.5
t20 -128.5q0 -66 -20.5 -130.5t-58.5 -115.5q-38 -52 -91.5 -84.5t-122.5 -32.5q-43 0 -84.5 18.5t-71.5 48.5q-3 -10 -9 -23t-14 -25q-7 -11 -17 -19t-20 -8q-6 0 -7 6.5t0 11.5q2 8 3 18t2 22zM295 553q0 -5 0.5 -10t0.5 -10q-1 -15 -1.5 -34t-0.5 -40q-1 -22 -1.5 -45
t-0.5 -46q13 1 25.5 4t24.5 5t22.5 4t20.5 2q13 0 27 -4.5t25 -12.5t18 -18t7 -22q0 -18 -15 -28t-30 -10q-12 0 -23 1t-21 3q-10 1 -20 2.5t-19 1.5q-10 0 -21 -0.5t-22 -0.5q-1 -30 -1 -58v-50q0 -15 -1 -32.5t-3 -35.5q29 -29 63.5 -39.5t68.5 -10.5q38 0 74 21t64 59
t45.5 91t18.5 117q0 58 -14 100.5t-36 69.5q-23 27 -51.5 40t-56.5 13q-25 0 -44.5 -8.5t-35.5 -17.5q-15 -10 -28 -18t-24 -7q-11 0 -20.5 7t-14.5 17z" />
    <glyph glyph-name="Ntilde" unicode="&#xd1;" horiz-adv-x="664" 
d="M264 801q-11 11 -27 16.5t-24 0.5q-17 -14 -33 -40q-20 -28 -24 -37q-11 -13 -23.5 -10.5t-20.5 16.5q-6 12 -6 30t9 37q11 20 33 42.5t42 36.5q11 7 26 10t30 -1q17 -3 34.5 -17.5t37.5 -38.5v1q7 -8 15 -18h-1q10 -15 20 -25q9 -11 18 -17t17 -6q14 0 26 7t22 18
t17.5 25t13.5 28q16 41 27.5 43.5t16.5 -19.5q2 -14 0.5 -36t-7.5 -39q-7 -20 -18 -37t-25 -33v1q-29 -33 -72 -31q-16 1 -28.5 6.5t-20.5 11.5t-16.5 15t-15.5 18v-1zM108 63q0 8 -0.5 27t-1.5 42t-1.5 48.5t-1.5 46.5q-1 17 -2.5 54.5t-2.5 82.5t-2.5 89.5t-1.5 74.5
q-1 16 -4.5 33.5t-9.5 26.5q-4 5 -8.5 11t-8.5 13q-10 11 -10 25q0 6 7 12.5t19 6.5t34.5 -7.5t40.5 -22.5q8 -9 15 -18.5t13 -19.5q42 -42 84 -88.5t84 -95.5q42 -51 80.5 -99.5t73.5 -96.5v6q0 28 -0.5 67t-1.5 84t-2.5 89.5t-2.5 83.5q-1 15 -6 30.5t-9 22.5
q-14 21 -27 35q-5 8 -8.5 14.5t-3.5 14.5q0 6 5 13t17 7q18 0 44.5 -10.5t44.5 -29.5t29.5 -44t11.5 -48v-501q0 -20 -12.5 -34t-31.5 -14q-24 0 -35.5 13t-11.5 31v26q-2 2 -4 4.5t-4 5.5q-2 2 -4 5l-4 6q-31 49 -66.5 103t-74.5 111q-38 55 -77 108t-75 98
q-1 -32 -2 -72.5t-2 -82.5t-1.5 -77.5t-0.5 -56.5q-1 -21 -2.5 -44t-3.5 -44t-4.5 -37.5t-4.5 -23.5q-7 -22 -21 -39.5t-29 -28.5q-10 -9 -17 -0.5t-5 14.5q3 10 4.5 24t1.5 26z" />
    <glyph glyph-name="Ograve" unicode="&#xd2;" horiz-adv-x="659" 
d="M397 697q-31 8 -62.5 26.5t-55.5 39.5q-7 5 -17.5 15t-18.5 22q-10 13 -16.5 24.5t-6.5 22.5q0 23 11.5 41t32.5 18h10q5 0 12 -4q0 -1 5 -2q20 -13 28 -38l-1 1q2 -4 3 -6.5t3 -5.5q3 -8 6.5 -15.5t7.5 -13.5q18 -24 37.5 -47t38.5 -38q11 -9 13 -17t-1.5 -14
t-11.5 -8.5t-17 -0.5zM66 337q0 60 18.5 118.5t55.5 104.5q37 48 90.5 76t122.5 28q52 0 98 -26t80 -71t54 -106t20 -133t-18.5 -133t-52.5 -106q-33 -45 -80.5 -70t-104.5 -25q-51 0 -101.5 17.5t-90.5 59.5q-42 42 -66.5 106t-24.5 160zM166 345q0 -73 14.5 -124t39.5 -83
t57 -46t68 -14q28 0 56 16t50 48t35.5 80t13.5 112q0 51 -12 96t-33 79t-49.5 54.5t-60.5 20.5q-45 0 -78 -22t-55 -57q-23 -34 -34.5 -76t-11.5 -84z" />
    <glyph glyph-name="Oacute" unicode="&#xd3;" horiz-adv-x="659" 
d="M249 697q-9 -2 -17 0.5t-11.5 8.5t-1 14t13.5 17q18 15 38 38t37 47q5 6 8.5 13.5t6.5 15.5q2 3 3 5.5t3 6.5l-1 -1q4 12 10.5 21.5t17.5 16.5q4 1 5 2q7 4 12 4h9q22 0 33 -18t11 -41q0 -11 -6 -22.5t-16 -24.5q-9 -12 -19 -22t-17 -15q-24 -21 -55.5 -39.5t-63.5 -26.5
zM66 337q0 60 18.5 118.5t55.5 104.5q37 48 90.5 76t122.5 28q52 0 98 -26t80 -71t54 -106t20 -133t-18.5 -133t-52.5 -106q-33 -45 -80.5 -70t-104.5 -25q-51 0 -101.5 17.5t-90.5 59.5q-42 42 -66.5 106t-24.5 160zM166 345q0 -73 14.5 -124t39.5 -83t57 -46t68 -14
q28 0 56 16t50 48t35.5 80t13.5 112q0 51 -12 96t-33 79t-49.5 54.5t-60.5 20.5q-45 0 -78 -22t-55 -57q-23 -34 -34.5 -76t-11.5 -84z" />
    <glyph glyph-name="Ocircumflex" unicode="&#xd4;" horiz-adv-x="659" 
d="M66 337q0 60 18.5 118.5t55.5 104.5q37 48 90.5 76t122.5 28q52 0 98 -26t80 -71t54 -106t20 -133t-18.5 -133t-52.5 -106q-33 -45 -80.5 -70t-104.5 -25q-51 0 -101.5 17.5t-90.5 59.5q-42 42 -66.5 106t-24.5 160zM166 345q0 -73 14.5 -124t39.5 -83t57 -46t68 -14
q28 0 56 16t50 48t35.5 80t13.5 112q0 51 -12 96t-33 79t-49.5 54.5t-60.5 20.5q-45 0 -78 -22t-55 -57q-23 -34 -34.5 -76t-11.5 -84zM513 827q20 -15 33 -28.5t18 -27.5q6 -16 2 -30.5t-20 -22.5q-17 -8 -36 -5.5t-33 19.5q-32 39 -68 70.5t-72 51.5q-5 -4 -10 -8.5
t-10 -9.5l-32 -29h1q-11 -11 -25.5 -24t-31.5 -26q-25 -20 -54 -22.5t-49 -1.5h-5q-19 2 -31 7.5t-12 18.5q-2 10 6 15.5t22 11.5h-1q5 2 10 4.5t10 4.5q6 2 12.5 5t15.5 8l-1 -1q-2 -2 6 3t12 8q10 6 20.5 13.5t22.5 15.5q9 6 19.5 13.5t21.5 15.5q7 6 15 12.5t16 11.5
q-3 9 2 18q5 11 15 14.5t28 -4.5q47 -19 95.5 -45.5t87.5 -55.5z" />
    <glyph glyph-name="Otilde" unicode="&#xd5;" horiz-adv-x="659" 
d="M277 801q-11 11 -27 16.5t-24 0.5q-19 -14 -33 -40q-18 -26 -25 -37q-10 -13 -22.5 -10.5t-20.5 16.5q-7 12 -7 30t10 37q11 20 32.5 42.5t41.5 36.5q12 7 27 10t30 -1q17 -3 34 -17.5t38 -38.5v1q4 -4 7 -8.5t7 -9.5h-1q5 -7 10.5 -13.5t10.5 -11.5q9 -11 18 -17t17 -6
q14 0 26 7t21.5 18t17.5 25t13 28q17 41 28 43.5t16 -19.5q2 -14 0.5 -36t-7.5 -39q-11 -37 -43 -70v1q-28 -33 -71 -31q-16 1 -28.5 6.5t-20.5 11.5q-9 6 -17 15t-15 18v-1zM66 337q0 60 18.5 118.5t55.5 104.5q37 48 90.5 76t122.5 28q52 0 98 -26t80 -71t54 -106t20 -133
t-18.5 -133t-52.5 -106q-33 -45 -80.5 -70t-104.5 -25q-51 0 -101.5 17.5t-90.5 59.5q-42 42 -66.5 106t-24.5 160zM166 345q0 -73 14.5 -124t39.5 -83t57 -46t68 -14q28 0 56 16t50 48t35.5 80t13.5 112q0 51 -12 96t-33 79t-49.5 54.5t-60.5 20.5q-45 0 -78 -22t-55 -57
q-23 -34 -34.5 -76t-11.5 -84z" />
    <glyph glyph-name="Odieresis" unicode="&#xd6;" horiz-adv-x="659" 
d="M153 799q-4 26 9.5 42t41.5 16q9 0 21 -2t22 -7q12 -8 19.5 -20.5t4.5 -32.5q-4 -34 -20.5 -45.5t-40.5 -11.5q-27 0 -40 11.5t-17 49.5zM382 799q-3 26 10.5 42t41.5 16q10 0 22 -2t22 -7q12 -8 19.5 -20.5t4.5 -32.5q-4 -34 -21.5 -45.5t-40.5 -11.5q-26 0 -39.5 11.5
t-18.5 49.5zM66 337q0 60 18.5 118.5t55.5 104.5q37 48 90.5 76t122.5 28q52 0 98 -26t80 -71t54 -106t20 -133t-18.5 -133t-52.5 -106q-33 -45 -80.5 -70t-104.5 -25q-51 0 -101.5 17.5t-90.5 59.5q-42 42 -66.5 106t-24.5 160zM166 345q0 -73 14.5 -124t39.5 -83t57 -46
t68 -14q28 0 56 16t50 48t35.5 80t13.5 112q0 51 -12 96t-33 79t-49.5 54.5t-60.5 20.5q-45 0 -78 -22t-55 -57q-23 -34 -34.5 -76t-11.5 -84z" />
    <glyph glyph-name="multiply" unicode="&#xd7;" horiz-adv-x="550" 
d="M413 115q-5 7 -18.5 24t-29.5 38t-32.5 42.5t-27.5 37.5q-2 0 -2 2q-1 1 -1 2q-12 -12 -22 -24t-19 -22q-11 -11 -23.5 -24.5t-24.5 -26.5t-23 -24.5t-19 -17.5q-10 -8 -23.5 -10.5t-23.5 2.5q-8 3 -14 9.5t-8 15.5t0.5 19t13.5 21q7 8 19 21t25 28t25.5 29t21.5 25
q4 5 8.5 11t10.5 12q5 6 10.5 13t11.5 14q-13 15 -26 31t-25 30l-22 27.5t-16 21.5q-13 12 -23.5 21t-20.5 17q-7 3 -16 7.5t-18 9.5q-8 5 -14 11.5t-6 15.5t10.5 18.5t31.5 9.5q33 0 66.5 -8t60.5 -40q15 -17 35.5 -44t41.5 -56q7 9 14.5 18t14.5 18q6 8 12 15.5t11 14.5
q4 6 9.5 13t9.5 13t7 11.5t3 10.5q0 7 -3 12.5t-6 11.5q-3 5 -5.5 11t-2.5 13q0 9 7 15.5t18 6.5q7 -1 17.5 -6t20.5 -12.5t18.5 -17t13.5 -19.5q13 -30 10.5 -51t-17.5 -42q-21 -27 -46.5 -56t-50.5 -57q3 -5 6 -9t5 -7q4 -8 9 -12q13 -17 26.5 -38.5t24.5 -42.5
q11 -20 19.5 -37t11.5 -24q6 -20 4 -42t-6 -39q-6 -12 -16 -9t-12 8q-3 9 -9.5 21t-11.5 19z" />
    <glyph glyph-name="Oslash" unicode="&#xd8;" horiz-adv-x="659" 
d="M65 337q0 60 18.5 118.5t55.5 104.5q37 48 90.5 76t122.5 28q15 0 29 -2.5t29 -5.5q-1 14 -8 29q-2 7 -4 14.5t-2 16.5q0 15 6 22.5t13 7.5q31 0 57 -36q26 -35 26 -82q0 -8 -4 -20q49 -45 79.5 -117.5t30.5 -162.5q0 -72 -18.5 -133t-52.5 -106q-33 -45 -80.5 -70
t-104.5 -25q-25 0 -49.5 4t-48.5 14q-3 -9 -7 -16.5t-7 -13.5q-8 -15 -21.5 -18t-24.5 3q-12 5 -18 17t1 28q1 6 7 15q1 4 3 8t4 9q-53 39 -87.5 110.5t-34.5 182.5zM165 345q0 -78 16.5 -131t44.5 -84q9 21 17.5 41.5t16.5 40.5t15.5 38.5t14.5 34.5q7 19 20 53t27 74
q15 40 29 82t25 78q-23 12 -47 12q-45 0 -78 -22t-55 -57q-23 -34 -34.5 -76t-11.5 -84zM287 88q13 -6 27.5 -8t29.5 -2q28 0 56 16t50 48t35.5 80t13.5 112q0 48 -11.5 91.5t-29.5 77.5q-11 -29 -23 -60t-24 -60q-11 -30 -21 -55t-17 -43q-21 -51 -43 -100t-43 -97z" />
    <glyph glyph-name="Ugrave" unicode="&#xd9;" horiz-adv-x="631" 
d="M387 697q-31 8 -62.5 26.5t-55.5 39.5q-7 5 -17 15t-19 22q-10 13 -16.5 24.5t-6.5 22.5q0 23 11.5 41t32.5 18h10q5 0 12 -4q0 -1 5 -2q20 -13 28 -38l-1 1q2 -4 3 -6.5t3 -5.5q3 -8 6.5 -15.5t8.5 -13.5q17 -24 37 -47t38 -38q11 -9 13 -17t-1.5 -14t-11.5 -8.5
t-17 -0.5zM319 -10q-103 0 -162.5 68t-59.5 196q0 16 -1.5 50t-2.5 73q-2 40 -3.5 80.5t-1.5 70.5q-1 16 -4.5 33.5t-9.5 26.5q-4 5 -8.5 11t-8.5 13q-10 11 -10 25q0 6 7 12.5t19 6.5t34 -7.5t40 -22.5q42 -36 42 -98q-1 -28 -1.5 -66.5t-0.5 -80.5q-1 -40 -1 -77v-60
q-1 -87 37 -129q39 -41 94 -41q67 0 108 48.5t41 151.5q0 30 -1 65.5t-2 70.5t-2 68.5t-1 59.5l-2.5 27.5t-2.5 28.5q-2 9 -3 16.5t-2 14.5q0 7 -0.5 13.5t-0.5 13.5q0 6 6.5 14.5t18.5 8.5q14 0 30 -12t28 -29q9 -15 17.5 -42t8.5 -49v-284q0 -123 -66 -195
q-63 -74 -173 -74z" />
    <glyph glyph-name="Uacute" unicode="&#xda;" horiz-adv-x="631" 
d="M240 697q-9 -2 -17 0.5t-11.5 8.5t-1.5 14t13 17q18 15 38 38t37 47q5 6 8.5 13.5t6.5 15.5q2 3 3 5.5t3 6.5l-1 -1q8 25 28 38q4 1 5 2q7 4 12 4h10q21 0 32.5 -18t11.5 -41q0 -11 -6.5 -22.5t-16.5 -24.5q-9 -12 -19 -22t-17 -15q-24 -21 -55.5 -39.5t-62.5 -26.5z
M319 -10q-103 0 -162.5 68t-59.5 196q0 16 -1.5 50t-2.5 73q-2 40 -3.5 80.5t-1.5 70.5q-1 16 -4.5 33.5t-9.5 26.5q-4 5 -8.5 11t-8.5 13q-10 11 -10 25q0 6 7 12.5t19 6.5t34 -7.5t40 -22.5q42 -36 42 -98q-1 -28 -1.5 -66.5t-0.5 -80.5q-1 -40 -1 -77v-60q-1 -87 37 -129
q39 -41 94 -41q67 0 108 48.5t41 151.5q0 30 -1 65.5t-2 70.5t-2 68.5t-1 59.5l-2.5 27.5t-2.5 28.5q-2 9 -3 16.5t-2 14.5q0 7 -0.5 13.5t-0.5 13.5q0 6 6.5 14.5t18.5 8.5q14 0 30 -12t28 -29q9 -15 17.5 -42t8.5 -49v-284q0 -123 -66 -195q-63 -74 -173 -74z" />
    <glyph glyph-name="Ucircumflex" unicode="&#xdb;" horiz-adv-x="631" 
d="M319 -10q-103 0 -162.5 68t-59.5 196q0 16 -1.5 50t-2.5 73q-2 40 -3.5 80.5t-1.5 70.5q-1 16 -4.5 33.5t-9.5 26.5q-4 5 -8.5 11t-8.5 13q-10 11 -10 25q0 6 7 12.5t19 6.5t34 -7.5t40 -22.5q42 -36 42 -98q-1 -28 -1.5 -66.5t-0.5 -80.5q-1 -40 -1 -77v-60
q-1 -87 37 -129q39 -41 94 -41q67 0 108 48.5t41 151.5q0 30 -1 65.5t-2 70.5t-2 68.5t-1 59.5l-2.5 27.5t-2.5 28.5q-2 9 -3 16.5t-2 14.5q0 7 -0.5 13.5t-0.5 13.5q0 6 6.5 14.5t18.5 8.5q14 0 30 -12t28 -29q9 -15 17.5 -42t8.5 -49v-284q0 -123 -66 -195
q-63 -74 -173 -74zM488 827q20 -15 33 -28.5t18 -27.5q6 -16 2 -30.5t-20 -22.5q-17 -8 -36 -5.5t-33 19.5q-32 39 -68 70.5t-72 51.5q-5 -4 -10 -8.5t-10 -9.5l-32 -29h1q-11 -11 -25.5 -24t-31.5 -26q-25 -20 -54 -22.5t-49 -1.5h-5q-19 2 -31 7.5t-12 18.5q-2 10 6 15.5
t22 11.5h-1q5 2 10 4.5t10 4.5q6 2 12.5 5t15.5 8l-1 -1q-2 -2 6 3t12 8q10 6 20.5 13.5t22.5 15.5q9 6 19.5 13.5t21.5 15.5q7 6 15 12.5t16 11.5q-3 9 2 18q5 11 15 14.5t28 -4.5q47 -19 95.5 -45.5t87.5 -55.5z" />
    <glyph glyph-name="Udieresis" unicode="&#xdc;" horiz-adv-x="631" 
d="M138 799q-4 26 10 42t42 16q8 0 20 -2t23 -7q11 -8 18.5 -20.5t4.5 -32.5q-4 -34 -20.5 -45.5t-39.5 -11.5q-28 0 -41 11.5t-17 49.5zM368 799q-4 26 9.5 42t42.5 16q9 0 21 -2t23 -7q11 -8 18.5 -20.5t4.5 -32.5q-4 -34 -21 -45.5t-41 -11.5q-26 0 -39.5 11.5
t-17.5 49.5zM319 -10q-103 0 -162.5 68t-59.5 196q0 16 -1.5 50t-2.5 73q-2 40 -3.5 80.5t-1.5 70.5q-1 16 -4.5 33.5t-9.5 26.5q-4 5 -8.5 11t-8.5 13q-10 11 -10 25q0 6 7 12.5t19 6.5t34 -7.5t40 -22.5q42 -36 42 -98q-1 -28 -1.5 -66.5t-0.5 -80.5q-1 -40 -1 -77v-60
q-1 -87 37 -129q39 -41 94 -41q67 0 108 48.5t41 151.5q0 30 -1 65.5t-2 70.5t-2 68.5t-1 59.5l-2.5 27.5t-2.5 28.5q-2 9 -3 16.5t-2 14.5q0 7 -0.5 13.5t-0.5 13.5q0 6 6.5 14.5t18.5 8.5q14 0 30 -12t28 -29q9 -15 17.5 -42t8.5 -49v-284q0 -123 -66 -195
q-63 -74 -173 -74z" />
    <glyph glyph-name="Yacute" unicode="&#xdd;" horiz-adv-x="659" 
d="M259 697q-9 -2 -17 0.5t-11.5 8.5t-1 14t13.5 17q18 15 37.5 38t37.5 47q5 6 8.5 13.5t6.5 15.5q2 3 2.5 5.5t2.5 6.5l-1 -1q8 25 29 38q4 1 5 2q7 4 11 4h10q22 0 33 -18t11 -41q0 -11 -6.5 -22.5t-15.5 -24.5q-9 -12 -19.5 -22t-16.5 -15q-25 -21 -56.5 -39.5
t-62.5 -26.5zM299 324q-21 26 -43 55.5t-44 57.5q-21 29 -41 54.5t-35 45.5q-12 14 -22.5 24.5t-22.5 17.5q-8 3 -17.5 7.5t-18.5 10.5q-9 5 -15 11.5t-6 15.5q0 10 10 20.5t32 10.5q35 0 70 -10.5t64 -45.5q30 -40 67.5 -92.5t70.5 -100.5q36 45 68.5 86.5t55.5 72.5
q2 4 5 9.5t6 11.5q5 11 10 23q2 6 0 15.5t-5 19.5l-6 18t-3 14q0 9 6 16t19 7q7 0 17.5 -6.5t21.5 -16.5q10 -11 19 -23t14 -24q9 -20 8.5 -49t-18.5 -51q-16 -21 -36.5 -46t-43 -52.5t-47 -55.5t-48.5 -55v-161q0 -22 1 -37t2 -25q1 -11 2.5 -18.5t1.5 -13.5
q0 -36 -14.5 -53t-36.5 -17q-24 0 -35.5 13t-11.5 31v175q0 10 -0.5 23.5t-0.5 28.5v58z" />
    <glyph glyph-name="Thorn" unicode="&#xde;" horiz-adv-x="602" 
d="M131 -105q0 9 -0.5 28t-1.5 41q-2 23 -3 45.5t-1 40.5q-1 16 -2 40.5t-2 59.5q-2 70 -3 147q-1 39 -2 75.5t-2 71.5t-1 60v41q-1 18 -5.5 33t-8.5 22q-7 10 -15 19t-15 16q-7 8 -11.5 15t-4.5 15t7.5 14t19.5 6q23 0 50.5 -11t44.5 -30q17 -18 28.5 -39.5t11.5 -53.5
q-1 -9 -1 -21v-28q-1 -15 -1 -33.5v-38.5q18 21 60 38q41 16 76 16q43 0 81 -18t66 -51q28 -32 44.5 -78t16.5 -101q0 -54 -17 -97.5t-47 -76.5q-29 -32 -69 -50t-88 -18q-33 0 -65.5 9.5t-60.5 26.5q-1 -27 -4.5 -57.5t-8.5 -46.5q-3 -9 -9 -24.5t-14 -30.5t-18.5 -26
t-22.5 -11q-6 0 -7 7t0 11q1 7 2.5 18.5t2.5 24.5zM212 376q-1 -38 -1 -76t-1 -78v-134q26 -12 57 -17.5t60 -5.5q53 -1 91 47q37 48 39 125q0 81 -32.5 120.5t-83.5 40.5q-17 0 -32 -6t-28 -13q-14 -8 -25 -14t-20 -5q-8 0 -14 4.5t-10 11.5z" />
    <glyph glyph-name="germandbls" unicode="&#xdf;" horiz-adv-x="539" 
d="M203 321q-11 0 -23 6.5t-12 28.5q0 7 7 16.5t19 12.5q4 0 12.5 1t20.5 1q35 3 58.5 14.5t37.5 25.5q13 15 19 31t6 30q0 37 -24.5 65.5t-78.5 28.5q-42 0 -68.5 -35t-32.5 -98q-1 -14 -1 -31.5v-32.5v-358q-3 -21 -13.5 -32t-34.5 -11q-14 0 -22 10.5t-13 26.5
q-4 16 -5.5 35t-1.5 36l-1 42l1 284q0 112 55 170q55 60 136 61h1q198 0 200 -165q0 -35 -21 -65.5t-58 -51.5q53 -23 92 -69q39 -45 39 -111q0 -42 -18.5 -77t-48.5 -60q-31 -25 -71 -39t-83 -14q-30 0 -50 5.5t-32 15t-17.5 21.5t-5.5 26q-2 27 8.5 53.5t18.5 39.5
q8 15 15.5 17.5t13.5 -1.5t9 -12t2 -12q-4 -15 -7.5 -31t-1.5 -29q1 -13 10 -21t32 -8q57 0 92.5 33.5t35.5 100.5q0 20 -7.5 42.5t-23.5 40.5q-17 19 -44 31.5t-66 12.5q-6 0 -12.5 -0.5t-13.5 -0.5h-29z" />
    <glyph glyph-name="agrave" unicode="&#xe0;" horiz-adv-x="530" 
d="M341 570q-31 8 -62.5 26.5t-55.5 38.5q-7 6 -17 16t-19 22q-10 13 -16.5 24.5t-6.5 21.5q0 24 11.5 42t32.5 18h10q5 0 12 -4q0 -1 5 -2q21 -15 28 -38l-1 1q2 -4 3 -6.5t3 -6.5q3 -7 6.5 -14.5t8.5 -13.5q17 -24 37 -47.5t38 -37.5q11 -9 13 -17t-1.5 -14t-11.5 -8.5
t-17 -0.5zM155 142q0 -35 23 -59t74 -24q32 0 63 8t52 21v108q-30 10 -63 16.5t-65 6.5q-42 0 -63 -23t-21 -54zM367 32q-26 -18 -59.5 -30.5t-65.5 -12.5q-83 0 -136 41q-52 42 -52 110q0 59 46 101q47 44 128 42q36 -1 72.5 -9.5t66.5 -20.5v7q0 61 -31 95q-32 35 -68 36
q-23 0 -40.5 -7t-35.5 -16q-17 -8 -36 -15t-43 -7q-34 0 -35 18t14 29q21 15 39 30t38 27q19 12 42.5 19.5t56.5 7.5q40 0 75 -18t61 -47q25 -29 40 -67t15 -77l1 -228q0 -22 -12.5 -36.5t-32.5 -14.5q-21 0 -34.5 12t-13.5 31z" />
    <glyph glyph-name="aacute" unicode="&#xe1;" horiz-adv-x="530" 
d="M194 570q-9 -2 -17 0.5t-11.5 8.5t-1.5 14t13 17q18 14 38 37.5t37 47.5q5 6 8.5 13.5t6.5 14.5q2 4 3 6.5t3 6.5l-1 -1q7 23 28 38q4 1 5 2q7 4 12 4h10q21 0 32.5 -18t11.5 -42q0 -10 -6.5 -21.5t-16.5 -24.5q-9 -12 -19 -22t-17 -16q-24 -20 -55.5 -38.5t-62.5 -26.5z
M155 142q0 -35 23 -59t74 -24q32 0 63 8t52 21v108q-30 10 -63 16.5t-65 6.5q-42 0 -63 -23t-21 -54zM367 32q-26 -18 -59.5 -30.5t-65.5 -12.5q-83 0 -136 41q-52 42 -52 110q0 59 46 101q47 44 128 42q36 -1 72.5 -9.5t66.5 -20.5v7q0 61 -31 95q-32 35 -68 36
q-23 0 -40.5 -7t-35.5 -16q-17 -8 -36 -15t-43 -7q-34 0 -35 18t14 29q21 15 39 30t38 27q19 12 42.5 19.5t56.5 7.5q40 0 75 -18t61 -47q25 -29 40 -67t15 -77l1 -228q0 -22 -12.5 -36.5t-32.5 -14.5q-21 0 -34.5 12t-13.5 31z" />
    <glyph glyph-name="acircumflex" unicode="&#xe2;" horiz-adv-x="530" 
d="M155 142q0 -35 23 -59t74 -24q32 0 63 8t52 21v108q-30 10 -63 16.5t-65 6.5q-42 0 -63 -23t-21 -54zM367 32q-26 -18 -59.5 -30.5t-65.5 -12.5q-83 0 -136 41q-52 42 -52 110q0 59 46 101q47 44 128 42q36 -1 72.5 -9.5t66.5 -20.5v7q0 61 -31 95q-32 35 -68 36
q-23 0 -40.5 -7t-35.5 -16q-17 -8 -36 -15t-43 -7q-34 0 -35 18t14 29q21 15 39 30t38 27q19 12 42.5 19.5t56.5 7.5q40 0 75 -18t61 -47q25 -29 40 -67t15 -77l1 -228q0 -22 -12.5 -36.5t-32.5 -14.5q-21 0 -34.5 12t-13.5 31zM447 668q20 -15 33 -28.5t18 -27.5
q6 -16 2 -30.5t-20 -22.5q-17 -8 -36 -5.5t-33 19.5q-32 39 -68 70.5t-72 51.5q-5 -4 -10 -8.5t-10 -9.5l-32 -29h1q-11 -11 -25.5 -24t-31.5 -26q-25 -20 -54 -22.5t-49 -1.5h-5q-19 2 -31 7.5t-12 18.5q-2 10 6 15.5t22 11.5h-1q5 2 10 4.5t10 4.5q6 2 12.5 5t15.5 8
l-1 -1q-2 -2 6 3t12 8q10 6 20.5 13.5t22.5 15.5q9 6 19.5 13.5t21.5 15.5q7 6 15 12.5t16 11.5q-3 9 2 18q5 11 15 14.5t28 -4.5q47 -19 95.5 -45.5t87.5 -55.5z" />
    <glyph glyph-name="atilde" unicode="&#xe3;" horiz-adv-x="530" 
d="M218 654q-11 11 -27 16.5t-24 0.5q-17 -14 -33 -40q-10 -14 -16 -23t-8 -14q-11 -13 -23 -10.5t-20 16.5q-7 11 -7 29.5t9 37.5q11 20 33 42t42 36q11 8 26 11t31 -1q16 -3 33.5 -17.5t37.5 -39.5v1q7 -5 15 -17h-1q9 -13 20 -26q9 -10 18 -16t17 -6q14 0 26 7t22 18
t17.5 25t13.5 28q16 41 27.5 43.5t16.5 -19.5q2 -14 0.5 -36t-7.5 -40q-14 -38 -43 -69v1q-28 -33 -72 -31q-16 1 -28.5 6t-20.5 12q-8 6 -16.5 15t-15.5 17v-1zM155 142q0 -35 23 -59t74 -24q32 0 63 8t52 21v108q-30 10 -63 16.5t-65 6.5q-42 0 -63 -23t-21 -54zM367 32
q-26 -18 -59.5 -30.5t-65.5 -12.5q-83 0 -136 41q-52 42 -52 110q0 59 46 101q47 44 128 42q36 -1 72.5 -9.5t66.5 -20.5v7q0 61 -31 95q-32 35 -68 36q-23 0 -40.5 -7t-35.5 -16q-17 -8 -36 -15t-43 -7q-34 0 -35 18t14 29q21 15 39 30t38 27q19 12 42.5 19.5t56.5 7.5
q40 0 75 -18t61 -47q25 -29 40 -67t15 -77l1 -228q0 -22 -12.5 -36.5t-32.5 -14.5q-21 0 -34.5 12t-13.5 31z" />
    <glyph glyph-name="adieresis" unicode="&#xe4;" horiz-adv-x="530" 
d="M92 652q-4 26 10 42t42 16q9 0 20.5 -2t22.5 -8q11 -7 18.5 -19.5t4.5 -32.5q-4 -34 -20.5 -45.5t-39.5 -11.5q-28 0 -41 11.5t-17 49.5zM322 652q-4 26 9.5 42t42.5 16q9 0 21 -2t23 -8q11 -7 18.5 -19.5t4.5 -32.5q-4 -34 -21 -45.5t-40 -11.5q-27 0 -40.5 11.5
t-17.5 49.5zM155 142q0 -35 23 -59t74 -24q32 0 63 8t52 21v108q-30 10 -63 16.5t-65 6.5q-42 0 -63 -23t-21 -54zM367 32q-26 -18 -59.5 -30.5t-65.5 -12.5q-83 0 -136 41q-52 42 -52 110q0 59 46 101q47 44 128 42q36 -1 72.5 -9.5t66.5 -20.5v7q0 61 -31 95
q-32 35 -68 36q-23 0 -40.5 -7t-35.5 -16q-17 -8 -36 -15t-43 -7q-34 0 -35 18t14 29q21 15 39 30t38 27q19 12 42.5 19.5t56.5 7.5q40 0 75 -18t61 -47q25 -29 40 -67t15 -77l1 -228q0 -22 -12.5 -36.5t-32.5 -14.5q-21 0 -34.5 12t-13.5 31z" />
    <glyph glyph-name="aring" unicode="&#xe5;" horiz-adv-x="530" 
d="M307 661q0 21 -11 35t-30 14q-20 0 -33.5 -14t-13.5 -35q0 -20 13.5 -34t33.5 -14q19 0 30 14t11 34zM368 661q0 -22 -8 -41t-22 -33t-32.5 -22t-39.5 -8q-22 0 -42 8t-35 22t-23.5 33t-8.5 41q0 44 32 74q32 31 77 31q21 0 39.5 -8.5t32.5 -23t22 -33.5t8 -40zM155 142
q0 -35 23 -59t74 -24q32 0 63 8t52 21v108q-30 10 -63 16.5t-65 6.5q-42 0 -63 -23t-21 -54zM367 32q-26 -18 -59.5 -30.5t-65.5 -12.5q-83 0 -136 41q-52 42 -52 110q0 59 46 101q47 44 128 42q36 -1 72.5 -9.5t66.5 -20.5v7q0 61 -31 95q-32 35 -68 36q-23 0 -40.5 -7
t-35.5 -16q-17 -8 -36 -15t-43 -7q-34 0 -35 18t14 29q21 15 39 30t38 27q19 12 42.5 19.5t56.5 7.5q40 0 75 -18t61 -47q25 -29 40 -67t15 -77l1 -228q0 -22 -12.5 -36.5t-32.5 -14.5q-21 0 -34.5 12t-13.5 31z" />
    <glyph glyph-name="ae" unicode="&#xe6;" horiz-adv-x="809" 
d="M133 142q0 -37 23 -62t74 -25q33 0 64 8.5t52 22.5v114q-32 10 -64.5 17t-64.5 7q-39 0 -61.5 -24.5t-22.5 -57.5zM346 35q-26 -17 -60 -29.5t-65 -12.5q-83 0 -136 41q-52 40 -52 106q0 58 46 98q47 42 129 41q35 -1 71.5 -10t66.5 -20v13q0 61 -31 96q-31 36 -67 38
q-23 0 -40.5 -7t-34.5 -16t-36 -16t-44 -7q-17 0 -25 4t-10 10t1.5 12.5t9.5 11.5q21 16 39.5 31t37.5 27q20 12 44 19.5t58 7.5q48 0 87.5 -23.5t64.5 -62.5q30 42 74.5 65t92.5 23q60 -1 96.5 -19.5t59.5 -36.5q24 -21 40.5 -54.5t16.5 -60.5q0 -57 -46 -91
q-46 -32 -109 -34q-48 -1 -90.5 9t-76.5 28q3 -75 36.5 -116t87.5 -41q49 -1 88.5 20.5t64.5 48.5q7 7 15 6t14 -8q5 -6 5.5 -16.5t-6.5 -20.5q-12 -15 -30 -32t-41 -31q-23 -15 -52.5 -24t-65.5 -9q-42 0 -76 12t-60 33q-1 -20 -12.5 -32.5t-31.5 -12.5q-24 0 -36 12
t-12 30zM459 261q36 -16 73 -19.5t79 -2.5q25 0 44 17.5t19 47.5q0 45 -32 72t-78 27q-35 0 -67 -32t-38 -110z" />
    <glyph glyph-name="ccedilla" unicode="&#xe7;" horiz-adv-x="522" 
d="M158 236q-1 -40 9.5 -72t29.5 -55q20 -21 44 -33.5t51 -12.5q51 -1 91 21.5t65 48.5v-1q15 17 29 -5q6 -8 3.5 -18.5t-10.5 -21.5q-12 -16 -29.5 -33t-40.5 -31q-30 -19 -62 -26q2 -22 -22 -53q-6 -6 -7 -8q35 -10 60 -35t25 -57q-1 -27 -12.5 -46.5t-30.5 -32.5t-45 -19
t-56 -4q-8 1 -20.5 5.5t-19.5 7.5q-12 8 -20 17.5t-6 18.5q2 5 7.5 9t10.5 4h8q2 0 5.5 -0.5t6.5 -0.5q5 -1 16 -1t19 1q17 2 31 13t17 34q0 13 -11 26.5t-28 19.5h2q-4 2 -5 2q-12 -6 -20 -7q-18 -4 -23.5 4t-3.5 20q1 10 5 19.5t10 19.5q5 8 11 20.5t5 19.5
q-42 7 -76 27.5t-58 46.5q-29 34 -43.5 78.5t-13.5 89.5q0 57 19 101.5t49 75.5q31 31 70 48.5t80 18.5q42 0 78 -20q38 -19 54 -35q1 -2 3 0t2 7q0 12 4 26.5t14 14.5q27 0 39 -32q9 -26 10 -58q0 -24 -13.5 -35t-24.5 -11q-9 -2 -20.5 4t-24.5 15q-13 8 -26 17t-23 14
q-14 8 -34 11t-37 3q-19 0 -39 -8.5t-36 -28.5q-18 -20 -30 -51t-12 -77zM249 -6q1 -2 1 0h-1z" />
    <glyph glyph-name="egrave" unicode="&#xe8;" horiz-adv-x="535" 
d="M341 570q-31 8 -62.5 26.5t-55.5 38.5q-7 6 -17 16t-19 22q-10 13 -16.5 24.5t-6.5 21.5q0 24 11.5 42t32.5 18h10q5 0 12 -4q0 -1 5 -2q21 -15 28 -38l-1 1q2 -4 3 -6.5t3 -6.5q3 -7 6.5 -14.5t8.5 -13.5q17 -24 37 -47.5t38 -37.5q11 -9 13 -17t-1.5 -14t-11.5 -8.5
t-17 -0.5zM170 214q3 -72 36.5 -111.5t88.5 -39.5q51 -1 90.5 20.5t64.5 47.5q6 7 14 5.5t13 -9.5q5 -7 6 -18t-7 -21q-13 -16 -31 -33.5t-41 -32.5q-23 -14 -52.5 -23.5t-63.5 -9.5q-57 0 -99 21t-70 56t-41 79.5t-13 90.5q0 55 18 100t48 77t69 49.5t81 17.5
q57 -2 93.5 -20.5t59.5 -36.5q12 -11 23 -25.5t19 -30.5t13 -32.5t5 -30.5q0 -30 -13 -54t-35 -40q-21 -17 -49.5 -26t-58.5 -9q-48 -1 -91.5 9.5t-76.5 29.5zM170 264q36 -15 74 -18.5t80 -2.5q27 0 45 17t18 45q0 42 -30.5 68t-78.5 26q-18 0 -36 -7t-33 -23t-25.5 -42
t-13.5 -63z" />
    <glyph glyph-name="eacute" unicode="&#xe9;" horiz-adv-x="535" 
d="M194 570q-9 -2 -17 0.5t-11.5 8.5t-1.5 14t13 17q18 14 38 37.5t37 47.5q5 6 8.5 13.5t6.5 14.5q2 4 3 6.5t3 6.5l-1 -1q7 23 28 38q4 1 5 2q7 4 12 4h10q21 0 32.5 -18t11.5 -42q0 -10 -6.5 -21.5t-16.5 -24.5q-9 -12 -19 -22t-17 -16q-24 -20 -55.5 -38.5t-62.5 -26.5z
M170 214q3 -72 36.5 -111.5t88.5 -39.5q51 -1 90.5 20.5t64.5 47.5q6 7 14 5.5t13 -9.5q5 -7 6 -18t-7 -21q-13 -16 -31 -33.5t-41 -32.5q-23 -14 -52.5 -23.5t-63.5 -9.5q-57 0 -99 21t-70 56t-41 79.5t-13 90.5q0 55 18 100t48 77t69 49.5t81 17.5q57 -2 93.5 -20.5
t59.5 -36.5q12 -11 23 -25.5t19 -30.5t13 -32.5t5 -30.5q0 -30 -13 -54t-35 -40q-21 -17 -49.5 -26t-58.5 -9q-48 -1 -91.5 9.5t-76.5 29.5zM170 264q36 -15 74 -18.5t80 -2.5q27 0 45 17t18 45q0 42 -30.5 68t-78.5 26q-18 0 -36 -7t-33 -23t-25.5 -42t-13.5 -63z" />
    <glyph glyph-name="ecircumflex" unicode="&#xea;" horiz-adv-x="535" 
d="M170 214q3 -72 36.5 -111.5t88.5 -39.5q51 -1 90.5 20.5t64.5 47.5q6 7 14 5.5t13 -9.5q5 -7 6 -18t-7 -21q-13 -16 -31 -33.5t-41 -32.5q-23 -14 -52.5 -23.5t-63.5 -9.5q-57 0 -99 21t-70 56t-41 79.5t-13 90.5q0 55 18 100t48 77t69 49.5t81 17.5q57 -2 93.5 -20.5
t59.5 -36.5q12 -11 23 -25.5t19 -30.5t13 -32.5t5 -30.5q0 -30 -13 -54t-35 -40q-21 -17 -49.5 -26t-58.5 -9q-48 -1 -91.5 9.5t-76.5 29.5zM170 264q36 -15 74 -18.5t80 -2.5q27 0 45 17t18 45q0 42 -30.5 68t-78.5 26q-18 0 -36 -7t-33 -23t-25.5 -42t-13.5 -63zM447 668
q20 -15 33 -28.5t18 -27.5q6 -16 2 -30.5t-20 -22.5q-17 -8 -36 -5.5t-33 19.5q-32 39 -68 70.5t-72 51.5q-5 -4 -10 -8.5t-10 -9.5l-32 -29h1q-11 -11 -25.5 -24t-31.5 -26q-25 -20 -54 -22.5t-49 -1.5h-5q-19 2 -31 7.5t-12 18.5q-2 10 6 15.5t22 11.5h-1q5 2 10 4.5
t10 4.5q6 2 12.5 5t15.5 8l-1 -1q-2 -2 6 3t12 8q10 6 20.5 13.5t22.5 15.5q9 6 19.5 13.5t21.5 15.5q7 6 15 12.5t16 11.5q-3 9 2 18q5 11 15 14.5t28 -4.5q47 -19 95.5 -45.5t87.5 -55.5z" />
    <glyph glyph-name="edieresis" unicode="&#xeb;" horiz-adv-x="535" 
d="M92 652q-4 26 10 42t42 16q9 0 20.5 -2t22.5 -8q11 -7 18.5 -19.5t4.5 -32.5q-4 -34 -20.5 -45.5t-39.5 -11.5q-28 0 -41 11.5t-17 49.5zM322 652q-4 26 9.5 42t42.5 16q9 0 21 -2t23 -8q11 -7 18.5 -19.5t4.5 -32.5q-4 -34 -21 -45.5t-40 -11.5q-27 0 -40.5 11.5
t-17.5 49.5zM170 214q3 -72 36.5 -111.5t88.5 -39.5q51 -1 90.5 20.5t64.5 47.5q6 7 14 5.5t13 -9.5q5 -7 6 -18t-7 -21q-13 -16 -31 -33.5t-41 -32.5q-23 -14 -52.5 -23.5t-63.5 -9.5q-57 0 -99 21t-70 56t-41 79.5t-13 90.5q0 55 18 100t48 77t69 49.5t81 17.5
q57 -2 93.5 -20.5t59.5 -36.5q12 -11 23 -25.5t19 -30.5t13 -32.5t5 -30.5q0 -30 -13 -54t-35 -40q-21 -17 -49.5 -26t-58.5 -9q-48 -1 -91.5 9.5t-76.5 29.5zM170 264q36 -15 74 -18.5t80 -2.5q27 0 45 17t18 45q0 42 -30.5 68t-78.5 26q-18 0 -36 -7t-33 -23t-25.5 -42
t-13.5 -63z" />
    <glyph glyph-name="igrave" unicode="&#xec;" horiz-adv-x="256" 
d="M204 570q-31 8 -62.5 26.5t-55.5 38.5q-7 6 -17 16t-19 22q-10 13 -16.5 24.5t-6.5 21.5q0 24 11.5 42t32.5 18h10q5 0 12 -4q0 -1 5 -2q21 -15 28 -38l-1 1q2 -4 3 -6.5t3 -6.5q3 -7 6.5 -14.5t8.5 -13.5q17 -24 37 -47.5t38 -37.5q11 -9 13 -17t-1.5 -14t-11.5 -8.5
t-17 -0.5zM95 50v129q0 42 -3 93q-1 26 -2 47t-2 38q-1 6 -1.5 13.5t-1.5 13.5q0 14 -5 22q-5 7 -10.5 15.5t-9.5 16.5q-10 13 -10 27q0 7 7.5 13.5t19.5 6.5q14 0 35 -8.5t39 -26.5q18 -20 27 -43t9 -44v-308q0 -21 -13 -35t-31 -14q-24 0 -36 13t-12 31z" />
    <glyph glyph-name="iacute" unicode="&#xed;" horiz-adv-x="256" 
d="M57 570q-9 -2 -17 0.5t-11.5 8.5t-1.5 14t13 17q19 14 38.5 37.5t36.5 47.5q5 6 8.5 13.5t6.5 14.5q2 4 3 6.5t3 6.5l-1 -1q7 23 28 38q4 1 5 2q7 4 12 4h10q21 0 32.5 -18t11.5 -42q0 -10 -6.5 -21.5t-16.5 -24.5q-8 -12 -18.5 -22t-17.5 -16q-24 -20 -55.5 -38.5
t-62.5 -26.5zM95 50v129q0 42 -3 93q-1 26 -2 47t-2 38q-1 6 -1.5 13.5t-1.5 13.5q0 14 -5 22q-5 7 -10.5 15.5t-9.5 16.5q-10 13 -10 27q0 7 7.5 13.5t19.5 6.5q14 0 35 -8.5t39 -26.5q18 -20 27 -43t9 -44v-308q0 -21 -13 -35t-31 -14q-24 0 -36 13t-12 31z" />
    <glyph glyph-name="icircumflex" unicode="&#xee;" horiz-adv-x="467" 
d="M213 50v129q0 42 -3 93q-1 26 -2 47t-2 38q-1 6 -1.5 13.5t-1.5 13.5q0 14 -5 22q-5 7 -10.5 15.5t-9.5 16.5q-10 13 -10 27q0 7 7.5 13.5t19.5 6.5q14 0 35 -8.5t39 -26.5q18 -20 27 -43t9 -44v-308q0 -21 -13 -35t-31 -14q-24 0 -36 13t-12 31zM422 668
q20 -15 33 -28.5t18 -27.5q6 -16 2 -30.5t-20 -22.5q-17 -8 -36 -5.5t-33 19.5q-32 39 -68 70.5t-72 51.5q-5 -4 -10 -8.5t-10 -9.5l-32 -29h1q-11 -11 -25.5 -24t-31.5 -26q-25 -20 -54 -22.5t-49 -1.5h-5q-19 2 -31 7.5t-12 18.5q-2 10 6 15.5t22 11.5h-1q5 2 10 4.5
t10 4.5q6 2 12.5 5t15.5 8l-1 -1q-2 -2 6 3t12 8q10 6 20.5 13.5t22.5 15.5q9 6 19.5 13.5t21.5 15.5q7 6 15 12.5t16 11.5q-3 9 2 18q5 11 15 14.5t28 -4.5q47 -19 95.5 -45.5t87.5 -55.5z" />
    <glyph glyph-name="idieresis" unicode="&#xef;" horiz-adv-x="403" 
d="M22 652q-3 26 10.5 42t41.5 16q9 0 21 -2t22 -8q12 -7 19.5 -19.5t4.5 -32.5q-4 -34 -20.5 -45.5t-40.5 -11.5q-27 0 -40.5 11.5t-17.5 49.5zM252 652q-4 26 10 42t42 16q10 0 22 -2t22 -8q12 -7 19.5 -19.5t4.5 -32.5q-4 -34 -21.5 -45.5t-40.5 -11.5q-26 0 -39.5 11.5
t-18.5 49.5zM173 50v129q0 42 -3 93q-1 26 -2 47t-2 38q-1 6 -1.5 13.5t-1.5 13.5q0 14 -5 22q-5 7 -10.5 15.5t-9.5 16.5q-10 13 -10 27q0 7 7.5 13.5t19.5 6.5q14 0 35 -8.5t39 -26.5q18 -20 27 -43t9 -44v-308q0 -21 -13 -35t-31 -14q-24 0 -36 13t-12 31z" />
    <glyph glyph-name="eth" unicode="&#xf0;" horiz-adv-x="550" 
d="M349 331q-5 0 -10.5 0.5t-11.5 2.5q-6 1 -11.5 2t-9.5 1q-71 0 -105 -40t-34 -92q0 -33 8.5 -59t22 -44t31.5 -27t38 -9q61 1 94.5 61.5t34.5 181.5q0 66 -10 115.5t-27 84.5q-1 0 -1 -0.5t-1 -0.5t-10 -5t-21 -12t-25.5 -14t-23.5 -13q-15 -8 -38 -19t-66 -29
q-17 -7 -29 -2t-18 16q-6 10 -3 22t17 19q27 13 44 22.5t32 17.5q14 8 31 17.5t44 24.5q6 3 13 7t13 8q-16 14 -33 21t-32 7q-33 0 -64.5 -13t-53.5 -43q-9 -12 -19 -13t-17 6q-8 7 -10 18.5t5 24.5q8 14 22.5 29.5t34.5 29.5q20 13 46 22t57 9q39 0 73 -14t61 -38
q6 6 13.5 13t15.5 16q5 7 8.5 14.5t6.5 14.5t6.5 14t9.5 13q8 11 19.5 13t18.5 -4q20 -18 18 -59q-1 -40 -32 -75q-6 -9 -14 -14t-20 -11q28 -49 43.5 -114t15.5 -140q0 -72 -18 -127.5t-48 -93.5q-30 -39 -69 -58.5t-81 -18.5q-95 0 -153 58q-57 58 -57 152q0 45 18 80.5
t48 60.5q30 26 67.5 40t76.5 14q20 0 42 -3t32 -8q10 -4 17 -11.5t7 -13.5q0 -17 -8.5 -26t-20.5 -9z" />
    <glyph glyph-name="ntilde" unicode="&#xf1;" horiz-adv-x="547" 
d="M118 40q0 10 -0.5 29t-1.5 41q-1 23 -2.5 45.5t-1.5 40.5q-1 15 -2.5 38t-3.5 47q-1 24 -3 45t-2 33q-2 17 -6.5 33t-7.5 23q-7 10 -15 18.5t-15 16.5q-7 7 -11.5 14.5t-4.5 15.5t8 13t19 5q21 0 48 -10.5t46 -28.5q8 -8 14.5 -16.5t12.5 -18.5q18 21 46 37.5t61 16.5
q80 0 131 -62q52 -61 52 -172v-43q0 -13 0.5 -26.5t0.5 -22.5q0 -14 1 -27.5t2 -25.5t2.5 -22.5t1.5 -16.5q0 -36 -14.5 -53.5t-37.5 -17.5q-21 0 -34 12.5t-13 32.5v175q0 15 -0.5 33t-0.5 32q-6 60 -32.5 92t-66.5 32q-25 0 -46.5 -11.5t-38.5 -26.5q-1 -16 -2 -40t-1 -49
q-1 -26 -1.5 -49t-0.5 -38q0 -14 -1.5 -31t-3.5 -36t-4.5 -33t-5.5 -23q-2 -9 -7.5 -22.5t-13.5 -26.5t-17.5 -22t-19.5 -9q-6 0 -10.5 4.5t-2.5 12.5q2 7 3.5 18.5t2.5 23.5zM223 655q-11 12 -27 17.5t-24 0.5q-10 -8 -17.5 -18t-15.5 -22q-10 -14 -16 -23t-9 -14
q-10 -13 -22.5 -10.5t-20.5 16.5q-6 11 -6 29.5t9 37.5q11 20 33 42t42 36q11 8 26 11t30 -1q17 -3 34 -17.5t38 -39.5v1q8 -6 14 -17q9 -13 20 -26q9 -10 18 -16t17 -6q14 0 26 7t22 18t17.5 25t13.5 28q16 41 27.5 43.5t16.5 -19.5q1 -14 0 -36t-7 -40q-14 -38 -43 -69v1
q-28 -33 -72 -31q-16 1 -28.5 6t-20.5 12q-8 6 -16.5 15t-15.5 17v-1z" />
    <glyph glyph-name="ograve" unicode="&#xf2;" horiz-adv-x="575" 
d="M371 570q-31 8 -62.5 26.5t-56.5 38.5q-6 6 -16.5 16t-19.5 22q-10 13 -16 24.5t-6 21.5q0 24 11 42t33 18h9q5 0 12 -4q0 -1 5 -2q22 -15 28 -38l-1 1q2 -4 3 -6.5t3 -6.5q3 -7 6.5 -14.5t8.5 -13.5q18 -24 37.5 -47.5t37.5 -37.5q11 -9 13.5 -17t-1 -14t-11.5 -8.5
t-17 -0.5zM60 241q0 45 17 88t49 76q32 34 77 54.5t100 20.5q40 -1 79 -18.5t70 -49.5q30 -32 49.5 -76.5t19.5 -99.5q0 -54 -19 -98.5t-50 -77.5q-31 -34 -71 -52.5t-82 -18.5t-84 14.5t-76 45.5q-35 30 -57 78t-22 114zM158 246q0 -45 11 -78t29.5 -54t44 -31t55.5 -10
q20 0 42 10.5t40 30.5q18 21 29.5 51t11.5 72q-1 36 -12 65.5t-28 50.5q-18 21 -39.5 33t-43.5 12q-30 0 -55.5 -13t-44.5 -34t-29.5 -48.5t-10.5 -56.5z" />
    <glyph glyph-name="oacute" unicode="&#xf3;" horiz-adv-x="575" 
d="M223 570q-9 -2 -17 0.5t-11.5 8.5t-1.5 14t13 17q19 14 38.5 37.5t37.5 47.5q5 6 8 13.5t6 14.5q2 4 3 6.5t3 6.5l-1 -1q7 24 29 38q4 1 5 2q5 4 11 4h10q21 0 32.5 -18t11.5 -42q0 -10 -6.5 -21.5t-15.5 -24.5q-9 -12 -19.5 -22t-17.5 -16q-24 -20 -55.5 -38.5
t-62.5 -26.5zM60 241q0 45 17 88t49 76q32 34 77 54.5t100 20.5q40 -1 79 -18.5t70 -49.5q30 -32 49.5 -76.5t19.5 -99.5q0 -54 -19 -98.5t-50 -77.5q-31 -34 -71 -52.5t-82 -18.5t-84 14.5t-76 45.5q-35 30 -57 78t-22 114zM158 246q0 -45 11 -78t29.5 -54t44 -31t55.5 -10
q20 0 42 10.5t40 30.5q18 21 29.5 51t11.5 72q-1 36 -12 65.5t-28 50.5q-18 21 -39.5 33t-43.5 12q-30 0 -55.5 -13t-44.5 -34t-29.5 -48.5t-10.5 -56.5z" />
    <glyph glyph-name="ocircumflex" unicode="&#xf4;" horiz-adv-x="575" 
d="M60 241q0 45 17 88t49 76q32 34 77 54.5t100 20.5q40 -1 79 -18.5t70 -49.5q30 -32 49.5 -76.5t19.5 -99.5q0 -54 -19 -98.5t-50 -77.5q-31 -34 -71 -52.5t-82 -18.5t-84 14.5t-76 45.5q-35 30 -57 78t-22 114zM158 246q0 -45 11 -78t29.5 -54t44 -31t55.5 -10
q20 0 42 10.5t40 30.5q18 21 29.5 51t11.5 72q-1 36 -12 65.5t-28 50.5q-18 21 -39.5 33t-43.5 12q-30 0 -55.5 -13t-44.5 -34t-29.5 -48.5t-10.5 -56.5zM476 668q20 -15 33 -28.5t18 -27.5q6 -16 2 -30.5t-20 -22.5q-17 -8 -36 -5.5t-33 19.5q-32 39 -68 70.5t-72 51.5
q-5 -4 -10 -8.5t-10 -9.5l-32 -29h1q-11 -11 -25.5 -24t-31.5 -26q-25 -20 -54 -22.5t-49 -1.5h-5q-19 2 -31 7.5t-12 18.5q-2 10 6 15.5t22 11.5h-1q5 2 10 4.5t10 4.5q6 2 12.5 5t15.5 8l-1 -1q-2 -2 6 3t12 8q10 6 20.5 13.5t22.5 15.5q9 6 19.5 13.5t21.5 15.5
q7 6 15 12.5t16 11.5q-3 9 2 18q5 11 15 14.5t28 -4.5q47 -19 95.5 -45.5t87.5 -55.5z" />
    <glyph glyph-name="otilde" unicode="&#xf5;" horiz-adv-x="575" 
d="M247 654q-11 11 -26.5 16.5t-23.5 0.5q-10 -8 -18 -18t-16 -22q-9 -14 -15 -23t-9 -14q-11 -13 -23 -10.5t-20 16.5q-7 11 -7 29.5t10 37.5q11 20 32.5 42t41.5 36q12 8 26.5 11t30.5 -1q16 -3 33.5 -17.5t37.5 -39.5v1q7 -5 15 -17h-1q5 -7 10.5 -13.5t10.5 -12.5
q8 -10 17.5 -16t17.5 -6q14 0 25.5 7t21.5 18t17.5 25t13.5 28q16 41 27.5 43.5t16.5 -19.5q2 -14 0.5 -36t-7.5 -40q-7 -19 -17.5 -36.5t-25.5 -32.5v1q-14 -17 -32.5 -24.5t-38.5 -6.5q-17 1 -29 6t-20 12q-9 6 -17.5 15t-14.5 17v-1zM60 241q0 45 17 88t49 76
q32 34 77 54.5t100 20.5q40 -1 79 -18.5t70 -49.5q30 -32 49.5 -76.5t19.5 -99.5q0 -54 -19 -98.5t-50 -77.5q-31 -34 -71 -52.5t-82 -18.5t-84 14.5t-76 45.5q-35 30 -57 78t-22 114zM158 246q0 -45 11 -78t29.5 -54t44 -31t55.5 -10q20 0 42 10.5t40 30.5q18 21 29.5 51
t11.5 72q-1 36 -12 65.5t-28 50.5q-18 21 -39.5 33t-43.5 12q-30 0 -55.5 -13t-44.5 -34t-29.5 -48.5t-10.5 -56.5z" />
    <glyph glyph-name="odieresis" unicode="&#xf6;" horiz-adv-x="575" 
d="M116 652q-3 26 10.5 42t41.5 16q9 0 21 -2t22 -8q12 -7 19.5 -19.5t4.5 -32.5q-4 -34 -21 -45.5t-40 -11.5q-27 0 -40.5 11.5t-17.5 49.5zM346 652q-4 26 10 42t42 16q10 0 21.5 -2t22.5 -8q12 -7 19.5 -19.5t4.5 -32.5q-4 -34 -21.5 -45.5t-40.5 -11.5q-26 0 -39.5 11.5
t-18.5 49.5zM60 241q0 45 17 88t49 76q32 34 77 54.5t100 20.5q40 -1 79 -18.5t70 -49.5q30 -32 49.5 -76.5t19.5 -99.5q0 -54 -19 -98.5t-50 -77.5q-31 -34 -71 -52.5t-82 -18.5t-84 14.5t-76 45.5q-35 30 -57 78t-22 114zM158 246q0 -45 11 -78t29.5 -54t44 -31t55.5 -10
q20 0 42 10.5t40 30.5q18 21 29.5 51t11.5 72q-1 36 -12 65.5t-28 50.5q-18 21 -39.5 33t-43.5 12q-30 0 -55.5 -13t-44.5 -34t-29.5 -48.5t-10.5 -56.5z" />
    <glyph glyph-name="divide" unicode="&#xf7;" horiz-adv-x="550" 
d="M111 289q-12 5 -28.5 18t-25.5 29q-9 13 -5 24.5t21 11.5q21 -1 52.5 -1t65.5 1q35 1 69 2.5t61 4.5q15 1 30.5 4t30.5 6t28.5 5.5t24.5 2.5q13 0 27 -4.5t25 -12.5t18 -18.5t7 -22.5q0 -16 -15 -26.5t-30 -10.5q-12 0 -23 1t-21 3q-22 5 -39 5q-23 0 -54 -2.5t-64 -5.5
q-34 -3 -66 -7.5t-56 -8.5q-5 0 -9 -1t-8 -1t-8 0.5t-8 3.5zM226 551q-3 27 11.5 43.5t40.5 16.5q9 0 21.5 -2t23.5 -9t18 -19.5t5 -33.5q-4 -30 -21 -53t-40 -23q-27 0 -41 23t-18 57zM226 152q-3 26 11.5 42.5t40.5 16.5q9 0 21.5 -2t23.5 -9q11 -6 18 -18.5t5 -33.5
q-4 -30 -21 -53t-40 -23q-27 0 -41 23t-18 57z" />
    <glyph glyph-name="oslash" unicode="&#xf8;" horiz-adv-x="575" 
d="M131 -37q3 8 7 16.5t8 17.5q4 8 8 17.5t9 19.5q-45 29 -74 80.5t-29 126.5q0 45 17 86.5t49 74.5t76 53t101 20q6 0 13.5 -1t14.5 -1q1 9 2 16t1 13q0 9 -2.5 17t-4.5 16q-2 7 -4 14.5t-2 16.5q0 25 18 25q33 0 58 -34t25 -80q0 -5 -2.5 -14t-6.5 -21q46 -30 77 -83.5
t31 -122.5q0 -52 -19 -96.5t-49 -77.5q-31 -32 -71 -50.5t-83 -18.5q-18 0 -35.5 2t-35.5 8q-10 -16 -16 -32l-8 -16t-7 -15q-8 -15 -21.5 -17.5t-25.5 1.5q-12 5 -18.5 15.5t-0.5 23.5zM197 113q15 34 28.5 66.5t23.5 58.5q6 16 13.5 35.5t15.5 40.5t16 43l16 44
q-4 0 -7 0.5t-6 0.5q-29 0 -54.5 -13t-44.5 -35t-29.5 -50t-10.5 -58q0 -45 10.5 -78t28.5 -55zM381 357q-6 -15 -12 -29.5t-12 -29.5q-6 -14 -12 -28.5t-11 -27.5q-18 -43 -36.5 -85t-36.5 -84q8 -3 17.5 -3.5t19.5 -0.5q19 0 41 10.5t40 31.5t30 52.5t12 73.5
q0 36 -11.5 67t-28.5 53z" />
    <glyph glyph-name="ugrave" unicode="&#xf9;" horiz-adv-x="555" 
d="M341 570q-31 8 -62.5 26.5t-55.5 38.5q-7 6 -17 16t-19 22q-10 13 -16.5 24.5t-6.5 21.5q0 24 11.5 42t32.5 18h10q5 0 12 -4q0 -1 5 -2q21 -15 28 -38l-1 1q2 -4 3 -6.5t3 -6.5q3 -7 6.5 -14.5t8.5 -13.5q17 -24 37 -47.5t38 -37.5q11 -9 13 -17t-1.5 -14t-11.5 -8.5
t-17 -0.5zM479 153q0 -21 1 -36t2 -25q1 -11 2.5 -18.5t1.5 -13.5q0 -36 -14.5 -53.5t-36.5 -17.5q-24 0 -36 11.5t-12 23.5v30q-4 -8 -15.5 -19t-27.5 -21q-16 -11 -35.5 -18t-40.5 -7q-78 0 -128 55q-24 28 -38 67.5t-14 90.5q0 13 -1 33.5t-2 43.5t-2 48t-1 49
q-1 12 -4 25.5t-8 22.5q-3 4 -7 8.5t-7 9.5q-7 12 -7 21q0 6 6 11.5t16 5.5q4 0 14.5 -1.5t22.5 -4.5t23.5 -7.5t19.5 -10.5q33 -30 33 -80q-1 -22 -1.5 -46.5t-0.5 -48.5v-46.5v-40.5q-1 -70 23 -93q26 -23 68 -23q43 0 76 39q34 38 34 100q0 16 -1 37.5t-1 44.5
q-1 22 -2 44.5t-2 40.5q-1 13 -4.5 24.5t-6.5 16.5q-4 5 -8.5 11.5t-8.5 12.5q-9 14 -9 24q0 6 4.5 13.5t16.5 7.5q21 -1 44.5 -8.5t39.5 -22.5q15 -15 24.5 -34t9.5 -40v-236z" />
    <glyph glyph-name="uacute" unicode="&#xfa;" horiz-adv-x="555" 
d="M194 570q-9 -2 -17 0.5t-11.5 8.5t-1.5 14t13 17q18 14 38 37.5t37 47.5q5 6 8.5 13.5t6.5 14.5q2 4 3 6.5t3 6.5l-1 -1q7 23 28 38q4 1 5 2q7 4 12 4h10q21 0 32.5 -18t11.5 -42q0 -10 -6.5 -21.5t-16.5 -24.5q-9 -12 -19 -22t-17 -16q-24 -20 -55.5 -38.5t-62.5 -26.5z
M479 153q0 -21 1 -36t2 -25q1 -11 2.5 -18.5t1.5 -13.5q0 -36 -14.5 -53.5t-36.5 -17.5q-24 0 -36 11.5t-12 23.5v30q-4 -8 -15.5 -19t-27.5 -21q-16 -11 -35.5 -18t-40.5 -7q-78 0 -128 55q-24 28 -38 67.5t-14 90.5q0 13 -1 33.5t-2 43.5t-2 48t-1 49q-1 12 -4 25.5
t-8 22.5q-3 4 -7 8.5t-7 9.5q-7 12 -7 21q0 6 6 11.5t16 5.5q4 0 14.5 -1.5t22.5 -4.5t23.5 -7.5t19.5 -10.5q33 -30 33 -80q-1 -22 -1.5 -46.5t-0.5 -48.5v-46.5v-40.5q-1 -70 23 -93q26 -23 68 -23q43 0 76 39q34 38 34 100q0 16 -1 37.5t-1 44.5q-1 22 -2 44.5t-2 40.5
q-1 13 -4.5 24.5t-6.5 16.5q-4 5 -8.5 11.5t-8.5 12.5q-9 14 -9 24q0 6 4.5 13.5t16.5 7.5q21 -1 44.5 -8.5t39.5 -22.5q15 -15 24.5 -34t9.5 -40v-236z" />
    <glyph glyph-name="ucircumflex" unicode="&#xfb;" horiz-adv-x="555" 
d="M479 153q0 -21 1 -36t2 -25q1 -11 2.5 -18.5t1.5 -13.5q0 -36 -14.5 -53.5t-36.5 -17.5q-24 0 -36 11.5t-12 23.5v30q-4 -8 -15.5 -19t-27.5 -21q-16 -11 -35.5 -18t-40.5 -7q-78 0 -128 55q-24 28 -38 67.5t-14 90.5q0 13 -1 33.5t-2 43.5t-2 48t-1 49q-1 12 -4 25.5
t-8 22.5q-3 4 -7 8.5t-7 9.5q-7 12 -7 21q0 6 6 11.5t16 5.5q4 0 14.5 -1.5t22.5 -4.5t23.5 -7.5t19.5 -10.5q33 -30 33 -80q-1 -22 -1.5 -46.5t-0.5 -48.5v-46.5v-40.5q-1 -70 23 -93q26 -23 68 -23q43 0 76 39q34 38 34 100q0 16 -1 37.5t-1 44.5q-1 22 -2 44.5t-2 40.5
q-1 13 -4.5 24.5t-6.5 16.5q-4 5 -8.5 11.5t-8.5 12.5q-9 14 -9 24q0 6 4.5 13.5t16.5 7.5q21 -1 44.5 -8.5t39.5 -22.5q15 -15 24.5 -34t9.5 -40v-236zM449 668q20 -15 33 -28.5t18 -27.5q6 -16 2 -30.5t-20 -22.5q-17 -8 -36 -5.5t-33 19.5q-32 39 -68 70.5t-72 51.5
q-5 -4 -10 -8.5t-10 -9.5l-32 -29h1q-11 -11 -25.5 -24t-31.5 -26q-25 -20 -54 -22.5t-49 -1.5h-5q-19 2 -31 7.5t-12 18.5q-2 10 6 15.5t22 11.5h-1q5 2 10 4.5t10 4.5q6 2 12.5 5t15.5 8l-1 -1q-2 -2 6 3t12 8q10 6 20.5 13.5t22.5 15.5q9 6 19.5 13.5t21.5 15.5
q7 6 15 12.5t16 11.5q-3 9 2 18q5 11 15 14.5t28 -4.5q47 -19 95.5 -45.5t87.5 -55.5z" />
    <glyph glyph-name="udieresis" unicode="&#xfc;" horiz-adv-x="555" 
d="M92 652q-4 26 10 42t42 16q9 0 20.5 -2t22.5 -8q11 -7 18.5 -19.5t4.5 -32.5q-4 -34 -20.5 -45.5t-39.5 -11.5q-28 0 -41 11.5t-17 49.5zM322 652q-4 26 9.5 42t42.5 16q9 0 21 -2t23 -8q11 -7 18.5 -19.5t4.5 -32.5q-4 -34 -21 -45.5t-40 -11.5q-27 0 -40.5 11.5
t-17.5 49.5zM479 153q0 -21 1 -36t2 -25q1 -11 2.5 -18.5t1.5 -13.5q0 -36 -14.5 -53.5t-36.5 -17.5q-24 0 -36 11.5t-12 23.5v30q-4 -8 -15.5 -19t-27.5 -21q-16 -11 -35.5 -18t-40.5 -7q-78 0 -128 55q-24 28 -38 67.5t-14 90.5q0 13 -1 33.5t-2 43.5t-2 48t-1 49
q-1 12 -4 25.5t-8 22.5q-3 4 -7 8.5t-7 9.5q-7 12 -7 21q0 6 6 11.5t16 5.5q4 0 14.5 -1.5t22.5 -4.5t23.5 -7.5t19.5 -10.5q33 -30 33 -80q-1 -22 -1.5 -46.5t-0.5 -48.5v-46.5v-40.5q-1 -70 23 -93q26 -23 68 -23q43 0 76 39q34 38 34 100q0 16 -1 37.5t-1 44.5
q-1 22 -2 44.5t-2 40.5q-1 13 -4.5 24.5t-6.5 16.5q-4 5 -8.5 11.5t-8.5 12.5q-9 14 -9 24q0 6 4.5 13.5t16.5 7.5q21 -1 44.5 -8.5t39.5 -22.5q15 -15 24.5 -34t9.5 -40v-236z" />
    <glyph glyph-name="yacute" unicode="&#xfd;" horiz-adv-x="510" 
d="M171 570q-9 -2 -17 0.5t-11.5 8.5t-1 14t13.5 17q18 14 37.5 37.5t37.5 47.5q5 6 8.5 13.5t6.5 14.5q2 4 2.5 6.5t2.5 6.5l-1 -1q7 24 29 38q4 1 5 2q7 4 11 4h10q22 0 33 -18t11 -42q0 -10 -6.5 -21.5t-15.5 -24.5q-9 -12 -19.5 -22t-16.5 -16q-25 -20 -56.5 -38.5
t-62.5 -26.5zM246 75q-5 8 -13 23.5t-18 34.5q-10 20 -21.5 42.5t-21.5 45.5q-5 8 -13.5 24.5t-18.5 35.5q-11 19 -21.5 37.5t-17.5 30.5q-5 8 -9.5 15t-8.5 14q-5 6 -9 11.5t-8 10.5q-5 4 -13 9t-16 11q-7 5 -12.5 11.5t-5.5 14.5q0 11 8.5 20t25.5 9q38 0 75.5 -18
t58.5 -58q7 -14 16.5 -34t19.5 -41q9 -22 18 -42t15 -35q4 -13 9 -26l10 -26t10 -25.5l9 -22.5q3 7 5.5 14t5.5 13l12 27q6 14 15 37.5t19 48.5q9 25 17 48t13 36q2 9 4 23t2 23q0 7 -6.5 16.5t-13.5 19.5t-13 19t-6 16q0 8 7 14.5t16 6.5q18 0 44 -11.5t46 -30.5
q14 -15 23.5 -42.5t0.5 -54.5q-6 -18 -16.5 -44t-23.5 -55t-27 -59.5t-26 -56.5q-16 -33 -35.5 -73t-40.5 -80q-21 -42 -42.5 -80t-40.5 -69q-12 -19 -22.5 -27t-22.5 -8q-15 0 -29 20q-13 19 2 46q10 20 21.5 41.5t23.5 43.5t23.5 45t22.5 46q-2 4 -3.5 8t-2.5 7z" />
    <glyph glyph-name="thorn" unicode="&#xfe;" horiz-adv-x="602" 
d="M132 -136q0 9 -0.5 28.5t-1.5 42.5q-2 22 -3 45t-1 41q-1 15 -2 42.5t-2 62.5t-1.5 75t-1.5 82t-2 81.5t-1 74.5q-1 35 -1.5 62.5t-0.5 43.5q-1 18 -6 34t-9 24q-7 11 -15 19.5t-15 15.5q-6 7 -10.5 13.5t-4.5 12.5t7 11.5t19 5.5q24 0 52 -11t45 -29t28 -39t11 -51
q-1 -9 -1 -23.5v-32.5q-1 -19 -1 -40.5v-44.5q18 21 59 35q44 14 76 14q90 0 149 -62q60 -62 60 -171q0 -52 -17 -94t-46 -72q-30 -30 -70.5 -46t-88.5 -16q-33 0 -65.5 10t-59.5 26v-28q0 -14 -1 -29.5t-3 -34.5q-5 -38 -9 -56q-3 -8 -9 -21.5t-14 -25.5q-8 -13 -18.5 -22
t-22.5 -9q-6 0 -7 4.5t0 8.5q1 7 2.5 18.5t2.5 24.5zM213 357q-1 -36 -1 -72.5v-71.5q-1 -36 -1 -69v-61q27 -12 58 -17t59 -5q27 0 50.5 11t41 32.5t28 53t10.5 70.5q0 82 -32.5 117.5t-83.5 36.5q-16 0 -31 -6t-28 -14q-14 -7 -26 -13.5t-21 -5.5q-14 0 -23 14z" />
    <glyph glyph-name="ydieresis" unicode="&#xff;" horiz-adv-x="510" 
d="M99 648q-5 28 9.5 43t42.5 15q8 0 20 -2t23 -7q11 -8 18.5 -20.5t4.5 -32.5q-5 -34 -21 -45t-39 -11q-28 0 -41 11t-17 49zM329 648q-4 28 9.5 43t41.5 15q10 0 22 -2t23 -7q11 -8 18.5 -20.5t4.5 -32.5q-6 -34 -22 -45t-40 -11q-26 0 -39.5 11t-17.5 49zM246 75
q-5 8 -13 23.5t-18 34.5q-10 20 -21.5 42.5t-21.5 45.5q-5 8 -13.5 24.5t-18.5 35.5q-11 19 -21.5 37.5t-17.5 30.5q-5 8 -9.5 15t-8.5 14q-5 6 -9 11.5t-8 10.5q-5 4 -13 9t-16 11q-7 5 -12.5 11.5t-5.5 14.5q0 11 8.5 20t25.5 9q38 0 75.5 -18t58.5 -58q7 -14 16.5 -34
t19.5 -41q9 -22 18 -42t15 -35q4 -13 9 -26l10 -26t10 -25.5l9 -22.5q3 7 5.5 14t5.5 13l12 27q6 14 15 37.5t19 48.5q9 25 17 48t13 36q2 9 4 23t2 23q0 7 -6.5 16.5t-13.5 19.5t-13 19t-6 16q0 8 7 14.5t16 6.5q18 0 44 -11.5t46 -30.5q14 -15 23.5 -42.5t0.5 -54.5
q-6 -18 -16.5 -44t-23.5 -55t-27 -59.5t-26 -56.5q-16 -33 -35.5 -73t-40.5 -80q-21 -42 -42.5 -80t-40.5 -69q-12 -19 -22.5 -27t-22.5 -8q-15 0 -29 20q-13 19 2 46q10 20 21.5 41.5t23.5 43.5t23.5 45t22.5 46q-2 4 -3.5 8t-2.5 7z" />
    <glyph glyph-name="dotlessi" unicode="&#x131;" horiz-adv-x="256" 
d="M105 54v128q0 41 -2.5 92t-4.5 84q-1 6 -1.5 13.5t-1.5 15.5q-1 7 -2.5 13t-3.5 10q-5 7 -10.5 15t-9.5 15q-4 8 -6.5 14t-2.5 11q0 6 7 11.5t19 5.5q16 0 37.5 -8t38.5 -26q18 -20 26.5 -42t8.5 -43v-305q0 -21 -12.5 -33.5t-31.5 -12.5q-24 0 -36 12t-12 30z" />
    <glyph glyph-name="OE" unicode="&#x152;" horiz-adv-x="1024" 
d="M157 330q0 -54 10 -101t31 -82t52.5 -55.5t75.5 -20.5q62 0 102 24.5t75 64.5q5 6 13.5 5t14.5 -7t6.5 -16t-8.5 -22q-17 -23 -37.5 -45t-47.5 -40q-26 -18 -58 -29t-71 -11q-72 0 -122.5 29.5t-81.5 77.5q-32 47 -46 107t-14 121q0 77 18 139.5t51 106.5t78.5 67
t99.5 23q32 -1 56 -9t43 -19q18 -12 32 -25t26 -24q4 -4 7 -1.5t3 17.5q0 12 4 30.5t15 18.5q8 0 14.5 -4t12.5 -9q59 -3 108 -2.5t106 5.5q21 2 43 5.5t42 6.5q21 4 39.5 6.5t34.5 2.5q30 0 51.5 -17t21.5 -39q0 -23 -17.5 -31.5t-32.5 -8.5q-10 0 -20 1t-21 3
q-10 2 -20.5 3.5t-20.5 1.5q-41 0 -83 -5.5t-80 -11.5q-7 -47 -11.5 -94.5t-6.5 -93.5q11 0 23 0.5t24 0.5q11 1 23 1.5t24 2.5q15 1 28.5 4t27.5 7q13 3 27.5 5.5t32.5 2.5q31 0 57.5 -16.5t26.5 -40.5q0 -17 -16 -27.5t-33 -10.5q-14 0 -25.5 1t-23.5 3q-11 2 -22 3.5
t-21 1.5q-22 0 -41 -1.5t-37 -4.5q-19 -2 -38 -5.5t-41 -7.5q-2 -46 -2.5 -88.5t0.5 -78.5q0 -27 10 -36t40 -9q49 0 76 4t47 9q19 4 38.5 8.5t52.5 4.5t52.5 -18t19.5 -36q0 -22 -24 -35.5t-66 -13.5q-30 0 -58 -1.5t-55 -3.5q-28 -2 -55.5 -3t-56.5 -1q-57 0 -83 32.5
t-26 86.5q0 38 1 86t4 100q-13 8 -25 17t-19 18q-14 12 -9.5 26t21.5 14q4 -1 8 -1h10q4 -1 8 -1h10q3 45 6.5 90t9.5 88h-10q-4 0 -8 2q-3 1 -5 2l-8 4q-2 1 -4 3q0 -5 0.5 -9t0.5 -8t0.5 -7t0.5 -5q0 -30 -13 -43t-28 -13q-11 0 -24 9t-28 22q-14 13 -30.5 26t-32.5 21
q-23 11 -42.5 16t-43.5 5q-28 0 -53.5 -14.5t-45.5 -43.5q-20 -30 -32 -76.5t-12 -110.5z" />
    <glyph glyph-name="oe" unicode="&#x153;" horiz-adv-x="874" 
d="M44 242q0 44 17 86t48 75q32 33 76.5 53t100.5 20q46 -1 91.5 -23.5t77.5 -63.5q30 42 74 64.5t93 22.5q59 -1 96 -19.5t59 -36.5q24 -21 41 -54.5t17 -60.5q0 -57 -46.5 -90.5t-109.5 -34.5q-47 -1 -90 9t-77 28q3 -74 36.5 -115.5t87.5 -41.5q49 -1 89 20.5t65 48.5
q7 7 15 6t13 -8q5 -6 5.5 -16.5t-7.5 -20.5q-12 -15 -29.5 -32t-40.5 -31q-23 -15 -52.5 -24t-64.5 -9q-62 0 -106 24t-70 63q-32 -40 -77.5 -63.5t-93.5 -23.5q-42 0 -84 14.5t-77 44.5q-34 30 -55.5 77t-21.5 112zM140 247q0 -93 42 -135.5t99 -41.5q19 0 41 10.5t41 31.5
q18 21 29.5 52.5t11.5 73.5q-1 37 -12 67t-29 52t-40 34t-43 12q-29 0 -54.5 -13t-44.5 -35t-30 -50t-11 -58zM513 262q35 -16 72.5 -19.5t79.5 -2.5q25 0 44 17.5t19 47.5q0 44 -32 71.5t-78 27.5q-35 0 -67.5 -32t-37.5 -110z" />
    <glyph glyph-name="Scaron" unicode="&#x160;" horiz-adv-x="541" 
d="M175 500q-1 -39 31 -67t105 -56q36 -14 69 -32.5t59 -42.5t41.5 -55t15.5 -71q0 -38 -17.5 -70.5t-46.5 -56.5t-68.5 -37.5t-84.5 -13.5q-40 0 -75 11t-64 29q-30 18 -53.5 41t-39.5 46q-12 15 -12.5 24.5t5.5 12.5q14 9 38 -10q36 -35 84 -59.5t102 -24.5q28 0 51.5 8.5
t40 23t25.5 32.5t9 38q0 50 -28.5 81t-96.5 58q-32 12 -66 29t-61 40q-28 23 -45.5 52.5t-17.5 67.5q0 21 8 49.5t28 54.5q21 26 55.5 44t88.5 19q20 0 40.5 -6.5t40 -17t37 -24.5t29.5 -29q5 -4 7 -1.5t2 17.5q0 6 0.5 14.5t2.5 16t5.5 13t9.5 5.5q17 0 28 -15t18 -35
q6 -21 9 -41t3 -30q0 -30 -12.5 -43t-29.5 -13q-11 -1 -23 8t-26 22q-13 13 -28 27t-30 25q-21 15 -37.5 20.5t-37.5 5.5q-45 0 -67 -28q-21 -29 -21 -56zM206 773q-11 8 -21.5 15.5t-19.5 13.5q-12 8 -22.5 15.5t-19.5 13.5q-5 3 -13 8t-6 3l1 -1q-9 5 -15 8t-12 5
q-5 2 -10.5 4.5t-10.5 4.5h1q-14 6 -22 11.5t-6 15.5q0 13 12 18.5t31 7.5h6h22.5t26 -2t27.5 -7t26 -15q17 -13 31.5 -26t25.5 -24h-1l32 -29q5 -5 10 -9.5t10 -9.5q10 6 19 12t23 15q26 17 47.5 34t38.5 31q7 7 9 13t2 14q0 11 2 17t14 11q10 2 25 -12t21 -42
q2 -17 -1 -32.5t-17 -26.5v1q-39 -29 -71 -46q-34 -20 -71 -40q-25 -14 -41 -20.5t-26 -7t-15.5 3.5t-8.5 12q-5 9 -2 18q-8 5 -15.5 11.5t-15.5 12.5z" />
    <glyph glyph-name="scaron" unicode="&#x161;" horiz-adv-x="434" 
d="M160 356q0 -27 22 -46t74 -37q25 -11 50 -24.5t45 -31.5q19 -18 31.5 -41.5t12.5 -54.5q0 -28 -14 -52t-37 -42q-24 -18 -55.5 -28t-67.5 -10q-57 0 -109 31q-26 16 -46.5 33.5t-36.5 36.5q-9 10 -8.5 20t6.5 16q5 6 14 7t17 -6q31 -32 74 -52.5t80 -20.5q33 0 56 18.5
t23 46.5q0 34 -19 53.5t-67 39.5q-24 8 -49.5 20t-46.5 29q-22 17 -35.5 40t-13.5 54q0 15 6.5 36t23.5 40t45 32.5t70 14.5q36 0 68 -17t51 -40q0 -1 -0.5 0t-0.5 12q0 6 -0.5 13t0.5 13q0 6 3 10.5t10 4.5q11 0 20.5 -8t16.5 -20.5t11 -29t4 -32.5q0 -24 -12 -35.5
t-31 -11.5q-11 0 -23 5t-23 12q-12 8 -23 16.5t-21 16.5q-29 18 -46 18q-23 0 -36 -14.5t-13 -34.5zM162 626q-11 8 -21.5 15.5t-20.5 13.5q-11 8 -21.5 15.5t-20.5 13.5q-4 3 -12 8t-6 3l1 -1q-9 5 -15.5 8t-12.5 5q-5 2 -10 4.5t-10 4.5h1q-14 6 -22.5 11.5t-6.5 15.5
q0 13 12.5 18.5t30.5 7.5h6q20 1 49 -1.5t54 -22.5q17 -13 31.5 -26t25.5 -24h-1l32 -29q5 -5 10 -9.5t10 -9.5q9 6 18.5 12t23.5 15q26 17 47.5 34t38.5 31q7 7 9 13t2 14q0 11 2 17t13 11q11 2 25.5 -12t20.5 -42q3 -17 0 -32.5t-17 -26.5v1q-39 -29 -71 -46
q-34 -20 -71 -40q-25 -14 -41 -20.5t-26 -7t-15.5 3.5t-8.5 12q-5 9 -2 18q-8 5 -16 11.5t-15 12.5z" />
    <glyph glyph-name="Ydieresis" unicode="&#x178;" horiz-adv-x="604" 
d="M289 324q-21 26 -43 55.5t-44 57.5q-21 29 -41 54.5t-35 45.5q-12 14 -22.5 24.5t-22.5 17.5q-8 3 -17.5 7.5t-18.5 10.5q-9 5 -15 11.5t-6 15.5q0 10 10 20.5t32 10.5q35 0 70 -10.5t64 -45.5q30 -40 67.5 -92.5t70.5 -100.5q36 45 68.5 86.5t55.5 72.5q2 4 5 9.5
t6 11.5q5 11 10 23q2 6 0 15.5t-5 19.5l-6 18t-3 14q0 9 6 16t19 7q7 0 17.5 -6.5t21.5 -16.5q10 -11 19 -23t14 -24q9 -20 8.5 -49t-18.5 -51q-16 -21 -36.5 -46t-43 -52.5t-47 -55.5t-48.5 -55v-161q0 -22 1 -37t2 -25q1 -11 2.5 -18.5t1.5 -13.5q0 -36 -14.5 -53
t-36.5 -17q-24 0 -35.5 13t-11.5 31v175q0 10 -0.5 23.5t-0.5 28.5v58zM148 799q-4 26 10 42t42 16q8 0 20 -2t23 -7q11 -8 18.5 -20.5t4.5 -32.5q-4 -34 -20.5 -45.5t-39.5 -11.5q-28 0 -41 11.5t-17 49.5zM378 799q-4 26 9.5 42t42.5 16q9 0 21 -2t23 -7q11 -8 18.5 -20.5
t4.5 -32.5q-4 -34 -21 -45.5t-41 -11.5q-26 0 -39.5 11.5t-17.5 49.5z" />
    <glyph glyph-name="Zcaron" unicode="&#x17d;" horiz-adv-x="666" 
d="M452 575q0 4 -15 4q-33 -1 -70 -7.5t-74 -13.5q-37 -8 -70.5 -14t-58.5 -6q-10 0 -23 4.5t-26 11.5t-24 15.5t-17 15.5q-13 12 -7 27.5t24 15.5q38 0 80 1t84 3q42 3 80.5 6.5t71.5 9.5q3 1 10.5 4.5t16.5 7.5q10 3 19 6.5t15 3.5q15 0 32.5 -8.5t32.5 -22.5
q15 -15 25.5 -35t10.5 -44q0 -6 -7 -20t-19 -32.5t-28.5 -41.5t-34.5 -47t-38 -49.5t-39.5 -49.5t-37 -45.5t-32.5 -37.5q-33 -36 -72 -76t-79 -76q48 0 98 1.5t80 4.5q28 2 51 6t42 8q20 3 37.5 6t35.5 3q15 0 30 -5t27 -13t19.5 -18.5t7.5 -21.5q0 -21 -14.5 -34.5
t-38.5 -13.5q-11 0 -22 1.5t-22 3.5q-12 2 -25 4t-27 2q-35 0 -72.5 -2t-75.5 -5t-74 -7t-68 -8q-9 -2 -22.5 -3t-22.5 4q-14 5 -33 21t-31 31q-11 14 -3.5 26.5t25.5 10.5q2 0 5 -0.5t6 -0.5h14q39 45 86.5 104.5t92.5 119.5q26 36 50.5 72t47.5 72q46 75 66 121zM256 773
q-11 8 -21.5 15.5t-19.5 13.5q-12 8 -22.5 15.5t-19.5 13.5q-5 3 -13 8t-6 3l1 -1q-9 5 -15 8t-12 5q-5 2 -10.5 4.5t-10.5 4.5h1q-14 6 -22 11.5t-6 15.5q0 13 12 18.5t31 7.5h6h22.5t26 -2t27.5 -7t26 -15q17 -13 31.5 -26t25.5 -24h-1l32 -29q5 -5 10 -9.5t10 -9.5
q10 6 19 12t23 15q26 17 47.5 34t38.5 31q7 7 9 13t2 14q0 11 2 17t14 11q10 2 25 -12t21 -42q2 -17 -1 -32.5t-17 -26.5v1q-39 -29 -71 -46q-34 -20 -71 -40q-25 -14 -41 -20.5t-26 -7t-15.5 3.5t-8.5 12q-5 9 -2 18q-8 5 -15.5 11.5t-15.5 12.5z" />
    <glyph glyph-name="zcaron" unicode="&#x17e;" horiz-adv-x="473" 
d="M324 399h-12q-31 0 -57 -5t-48 -11t-40.5 -11t-33.5 -4q-9 0 -20 5t-22 13q-10 7 -19 15.5t-13 14.5q-10 11 -5 24t23 13q22 -2 50 -1.5t58 2.5q30 1 59.5 3.5t54.5 6.5q2 0 8.5 3t13.5 6q8 3 15 6t12 3q12 0 26.5 -8t27.5 -20q12 -13 21 -29.5t9 -33.5q0 -10 -18 -37
t-42 -58q-25 -32 -51 -62.5t-43 -48.5q-26 -29 -55 -57t-57 -52q27 0 53.5 1.5t44.5 3.5q22 1 39 4t31 6t26 5t24 2q25 0 49 -18q25 -16 25 -34q0 -17 -13 -31.5t-32 -14.5t-36 4q-10 1 -20.5 2.5t-21.5 1.5q-28 0 -51.5 -1.5t-46.5 -4.5q-23 -2 -46 -5t-48 -6
q-8 -2 -19.5 -2.5t-17.5 3.5q-13 7 -32.5 22.5t-28.5 30.5q-7 12 -2 23t20 9q6 -1 13 -1h16q16 17 33.5 37t37.5 44t36.5 45.5t30.5 41.5q23 31 47.5 72t46.5 83zM192 626q-11 8 -21.5 15.5t-20.5 13.5q-11 8 -21.5 15.5t-20.5 13.5q-4 3 -12 8t-6 3l1 -1q-9 5 -15.5 8
t-12.5 5q-5 2 -10 4.5t-10 4.5h1q-14 6 -22.5 11.5t-6.5 15.5q0 13 12.5 18.5t30.5 7.5h6q20 1 49 -1.5t54 -22.5q17 -13 31.5 -26t25.5 -24h-1l32 -29q5 -5 10 -9.5t10 -9.5q9 6 18.5 12t23.5 15q26 17 47.5 34t38.5 31q7 7 9 13t2 14q0 11 2 17t13 11q11 2 25.5 -12
t20.5 -42q3 -17 0 -32.5t-17 -26.5v1q-39 -29 -71 -46q-34 -20 -71 -40q-25 -14 -41 -20.5t-26 -7t-15.5 3.5t-8.5 12q-5 9 -2 18q-8 5 -16 11.5t-15 12.5z" />
    <glyph glyph-name="florin" unicode="&#x192;" horiz-adv-x="442" 
d="M261 32q-9 -100 -45.5 -156.5t-102.5 -56.5q-45 0 -75 25.5t-51 73.5q-5 12 -6.5 22.5t4.5 17.5t17 8.5t17 -9.5q33 -65 80 -65q32 0 50 40t23 110q6 85 4.5 170.5t-7.5 171.5q-3 -1 -7.5 -2t-7.5 -2q-7 -2 -15 -2t-14 3q-15 5 -30.5 19t-24.5 28q-8 10 -3.5 21.5
t12.5 11.5q20 0 43.5 1t47.5 3v33t2 32q7 81 47 121q43 38 96 38q18 0 36.5 -8t34.5 -20q15 -12 25 -25.5t10 -23.5q0 -27 -14.5 -38t-30.5 -11q-10 0 -18 6.5t-16 14.5q-7 8 -15 15t-17 7q-11 0 -21 -4.5t-17.5 -15.5t-12.5 -31t-5 -50v-31q7 1 15.5 3t17.5 4q18 5 30 5
q8 0 19 -4.5t21 -11.5q10 -8 17.5 -17.5t7.5 -19.5q0 -21 -14.5 -32.5t-26.5 -11.5t-25 3q-14 2 -31 2.5t-31 -1.5q3 -45 5.5 -92t4 -93.5t1.5 -91.5t-4 -84z" />
    <glyph glyph-name="circumflex" unicode="&#x2c6;" horiz-adv-x="631" 
d="M506 668q20 -15 33 -28.5t18 -27.5q6 -16 2 -30.5t-20 -22.5q-17 -8 -36 -5.5t-33 19.5q-32 39 -68 70.5t-72 51.5q-5 -4 -10 -8.5t-10 -9.5l-32 -29h1q-11 -11 -25.5 -24t-31.5 -26q-25 -20 -54 -22.5t-49 -1.5h-5q-19 2 -31 7.5t-12 18.5q-2 10 6 15.5t22 11.5h-1
q5 2 10 4.5t10 4.5q6 2 12.5 5t15.5 8l-1 -1q-2 -2 6 3t12 8q10 6 20.5 13.5t22.5 15.5q9 6 19.5 13.5t21.5 15.5q7 6 15 12.5t16 11.5q-3 9 2 18q5 11 15 14.5t28 -4.5q47 -19 95.5 -45.5t87.5 -55.5z" />
    <glyph glyph-name="tilde" unicode="&#x2dc;" horiz-adv-x="545" 
d="M228 654q-11 11 -27 16.5t-24 0.5q-17 -14 -33 -40q-10 -14 -16 -23t-8 -14q-11 -13 -23 -10.5t-20 16.5q-7 11 -7 29.5t9 37.5q11 20 33 42t42 36q11 8 26 11t31 -1q16 -3 33.5 -17.5t37.5 -39.5v1q7 -5 15 -17h-1q9 -13 20 -26q9 -10 18 -16t17 -6q14 0 26 7t22 18
t17.5 25t13.5 28q16 41 27.5 43.5t16.5 -19.5q2 -14 0.5 -36t-7.5 -40q-14 -38 -43 -69v1q-28 -33 -72 -31q-16 1 -28.5 6t-20.5 12q-8 6 -16.5 15t-15.5 17v-1z" />
    <glyph glyph-name="endash" unicode="&#x2013;" 
d="M106 237q-11 3 -28 16t-26 29q-9 12 -5 24t22 12q42 -2 98 0t110 7q15 1 30 3.5t30 5.5t28.5 5.5t25.5 2.5q13 0 27 -4.5t24.5 -12t17.5 -17.5t7 -22q0 -17 -14.5 -27.5t-29.5 -10.5q-12 0 -23 1t-21 3q-10 1 -20 2.5t-19 1.5q-45 0 -98.5 -7t-101.5 -14q-5 -1 -9 -2
t-8 -1t-8.5 1t-8.5 4z" />
    <glyph glyph-name="emdash" unicode="&#x2014;" horiz-adv-x="1024" 
d="M119 229q-20 8 -36.5 24t-26.5 31q-8 13 -4.5 27.5t21.5 11.5q14 -2 31 -3.5t33 -1.5q169 -3 331 2t296 13q27 2 57.5 9.5t56.5 7.5q17 0 34 -5t31 -13t22.5 -18.5t8.5 -22.5q0 -17 -14.5 -30.5t-40.5 -13.5q-23 0 -47.5 4t-45.5 4q-87 0 -175 -2.5t-173 -6.5t-165 -9.5
t-150 -11.5q-13 -1 -25 0t-19 4z" />
    <glyph glyph-name="quoteleft" unicode="&#x2018;" 
d="M431 769q5 2 12 0t12 -8q4 -5 4.5 -12t-6.5 -14q-27 -24 -38 -41t-15 -42q18 -8 28.5 -29t14.5 -49q3 -27 -11.5 -43.5t-39.5 -16.5q-9 0 -22 1.5t-24 8.5q-12 6 -20 18.5t-7 34.5v4t1 4q0 3 0.5 5t1.5 4q-1 13 1 28t8 31q9 31 29 63t71 53z" />
    <glyph glyph-name="quoteright" unicode="&#x2019;" 
d="M100 514q-6 -3 -13 -0.5t-11 7.5q-5 5 -5 12.5t8 14.5q26 24 37 40.5t14 43.5q-19 6 -29 27.5t-13 50.5q-3 26 11 42.5t40 16.5q9 0 21.5 -2t23.5 -8q11 -7 19 -19t8 -33q0 -3 -0.5 -5t-0.5 -4t-0.5 -4t-0.5 -4q0 -13 -1.5 -28.5t-6.5 -30.5q-11 -32 -31 -64t-70 -53z
" />
    <glyph glyph-name="quotesinglbase" unicode="&#x201a;" horiz-adv-x="276" 
d="M108 -119q-6 -3 -13.5 -0.5t-11.5 7.5q-12 12 3 27q26 24 37 40t14 43q-18 6 -28.5 28t-13.5 51q-3 26 11 42.5t40 16.5q9 0 21.5 -2t23.5 -8q11 -7 19 -19t8 -33q0 -5 -1 -9.5t-1 -7.5q0 -28 -8 -60q-5 -16 -12 -32.5t-18.5 -31.5t-28.5 -28.5t-41 -23.5z" />
    <glyph glyph-name="quotedblleft" unicode="&#x201c;" 
d="M441 769q6 2 12.5 0t11.5 -8q4 -5 4 -12t-7 -14q-27 -24 -37.5 -41t-13.5 -42q18 -8 28.5 -29t14.5 -49q3 -27 -12 -43.5t-40 -16.5q-9 0 -22 1.5t-24 8.5q-11 6 -19 18.5t-7 34.5q0 4 0.5 8.5t1.5 8.5q-1 13 1 28t8 31q9 31 29 63t71 53zM281 769q5 2 12 0t12 -8
q4 -5 4 -12t-7 -14q-27 -24 -38 -41t-14 -42q18 -8 28.5 -29t14.5 -49q3 -27 -12 -43.5t-39 -16.5q-10 0 -22.5 1.5t-24.5 8.5q-11 6 -19 18.5t-7 34.5q0 4 0.5 8.5t1.5 8.5q-1 13 1 28t8 31q10 31 30 63t71 53z" />
    <glyph glyph-name="quotedblright" unicode="&#x201d;" 
d="M81 514q-6 -3 -13 -0.5t-11 7.5q-5 5 -5 12.5t8 14.5q26 24 37.5 40.5t14.5 43.5q-19 6 -29.5 27.5t-13.5 50.5q-3 26 11 42.5t40 16.5q9 0 21.5 -2t23.5 -8q12 -7 20 -19t8 -33q0 -3 -0.5 -5t-1.5 -4q0 -3 -0.5 -5t-0.5 -4q0 -13 -2 -28t-7 -30q-10 -32 -30 -64t-70 -53
zM242 514q-6 -3 -13 -0.5t-12 7.5q-4 5 -4.5 12.5t7.5 14.5q27 24 37.5 40.5t14.5 43.5q-18 6 -29 27.5t-14 50.5q-3 26 11.5 42.5t40.5 16.5q9 0 21.5 -2t23.5 -8q11 -7 19 -19t8 -33q0 -5 -1 -9.5t-1 -8.5q0 -13 -2 -28t-7 -30q-10 -32 -30 -64t-70 -53z" />
    <glyph glyph-name="quotedblbase" unicode="&#x201e;" 
d="M81 -119q-6 -3 -13 -0.5t-11 7.5q-5 5 -5 12.5t8 14.5q26 24 37.5 40.5t14.5 43.5q-19 6 -29.5 27.5t-13.5 50.5q-3 26 11 42.5t40 16.5q9 0 21.5 -2t23.5 -8q12 -7 20 -19t8 -33q0 -3 -0.5 -5t-1.5 -4q0 -3 -0.5 -5t-0.5 -4q0 -13 -2 -28t-7 -30q-10 -32 -30 -64
t-70 -53zM242 -119q-6 -3 -13 -0.5t-12 7.5q-4 5 -4.5 12.5t7.5 14.5q27 24 37.5 40.5t14.5 43.5q-18 6 -29 27.5t-14 50.5q-3 26 11.5 42.5t40.5 16.5q9 0 21.5 -2t23.5 -8q11 -7 19 -19t8 -33q0 -5 -1 -9.5t-1 -8.5q0 -13 -2 -28t-7 -30q-10 -32 -30 -64t-70 -53z" />
    <glyph glyph-name="dagger" unicode="&#x2020;" horiz-adv-x="619" 
d="M120 433q-11 3 -27.5 17.5t-26.5 29.5q-8 13 -4.5 25t21.5 12h92.5t82.5 2q-1 26 -1.5 48t-1.5 39q-1 16 -5.5 31.5t-8.5 22.5q-7 10 -15.5 18.5l-15.5 15.5q-7 8 -11.5 15t-4.5 15t7.5 13.5t18.5 5.5q19 0 46.5 -10.5t46.5 -28.5q17 -20 29 -42.5t12 -48.5v-90
q4 0 7.5 0.5t7.5 0.5l30 2t30 4t28.5 5.5t25.5 2.5q13 0 27 -4.5t24.5 -12t17.5 -17.5t7 -22q0 -17 -14.5 -27.5t-29.5 -10.5q-12 0 -23 1t-21 3q-10 1 -20 2.5t-19 1.5q-21 0 -40.5 -0.5t-37.5 -1.5v-556q0 -20 -13 -33.5t-31 -13.5q-24 0 -35.5 12.5t-11.5 31.5v265v36.5
t-0.5 51t-1 61t-0.5 66.5q-1 18 -1 36v35q-26 -2 -52.5 -5t-53.5 -6q-5 -1 -9 -2t-8 -1t-8.5 1t-8.5 4z" />
    <glyph glyph-name="daggerdbl" unicode="&#x2021;" horiz-adv-x="619" 
d="M120 433q-11 3 -27.5 17.5t-26.5 29.5q-8 13 -4.5 25t21.5 12h92.5t82.5 2q-1 26 -1.5 48t-1.5 39q-1 16 -5.5 31.5t-8.5 22.5q-7 10 -15.5 18.5l-15.5 15.5q-7 8 -11.5 15t-4.5 15t7.5 13.5t18.5 5.5q19 0 46.5 -10.5t46.5 -28.5q17 -20 29 -42.5t12 -48.5v-90
q4 0 7.5 0.5t7.5 0.5l30 2t30 4t28.5 5.5t25.5 2.5q13 0 27 -4.5t24.5 -12t17.5 -17.5t7 -22q0 -17 -14.5 -27.5t-29.5 -10.5q-12 0 -23 1t-21 3q-10 1 -20 2.5t-19 1.5q-21 0 -40.5 -0.5t-37.5 -1.5v-337q4 0 7.5 0.5t7.5 0.5l30 2t30 4t28.5 5.5t25.5 2.5q13 0 27 -4.5
t24.5 -12t17.5 -17.5t7 -22q0 -17 -14.5 -27.5t-29.5 -10.5q-12 0 -23 1t-21 3q-10 1 -20 2.5t-19 1.5q-21 0 -40.5 -0.5t-37.5 -1.5v-146q0 -20 -13 -33.5t-31 -13.5q-24 0 -35.5 12.5t-11.5 31.5v142l-54 -6t-55 -6q-5 -1 -9 -2t-8 -1t-8.5 1t-8.5 4q-11 3 -27.5 17.5
t-26.5 29.5q-8 13 -4.5 25t21.5 12h95.5t84.5 2v47v36.5t-0.5 51t-1 61t-0.5 66.5q-1 18 -1 36v35q-26 -2 -52.5 -5t-53.5 -6q-5 -1 -9 -2t-8 -1t-8.5 1t-8.5 4z" />
    <glyph glyph-name="bullet" unicode="&#x2022;" horiz-adv-x="276" 
d="M86 298q-4 33 13.5 53.5t50.5 20.5q11 0 27 -2.5t30 -10.5t23 -24t6 -42q-2 -19 -8.5 -36.5t-16.5 -31t-23 -21.5t-28 -8q-34 0 -51.5 29.5t-22.5 72.5z" />
    <glyph glyph-name="ellipsis" unicode="&#x2026;" horiz-adv-x="1024" 
d="M122 296q-3 27 11 43.5t40 16.5q9 0 22 -2t24 -9t18 -19.5t5 -33.5q-4 -30 -21 -52.5t-41 -22.5q-27 0 -40.5 23t-17.5 56zM454 296q-3 27 10.5 43.5t40.5 16.5q8 0 20.5 -2t23.5 -9t18 -19.5t4 -33.5q-4 -30 -20 -52.5t-39 -22.5q-27 0 -40.5 23t-17.5 56zM783 296
q-3 27 11.5 43.5t40.5 16.5q9 0 21.5 -2t23.5 -9t18 -19.5t5 -33.5q-4 -30 -21 -52.5t-40 -22.5q-27 0 -40.5 23t-18.5 56z" />
    <glyph glyph-name="perthousand" unicode="&#x2030;" horiz-adv-x="1024" 
d="M84 471q3 36 13.5 72t30.5 64q20 29 50.5 46t74.5 16q30 -2 51.5 -18.5t34.5 -44.5q12 -28 15 -65t-3 -78q-15 -83 -52.5 -123t-103.5 -40q-57 0 -88.5 42t-22.5 129zM164 473q-8 -45 -0.5 -69t34.5 -24q22 -1 42 18.5t29 71.5q9 46 0 78.5t-25 36.5q-20 4 -34 -5.5
t-23 -26.5t-14.5 -38.5t-8.5 -41.5zM355 128q3 36 13.5 72t30.5 64t50 45t73 16q30 -2 52 -18.5t35 -44.5q12 -28 15 -64.5t-3 -77.5q-15 -84 -52.5 -123.5t-103.5 -39.5q-56 0 -87.5 42t-22.5 129zM435 130q-9 -45 -1 -69t34 -24q24 -1 43 18.5t29 71.5q8 45 -0.5 78
t-26.5 36q-20 4 -33 -5t-22 -26t-14.5 -38.5t-8.5 -41.5zM675 128q3 36 13.5 72t30.5 64t50.5 45t74.5 16q30 -2 51.5 -18.5t34.5 -44.5t16 -64.5t-4 -77.5q-15 -84 -53 -123.5t-104 -39.5q-55 0 -87 42t-23 129zM756 130q-9 -45 -1 -69t33 -24q23 -1 43.5 18.5t29.5 71.5
q7 45 -1 78t-25 36q-20 4 -33.5 -5t-22.5 -26t-14.5 -38.5t-8.5 -41.5zM89 22q26 33 54 68t54 69t49.5 65t42.5 56q37 49 77.5 102.5t73.5 102.5q34 48 55 86.5t21 57.5q-1 8 -3 16l-4 16q-2 7 -3.5 15.5t-1.5 17.5q0 14 5.5 22.5t14.5 7.5q12 -1 25.5 -10.5t24.5 -24.5
q12 -16 20 -37t9 -45q0 -21 -25 -63t-61 -91t-75.5 -97.5t-66.5 -82.5q-25 -32 -53.5 -68.5t-58.5 -73.5q-29 -38 -59 -76t-58 -72q-12 -15 -26.5 -16t-25.5 7q-10 7 -13 20.5t8 27.5z" />
    <glyph glyph-name="guilsinglleft" unicode="&#x2039;" horiz-adv-x="400" 
d="M270 476q2 17 5.5 25t14.5 8q8 0 16.5 -7t15 -18.5t11 -26.5t4.5 -30q0 -11 -15.5 -26.5t-50.5 -40.5q-23 -16 -46.5 -34t-39.5 -33q-13 -13 -4 -21q13 -14 30.5 -28.5t37 -28t40 -26t39.5 -22.5q20 -11 27.5 -24.5t2.5 -25.5q-3 -8 -10.5 -13t-17 -7t-19 -0.5t-16.5 6.5
q-39 22 -82.5 52.5t-78.5 63.5q-16 14 -25 30.5t-9 35.5q0 10 5.5 21t13.5 20q14 15 32 31t38 31q23 17 42 33.5t29 28.5q9 12 10 26z" />
    <glyph glyph-name="guilsinglright" unicode="&#x203a;" horiz-adv-x="400" 
d="M130 476q1 -14 10 -26q10 -12 29 -28.5t42 -33.5q20 -15 38 -31t32 -31q8 -9 13.5 -20t5.5 -21q0 -19 -9 -35.5t-25 -30.5q-35 -33 -78.5 -63.5t-82.5 -52.5q-7 -5 -16.5 -6.5t-19 0.5t-17 7t-10.5 13q-5 12 2.5 25.5t27.5 24.5q19 10 39.5 22.5t40 26t37 28t30.5 28.5
q8 8 -4 21q-16 15 -39.5 33t-46.5 34q-35 25 -50.5 40.5t-15.5 26.5q0 15 4.5 30t11 26.5t15 18.5t16.5 7q11 0 14.5 -8t5.5 -25z" />
    <glyph glyph-name="Euro" unicode="&#x20ac;" horiz-adv-x="655" 
d="M214 330q0 -17 1 -32t4 -29q25 0 48.5 1t43.5 3q16 1 42.5 4t54.5 6t54.5 5.5t44.5 2.5q27 -1 52.5 -16t25.5 -37q0 -23 -17 -33t-33 -10q-11 0 -21 1.5t-19 3.5q-9 1 -18 3t-18 2q-51 0 -106.5 -3.5t-109.5 -7.5q26 -56 70 -89.5t101 -33.5q63 0 111.5 24.5t84.5 64.5
q6 6 14.5 5t14.5 -7t7 -16t-8 -22q-17 -23 -41 -45.5t-54 -39.5q-30 -18 -65 -29t-74 -11q-100 0 -166.5 54.5t-98.5 132.5q-9 -2 -17.5 -1.5t-16.5 4.5q-20 6 -39 19t-34 28q-12 10 -6 23.5t23 13.5q15 -1 31.5 -1h34.5q-3 15 -4 31t-1 31v11h-3t-2 1q-20 8 -39 20.5
t-34 26.5q-12 12 -6 25t23 13q15 -1 33 -1h38q12 56 38.5 101t62.5 76q35 30 77.5 46.5t87.5 16.5q63 -1 107.5 -27.5t68.5 -49.5q3 -4 6.5 -1.5t3.5 17.5q0 12 4.5 30.5t15.5 18.5q17 0 28.5 -15.5t17.5 -35.5q7 -20 9.5 -40t2.5 -30q0 -30 -12.5 -43.5t-29.5 -13.5
q-10 0 -24.5 9t-31.5 22l-34 25.5t-34 21.5q-22 11 -47 16t-49 5q-22 0 -45.5 -9t-45.5 -27q-23 -18 -41.5 -46t-28.5 -66q23 0 44.5 1t39.5 3q16 1 42.5 4.5t54.5 6.5q28 4 54.5 6.5t44.5 2.5q27 -1 52.5 -17t25.5 -38t-17 -32t-33 -10q-11 0 -21 1.5t-19 3.5q-9 1 -18 3
t-18 2q-58 0 -121.5 -4.5t-123.5 -11.5v-18z" />
    <glyph glyph-name="trademark" unicode="&#x2122;" horiz-adv-x="1024" 
d="M550 668q37 -55 67 -108t47 -89q0 -2 0.5 -3t1.5 -2q0 -1 0.5 -2t1.5 -2l10 21q9 21 16.5 41t14.5 38q7 19 12.5 36.5t11.5 34.5q0 2 1 4.5t1 4.5q1 3 1.5 5t1.5 5q-1 1 -1 2v2l-12 20q-3 4 -4.5 9.5t-1.5 11.5q0 9 9.5 12t15.5 3q13 -2 22.5 -6.5t20.5 -13.5
q20 -18 23 -44.5t3 -48.5v-131q0 -17 -0.5 -35.5t-0.5 -42.5q-1 -21 -7.5 -34.5t-26.5 -13.5t-27.5 15t-7.5 33v83q0 3 -0.5 9t-0.5 12q-2 -4 -3.5 -7.5t-2.5 -7.5q-2 -4 -3.5 -7.5t-2.5 -6.5q-9 -21 -22 -44.5t-21 -35.5q-9 -12 -18 -19.5t-24 -7.5h-2q-17 0 -26.5 14.5
t-12.5 28.5q-12 41 -23.5 80.5t-24.5 75.5q-1 -12 -1.5 -24.5t-0.5 -24.5q-1 -11 -1.5 -21.5t-0.5 -18.5q-2 -21 -5.5 -43t-6.5 -35q-2 -7 -6 -13.5t-8 -12.5q-5 -6 -9.5 -11t-7.5 -8q-11 -7 -16.5 -6.5t-7.5 3.5q-2 4 -2 9t1 7q1 7 2 17t1 15v84q0 8 -0.5 28t-1.5 43
q0 23 -1 46t-1 38q-1 3 -1 7v8q0 4 -0.5 7.5t-0.5 5.5l-12 20q-3 4 -4.5 9.5t-1.5 11.5q0 9 9.5 12t15.5 3q13 -2 22 -6t20 -13q6 -6 10.5 -12t7.5 -12zM207 627q-21 8 -33.5 20t-15.5 21q-10 14 -3 23t22 9q27 -3 67 -3t67 3q11 1 23 3t25 4q12 2 24.5 4t26.5 2
q15 0 35 -14t20 -34q0 -18 -16 -26t-28 -8q-7 0 -12 1t-10 3q-5 1 -10.5 2.5t-11.5 1.5h-30q2 -9 2.5 -19t0.5 -20q-1 -30 -2.5 -69t-2.5 -63q-2 -21 -5 -43t-6 -35q-5 -13 -15.5 -25.5t-17.5 -19.5q-11 -7 -16.5 -6.5t-7.5 3.5q-2 4 -2 9t1 7q2 7 3 17t1 15v84q0 9 -1 24.5
t-2 33.5l-2 36q-1 18 -1 33q-1 3 -1.5 7t-0.5 8t-0.5 8.5t-0.5 7.5l-14 -2q-7 -1 -13 -2q-5 -1 -9.5 -2t-9.5 -2t-10 -0.5t-8 3.5z" />
  </font>
</defs>
</svg>
